<svg width="63" height="62" viewBox="0 0 63 62" fill="none" xmlns="http://www.w3.org/2000/svg">
<g clip-path="url(#clip0_10_276)">
<path d="M31.5 33.8182C40.8387 33.8182 48.4091 26.2477 48.4091 16.9091C48.4091 7.57046 40.8387 0 31.5 0C22.1614 0 14.5909 7.57046 14.5909 16.9091C14.5909 26.2477 22.1614 33.8182 31.5 33.8182Z" fill="white"/>
<path d="M55.5646 42.991C52.9005 41.6245 48.6567 39.7077 43.5819 38.3385C42.8774 38.1403 42.1343 38.5326 41.8893 39.2233L36.1136 55.3364L34.365 46.5908L37.0649 38.4912C37.2079 38.0619 37.1365 37.5886 36.8695 37.221C36.6053 36.8537 36.1815 36.6362 35.7273 36.6362H27.2728C26.8186 36.6362 26.3948 36.8537 26.1306 37.221C25.8637 37.5884 25.7921 38.0619 25.9353 38.4912L28.6352 46.5908L26.8865 55.3364L21.1109 39.2233C20.866 38.5326 20.1201 38.1417 19.4182 38.3385C14.3433 39.7077 10.0995 41.6245 7.43551 42.991C3.15856 45.1872 0.5 49.5218 0.5 54.3008V56.3636C0.5 59.4721 3.02923 62 6.13641 62H27.2728H35.7273H56.8637C59.9709 62 62.5001 59.4722 62.5001 56.3636V54.3008C62.5 49.5218 59.8414 45.1872 55.5646 42.991Z" fill="white"/>
</g>
<defs>
<clipPath id="clip0_10_276">
<rect width="62" height="62" fill="white" transform="translate(0.5)"/>
</clipPath>
</defs>
</svg>
