<svg width="28" height="28" viewBox="0 0 28 28" fill="none" xmlns="http://www.w3.org/2000/svg">
<g clip-path="url(#clip0_4_1384)">
<path d="M23.3333 25.6668H4.66667C4.35725 25.6668 4.0605 25.5439 3.84171 25.3251C3.62292 25.1063 3.5 24.8096 3.5 24.5002V3.50016C3.5 3.19074 3.62292 2.894 3.84171 2.6752C4.0605 2.45641 4.35725 2.3335 4.66667 2.3335H23.3333C23.6428 2.3335 23.9395 2.45641 24.1583 2.6752C24.3771 2.894 24.5 3.19074 24.5 3.50016V24.5002C24.5 24.8096 24.3771 25.1063 24.1583 25.3251C23.9395 25.5439 23.6428 25.6668 23.3333 25.6668ZM10.5 7.00016H8.16667V9.3335C8.16667 10.8806 8.78125 12.3643 9.87521 13.4583C10.9692 14.5522 12.4529 15.1668 14 15.1668C15.5471 15.1668 17.0308 14.5522 18.1248 13.4583C19.2188 12.3643 19.8333 10.8806 19.8333 9.3335V7.00016H17.5V9.3335C17.5 10.2618 17.1313 11.152 16.4749 11.8084C15.8185 12.4647 14.9283 12.8335 14 12.8335C13.0717 12.8335 12.1815 12.4647 11.5251 11.8084C10.8687 11.152 10.5 10.2618 10.5 9.3335V7.00016Z" fill="#4E4034"/>
</g>
<defs>
<clipPath id="clip0_4_1384">
<rect width="28" height="28" fill="white"/>
</clipPath>
</defs>
</svg>
