<svg width="102" height="50" viewBox="0 0 102 50" fill="none" xmlns="http://www.w3.org/2000/svg">
<g clip-path="url(#clip0_12_260)">
<path d="M27.6212 2.31128C27.6188 2.26406 27.626 2.21685 27.6424 2.17251C27.6589 2.12818 27.6841 2.08765 27.7167 2.05338C27.7493 2.01911 27.7885 1.99184 27.8319 1.9732C27.8754 1.95455 27.9222 1.94492 27.9694 1.94492C28.0167 1.94492 28.0635 1.95455 28.1069 1.9732C28.1504 1.99184 28.1896 2.01911 28.2221 2.05338C28.2547 2.08765 28.28 2.12818 28.2964 2.17251C28.3128 2.21685 28.32 2.26406 28.3176 2.31128V4.85336C28.1384 4.744 27.9824 4.73145 27.9054 4.96361C28.4925 5.09269 28.0667 5.34457 27.9116 5.66726H27.8408C27.692 5.64127 27.5432 5.62154 27.4016 5.58927C27.5533 5.4152 27.6378 5.19269 27.64 4.96182H27.6212V2.30948V2.31128ZM26.3367 5.66726H26.1377C26.0546 5.63081 25.9682 5.60257 25.8796 5.58299C25.8984 5.54444 25.9181 5.49874 25.9378 5.4602C25.6797 5.52473 25.4466 5.59555 25.2207 5.66726H24.2786C24.1496 5.37684 24.0994 5.00843 23.7301 4.96989H25.2987C25.5676 5.27286 26.3959 5.02188 26.3376 5.66726H26.3367ZM23.0713 5.52473C23.0249 5.46558 22.9976 5.39363 22.9933 5.31856V4.07889C23.2227 4.02082 23.4557 3.97771 23.6907 3.94982V4.96361H23.6781C23.6437 5.17948 23.5251 5.3729 23.3482 5.50142C23.3294 5.48798 23.3097 5.46916 23.2909 5.45571C23.216 5.47074 23.1424 5.49233 23.0713 5.52025V5.52473ZM22.9933 2.67879V1.36831C23.2251 1.33371 23.4612 1.3404 23.6907 1.38805V1.54312L23.6781 1.52966C23.6136 1.82725 23.6199 2.03968 23.6907 2.20103V2.76933C23.4656 2.69741 23.2293 2.66704 22.9933 2.67969V2.67879ZM22.9933 0.527535C23.18 0.730858 23.4226 0.87458 23.6907 0.940744V0.463H32.3513V2.08988C32.5583 2.12215 32.7905 2.15441 33.0486 2.17324V0.111613C33.0426 0.02114 33.0039 -0.0640484 32.9398 -0.128167C32.8756 -0.192286 32.7904 -0.230974 32.6999 -0.237061H23.342C23.2515 -0.230974 23.1663 -0.192286 23.1022 -0.128167C23.0381 -0.0640484 22.9994 0.02114 22.9933 0.111613V0.523946V0.527535ZM33.0486 3.04452V5.14916C33.0486 5.24164 33.0119 5.33031 32.9465 5.3957C32.8811 5.4611 32.7924 5.49784 32.6999 5.49784C32.6075 5.49784 32.5188 5.4611 32.4534 5.3957C32.388 5.33031 32.3513 5.24164 32.3513 5.14916V3.15656C32.5872 3.14687 32.8212 3.10987 33.0486 3.04631V3.04452Z" fill="#DDB748"/>
<path d="M50.3189 0.0551398L50.2033 0.210208V0.216489C50.1137 0.325844 50.0482 0.410095 49.9702 0.500627C49.8869 0.616257 49.791 0.726521 49.7013 0.848425C49.8044 0.997221 49.9075 1.11732 49.998 1.23564C50.2759 1.59418 50.5018 1.88103 50.6255 2.23599C50.0635 1.55834 49.4504 0.920127 48.7665 0.751611C48.6957 0.66825 48.6311 0.583988 48.5666 0.500627C48.502 0.417266 48.424 0.321362 48.3344 0.216489V0.210208C48.1724 0.00883055 48.0296 -0.207229 47.9077 -0.435165C47.8119 -0.611816 47.7487 -0.804349 47.7213 -1.00346C47.8566 -0.616238 48.424 -0.306085 48.6374 -0.564236C48.7082 -0.448606 48.7924 -0.332079 48.883 -0.205693H48.8892C48.9403 -0.13488 49.0246 -0.0318131 49.1089 0.0712681C49.16 0.135806 49.2119 0.206623 49.2702 0.278332C49.3213 0.206623 49.3796 0.135806 49.4316 0.0712681C49.5149 -0.0318131 49.5992 -0.13488 49.6503 -0.205693C49.7023 -0.277401 49.7543 -0.334782 49.7991 -0.39932C49.9566 -0.228604 50.1317 -0.0750573 50.3216 0.0587287L50.3189 0.0551398ZM50.7125 3.27575C50.6796 3.52157 50.6031 3.75957 50.4866 3.9785C50.3466 4.22812 50.1801 4.46193 49.99 4.67587C49.756 4.61332 49.5481 4.47764 49.3966 4.28864C49.5453 4.1313 49.6791 3.96057 49.7964 3.77861C49.9766 3.76709 50.1521 3.71607 50.3104 3.62917C50.4687 3.54227 50.606 3.4216 50.7125 3.27575ZM50.9643 7.32192C51.0056 7.56913 51.0209 7.81997 51.01 8.07036C51.0059 8.16263 50.9663 8.24975 50.8995 8.31354C50.8327 8.37733 50.7438 8.41287 50.6515 8.41278C50.6325 8.40765 50.6129 8.40552 50.5932 8.4065C50.8577 7.67686 50.7089 8.07666 50.3091 7.81851C50.3028 7.72887 50.2965 7.6446 50.2894 7.56034C50.4989 7.44532 50.7256 7.36481 50.9607 7.32192H50.9643ZM48.2797 7.32818C48.2672 7.39899 48.2537 7.46353 48.2475 7.53524C48.0279 7.63205 47.7993 7.72169 47.5895 7.83194C47.5698 7.80595 47.5438 7.78622 47.525 7.76113C47.5374 7.56153 47.5632 7.36301 47.6021 7.16685C47.7249 7.13458 47.7249 7.0315 47.6666 6.89794C47.7186 6.74287 47.7697 6.58779 47.8342 6.43272C48.1184 6.63978 47.9239 7.1749 48.2824 7.32908L48.2797 7.32818ZM48.1309 4.12729C48.1058 4.0753 48.0736 4.03049 48.0476 3.9785C47.879 3.65638 47.7945 3.29687 47.802 2.93335C48.0554 2.9547 48.2994 3.03913 48.5119 3.17896C48.5363 3.34553 48.5887 3.50675 48.6669 3.6558C48.7301 3.77409 48.8036 3.88657 48.8866 3.99194C48.8866 4.05647 48.8803 4.13357 48.8731 4.20438C48.6042 4.17929 48.3568 4.15328 48.1309 4.12729ZM47.802 2.90108C48.364 2.4529 48.4088 2.09436 48.1381 1.78422C47.9353 2.08262 47.8189 2.43131 47.802 2.79172V2.90108ZM47.6989 -1.26789V-1.31988C47.7022 -1.31632 47.7066 -1.31408 47.7115 -1.3136C47.7052 -1.30016 47.7052 -1.28133 47.6989 -1.26789ZM47.7249 -1.60402C47.7604 -1.84503 47.8413 -2.0771 47.9633 -2.28793C48.012 -2.36247 48.0659 -2.43347 48.1247 -2.50038C48.1571 -2.53888 48.1915 -2.57568 48.2277 -2.61063C48.641 -2.45556 49.0022 -2.39729 49.3249 -2.69398C49.2864 -2.50037 49.3894 -2.40357 49.4477 -2.27449C49.1124 -2.33903 48.744 -2.22341 48.5639 -1.92672C48.5241 -1.86726 48.4938 -1.80191 48.4742 -1.73309C48.2286 -1.69365 47.9839 -1.64884 47.7258 -1.60402H47.7249ZM38.9738 3.77413C39.1092 3.944 39.218 4.13351 39.2964 4.33615C39.3609 4.41951 39.4255 4.51003 39.5026 4.59429C39.6254 4.43922 39.741 4.31015 39.845 4.1999C39.438 4.05827 39.0956 3.75171 38.8312 3.16101C38.8449 3.37179 38.8931 3.57892 38.9738 3.77413ZM39.412 -2.7379C39.5089 -2.44748 39.2247 -2.18933 38.8742 -2.08535C38.8742 -2.07908 38.8742 -2.07281 38.8671 -2.07281C39.0906 -2.09413 39.3159 -2.08993 39.5384 -2.06027C39.4874 -1.8084 39.1799 -1.91774 38.971 -1.89175C38.8791 -1.69923 38.8056 -1.49846 38.7515 -1.29209C38.9639 -1.27237 39.1898 -1.25354 39.4156 -1.24009C39.4066 -1.48075 39.4623 -1.71942 39.577 -1.93118C39.8611 -2.39549 40.5845 -2.40177 40.9072 -2.04053C40.9377 -2.00623 40.9656 -1.96968 40.9906 -1.93118C41.1108 -1.70985 41.1667 -1.45929 41.1519 -1.20784V-1.20156H41.3132C41.3338 -1.36429 41.3093 -1.52955 41.2424 -1.67932C41.1904 -1.47943 41.5068 -1.36917 41.8492 -1.35662C41.838 -1.5997 41.7877 -1.83938 41.7005 -2.06653C41.6359 -2.01454 41.5391 -2.028 41.5068 -2.20816C41.5391 -2.22788 41.5714 -2.2467 41.5965 -2.26642C41.5949 -2.27612 41.5906 -2.28517 41.5839 -2.29242C41.5394 -2.36822 41.4875 -2.4394 41.4288 -2.50486C41.366 -2.5738 41.2966 -2.63652 41.2218 -2.69219C41.2155 -2.69846 41.2155 -2.69847 41.2093 -2.69847C41.229 -2.69219 41.2353 -2.68592 41.2093 -2.69847C41.1833 -2.72446 41.1322 -2.76302 41.1967 -2.71193C40.9322 -2.8864 40.6232 -2.98155 40.3064 -2.98615C39.9895 -2.99076 39.678 -2.90461 39.4085 -2.7379H39.412ZM44.6781 1.46421C44.8655 1.7869 45.0726 2.05761 45.4724 2.23868C45.311 2.87688 44.576 2.15441 44.4334 2.05133C44.0005 2.2064 44.4334 2.45111 43.9853 3.0454C44.7785 3.31431 45.3343 3.50971 45.8569 3.66477C46.0147 3.46365 46.1126 3.22214 46.1395 2.96791C46.1664 2.71368 46.1211 2.45702 46.0088 2.22734C45.8965 1.99767 45.7218 1.80428 45.5047 1.66931C45.2876 1.53434 45.0369 1.46325 44.7813 1.46421H44.6781ZM48.4025 -1.20156C48.26 -1.12447 48.3568 -0.911136 48.5182 -0.775786C48.4455 -0.90617 48.4058 -1.05233 48.4025 -1.20156ZM38.5426 7.91799C38.6269 7.97536 38.7299 8.03989 38.859 8.11159C38.7781 8.16401 38.6939 8.21132 38.6071 8.25323C38.566 8.19933 38.5434 8.13366 38.5426 8.0659V7.91799ZM41.3213 7.60785C41.3473 7.58186 41.3796 7.56303 41.4056 7.53704C41.6043 7.60615 41.8158 7.63034 42.025 7.60785C42.0391 7.7601 42.0432 7.91311 42.0375 8.0659C42.0363 8.09613 42.0322 8.12616 42.025 8.15554C41.9347 8.0718 41.8233 8.01434 41.7027 7.98937C41.5822 7.96441 41.4571 7.9729 41.341 8.01391C41.3415 7.87801 41.3349 7.74217 41.3213 7.60696V7.60785ZM40.6177 0.895913C40.5776 0.950034 40.5473 1.01069 40.528 1.07518C40.6634 1.09401 40.7969 1.10747 40.9278 1.11374C40.8758 1.04293 40.8113 0.96494 40.7539 0.881579C40.7082 0.887854 40.6643 0.887866 40.6177 0.89414V0.895913ZM39.7724 0.728305C39.8281 0.733631 39.8841 0.735732 39.94 0.734586C39.9077 0.263102 39.5815 0.0891933 39.1853 -0.0201621C39.2435 0.0569246 39.2946 0.134013 39.3592 0.205722V0.212002C39.4434 0.321358 39.5142 0.405609 39.5851 0.496141C39.6433 0.573228 39.7078 0.650322 39.7724 0.728305ZM39.7858 -0.375116C39.5 -0.454219 39.2038 -0.489273 38.9074 -0.479086C38.9114 -0.475629 38.9139 -0.470856 38.9146 -0.465649C39.2276 -0.434218 39.5379 -0.380292 39.8432 -0.304301C39.8259 -0.329295 39.8067 -0.352968 39.7858 -0.375116ZM40.1596 4.92952C40.1794 4.98779 40.1919 5.03888 40.2053 5.09087C40.069 5.10468 39.9393 5.15622 39.8306 5.23968C39.861 5.32373 39.8847 5.41004 39.9015 5.49782C39.7078 5.72998 39.508 6.06522 39.0625 6.02041C39.2773 5.64054 39.5305 5.2837 39.8181 4.95552C39.9314 4.94042 40.0454 4.93173 40.1596 4.92952ZM39.153 2.58645C39.0519 2.59188 38.9504 2.58768 38.85 2.57391C38.85 2.56137 38.8563 2.54164 38.8563 2.52192C38.9531 2.45738 39.0499 2.48965 39.153 2.58645Z" fill="#DDB748"/>
<path fill-rule="evenodd" clip-rule="evenodd" d="M15.0361 -0.876918C14.9131 -0.692124 14.7653 -0.525064 14.5969 -0.380354C14.3774 -0.176482 14.147 0.0153358 13.9067 0.194225C13.4627 0.523638 13.046 0.888445 12.6608 1.28509C12.2936 1.66888 11.9869 2.10621 11.751 2.58211C11.5448 3.03029 11.3638 3.33686 11.0796 3.55646C10.8954 3.69741 10.6803 3.79263 10.4522 3.83432C10.5927 3.98022 10.7508 4.10818 10.9227 4.21527C10.641 4.22253 10.3594 4.19636 10.0838 4.1373C10.0649 4.22694 10.0515 4.31657 10.0327 4.40172C9.98599 4.36026 9.94282 4.31499 9.90362 4.26637C9.81625 4.1686 9.73848 4.06264 9.67143 3.94996C9.60724 3.84831 9.55918 3.73735 9.52893 3.621C9.51813 3.56951 9.51881 3.51626 9.5309 3.46506C9.54298 3.41385 9.56614 3.36593 9.59882 3.32469C9.6315 3.28346 9.67288 3.24992 9.71997 3.22646C9.76706 3.203 9.81872 3.1902 9.87132 3.18895C10.2585 3.18895 10.4907 3.13069 10.6521 3.00968C10.8134 2.88867 10.955 2.63589 11.1236 2.28721V2.28095C11.3089 1.91204 11.5292 1.56174 11.7815 1.23488C11.7829 1.24576 11.785 1.25655 11.7878 1.26716C11.791 1.24984 11.7955 1.23276 11.8012 1.21606C11.8536 1.14062 11.9118 1.06931 11.9751 1.00274C12.227 0.873666 12.6402 0.913093 12.5819 0.473877C12.5478 0.478711 12.5133 0.480815 12.4789 0.480158C12.7755 0.202287 13.1063 -0.0684228 13.4792 -0.358843C13.7113 -0.538114 13.9372 -0.717378 14.1246 -0.888582C14.228 -0.978498 14.3228 -1.07783 14.4078 -1.18528C14.4401 -1.17901 14.4661 -1.16556 14.4921 -1.15928C14.4723 -1.13956 14.4535 -1.12701 14.4338 -1.10729C14.6274 -1.02393 14.8407 -0.953107 15.0343 -0.875124L15.0361 -0.876918ZM14.6167 3.50537C14.9976 3.41573 15.3849 3.32609 15.7819 3.25348C15.7882 3.24004 15.8007 3.2275 15.8079 3.21495C15.8007 3.12531 15.8527 3.01416 16.0203 2.8564C16.0415 2.85154 16.0632 2.84942 16.0849 2.85012C16.5044 2.25046 16.8271 1.57909 16.8531 0.927439C16.8723 0.63628 16.8327 0.344219 16.7366 0.0687215C16.5429 0.0687215 16.3171 0.0239167 15.9818 0.126998C16.0786 0.282068 16.1692 0.485547 16.1557 0.895183C16.1234 1.66247 15.5238 2.52117 14.9107 3.19882C14.8079 3.31534 14.7111 3.41872 14.6202 3.50895L14.6167 3.50537ZM16.2686 -1.03827C16.5274 -0.874975 16.7946 -0.725376 17.0691 -0.590088C17.2144 -0.683729 17.3394 -0.805665 17.4366 -0.948631C17.5316 -1.09605 17.5973 -1.2604 17.6302 -1.43268L18.4827 -1.76253L17.5594 -2.13631C17.5594 -2.14258 17.5594 -2.14259 17.5531 -2.14976C17.4905 -2.32204 17.3939 -2.47995 17.269 -2.61407V-2.62035C17.0321 -2.86342 16.7292 -3.0317 16.3977 -3.10438C16.0669 -3.17676 15.7224 -3.1544 15.4037 -3.03984C15.22 -2.97514 15.0511 -2.87424 14.9071 -2.74314C15.92 -2.95647 16.8692 -2.73687 17.217 -1.672C17.1274 -1.68455 17.0377 -1.69083 16.9481 -1.698V-1.65228C16.952 -1.54004 16.9206 -1.42939 16.8584 -1.33586C16.7828 -1.22746 16.6744 -1.1461 16.5492 -1.1037C16.4594 -1.07124 16.3662 -1.04958 16.2713 -1.03916L16.2686 -1.03827ZM18.3661 8.39141C18.1465 8.39141 17.9529 8.42369 17.8884 8.57876H18.056C18.1198 8.57865 18.1824 8.56115 18.2371 8.52814C18.2917 8.49514 18.3363 8.44787 18.3661 8.39141ZM17.7144 8.57876C17.5916 8.42997 17.6302 8.12072 17.6042 7.88139H17.5719C17.2483 8.01135 16.9873 8.26115 16.8432 8.57876H17.7144ZM16.6684 8.57876C15.8366 8.09473 16.2561 8.17181 16.3332 7.88139H16.0643C16.0606 7.87783 16.0559 7.87561 16.0508 7.87511L15.8716 7.69584C15.7507 7.74057 15.6249 7.77067 15.4969 7.78547C15.5232 7.81927 15.5513 7.8516 15.5811 7.88229H13.8189C13.4603 7.48251 13.1475 6.71702 12.9539 6.08957C12.9362 6.04513 12.9212 5.99963 12.9091 5.95332C12.7926 5.97932 12.6832 6.00531 12.573 6.03758C12.5864 6.08957 12.6052 6.14066 12.6187 6.19265C12.7926 6.74749 13.057 7.4126 13.3869 7.88319H12.4009C12.3084 7.88319 12.2197 7.9199 12.1543 7.9853C12.0889 8.05069 12.0522 8.13938 12.0522 8.23186C12.0522 8.32434 12.0889 8.41303 12.1543 8.47842C12.2197 8.54381 12.3084 8.58055 12.4009 8.58055L16.6684 8.57876ZM15.133 7.28799C15.0164 7.10065 14.9008 6.8945 14.7906 6.68744C14.7395 6.57808 14.6812 6.46783 14.6292 6.3522C14.4451 5.94815 14.2984 5.5281 14.1909 5.0973C14.3107 5.09772 14.4304 5.09114 14.5494 5.07758C14.6473 5.46364 14.7811 5.83967 14.9492 6.20072L15.1043 6.52968C15.2074 6.71702 15.3104 6.90436 15.4207 7.07198C15.3217 7.13721 15.2268 7.20845 15.1365 7.2853L15.133 7.28799ZM13.7678 5.08653C13.4989 5.06681 13.23 5.03456 12.9808 5.04084C13.1388 5.08628 13.2896 5.15356 13.429 5.24072C13.4796 5.22225 13.529 5.20067 13.5769 5.17617C13.6414 5.15107 13.7059 5.1188 13.7705 5.08653H13.7678ZM11.1218 5.09909C11.3134 5.05455 11.5073 5.02015 11.7026 4.99602C11.6703 4.82123 11.5995 4.67959 11.4122 4.66704C10.9999 4.69931 10.8313 4.79613 10.7668 4.9252C10.8818 4.99203 11.0017 5.05015 11.1253 5.09909H11.1218ZM16.4103 -1.66482C16.3871 -1.61856 16.3535 -1.57832 16.3121 -1.54722C16.2707 -1.51612 16.2227 -1.495 16.1718 -1.48555C16.2263 -1.57285 16.3113 -1.63676 16.4103 -1.66482ZM15.1132 0.032876C15.1313 0.0442619 15.1466 0.0595798 15.158 0.0776939C15.3266 0.265033 15.3131 0.536626 15.21 0.8136C15.0647 1.14971 14.8614 1.45767 14.6095 1.72342C14.5174 1.82698 14.4183 1.92402 14.3128 2.01384C14.2127 2.1084 14.0939 2.18104 13.9641 2.22716C13.9408 2.23283 13.9171 2.23703 13.8933 2.23972C13.8799 2.17802 13.882 2.11393 13.8996 2.05327V2.04609C13.9068 2.00127 13.913 1.95645 13.9255 1.90446C14.0152 1.49751 14.1192 1.00094 13.4774 0.859315C13.4322 0.851212 13.3857 0.860725 13.3473 0.885904C13.309 0.911083 13.2817 0.95001 13.2712 0.994666C13.2661 1.01712 13.2656 1.04037 13.2697 1.06303C13.2738 1.08569 13.2824 1.10729 13.2951 1.12654C13.3077 1.14578 13.3241 1.16227 13.3433 1.17503C13.3624 1.1878 13.384 1.19658 13.4066 1.20083C13.7033 1.26537 13.6387 1.58179 13.5814 1.83367C13.5679 1.88476 13.5616 1.94302 13.5491 1.98874C13.5223 2.11034 13.5266 2.23673 13.5617 2.35623C13.5784 2.40788 13.6078 2.4545 13.6473 2.49178C13.6868 2.52906 13.735 2.55582 13.7875 2.56957C13.8745 2.59267 13.9663 2.59017 14.0519 2.5624C14.233 2.50252 14.3999 2.40612 14.5423 2.27915C14.6562 2.17819 14.764 2.07042 14.865 1.95646C15.1472 1.65997 15.3726 1.31424 15.5301 0.936412C15.6851 0.542911 15.6914 0.155669 15.4207 -0.154471C15.3984 -0.179619 15.3744 -0.203256 15.349 -0.225265C15.3321 -0.240541 15.3124 -0.252355 15.291 -0.259994C15.2695 -0.267633 15.2468 -0.270964 15.224 -0.269798C15.2013 -0.268632 15.179 -0.26298 15.1585 -0.253188C15.1379 -0.243396 15.1195 -0.229647 15.1043 -0.212725C15.0879 -0.196543 15.075 -0.177181 15.0664 -0.155828C15.0578 -0.134474 15.0537 -0.11157 15.0543 -0.0885568C15.0549 -0.0655437 15.0602 -0.0428956 15.0698 -0.0220084C15.0795 -0.00112152 15.0934 0.0175507 15.1105 0.032876H15.1132ZM13.887 2.23344C13.887 2.23971 13.887 2.23972 13.8933 2.23972L13.887 2.23344Z" fill="#DDB748"/>
<path fill-rule="evenodd" clip-rule="evenodd" d="M58.6754 4.44093C58.8922 4.56656 59.0776 4.73994 59.2174 4.94791C59.3571 5.15587 59.4477 5.39297 59.4822 5.64116C58.6432 5.19298 57.7136 4.71164 56.9069 4.29663L56.4587 3.66918H57.8203V3.688C57.5164 3.688 57.3623 3.90761 57.2072 4.11466C57.7128 4.15558 58.2125 4.25053 58.6978 4.3979L58.6718 4.43734L58.6754 4.44093ZM63.5938 -0.451378C63.2348 -0.531512 62.9203 -0.74653 62.7153 -1.05196C62.4571 -0.155598 61.9086 -0.50337 61.3215 -0.767795C60.7604 0.149179 62.4769 -0.50965 61.9158 0.413598C61.6119 0.084635 60.9925 -0.0121822 61.0122 -0.560753C60.8293 -0.546122 60.6479 -0.516138 60.4699 -0.471117C60.6058 -0.831156 60.8607 -1.13385 61.1924 -1.32892L60.6438 -2.09082H60.7021C60.9951 -1.64351 61.3542 -1.24309 61.767 -0.903146C62.1532 -0.991664 62.5248 -1.13504 62.8704 -1.32892C63.2032 -1.12591 63.458 -0.816801 63.5938 -0.451378ZM61.0508 1.43992C61.36 1.40048 61.6442 1.40767 61.7222 1.45249C61.741 1.55557 61.6764 1.63176 61.5796 1.69809C61.3887 1.64611 61.2092 1.55851 61.0508 1.43992ZM62.0448 1.76262C61.9668 1.54929 61.8898 1.34939 62.2895 1.28486C62.4383 1.38764 62.5934 1.49071 62.7547 1.59409C62.5329 1.70049 62.2908 1.75797 62.0448 1.76262ZM65.3103 4.47949C66.2326 4.83803 66.7489 5.37584 66.2066 6.29282C67.3611 6.29909 66.7445 4.74391 67.7618 5.28621C67.8339 5.47137 67.871 5.66833 67.8712 5.86705C67.8702 6.237 67.7465 6.59616 67.5194 6.88819C67.2923 7.18021 66.9746 7.38855 66.6163 7.48049C66.325 7.42375 66.0265 7.41497 65.7325 7.45449C65.4304 7.36274 65.1608 7.18657 64.9555 6.94675C64.7502 6.70692 64.6177 6.41342 64.5736 6.10081C64.5295 5.7882 64.5757 5.46951 64.7067 5.18226C64.8377 4.89502 65.048 4.65119 65.3129 4.47949H65.3103ZM67.388 3.96318C66.9748 3.84666 66.6073 3.76957 66.4585 3.67277H67.5951L67.388 3.96318Z" fill="#DDB748"/>
<path fill-rule="evenodd" clip-rule="evenodd" d="M80.8586 0.861991C80.7454 0.861607 80.6326 0.874537 80.5225 0.900529C80.636 0.912002 80.7506 0.898862 80.8586 0.861991ZM79.264 2.08105C79.2514 2.13304 79.238 2.19128 79.2254 2.24237C79.2826 2.3463 79.3323 2.45414 79.3742 2.56507C80.1093 2.5328 80.8649 2.52654 80.8649 1.76553C80.8611 1.91421 80.8959 2.06133 80.966 2.19252C81.0361 2.32371 81.139 2.43446 81.2646 2.51397C81.3749 2.48798 81.5165 2.45571 81.6842 2.40372C81.3677 2.32664 81.4323 1.97796 81.5488 1.60418C81.3345 1.66508 81.1053 1.64661 80.9034 1.55218C80.7884 1.71875 80.6232 1.84434 80.432 1.91073C80.037 1.90991 79.6442 1.96853 79.2667 2.08461L79.264 2.08105ZM81.2646 0.89427C81.2308 0.886277 81.1963 0.881758 81.1616 0.880811C81.1434 1.00369 81.1109 1.12402 81.0648 1.23935C81.1497 1.13496 81.2172 1.01752 81.2646 0.891578V0.89427ZM79.5159 3.35297C79.5214 3.24943 79.5172 3.1456 79.5033 3.04284C79.7882 3.04977 80.0698 3.10649 80.3352 3.21044C80.2841 3.28215 80.2195 3.3718 80.1487 3.46861L79.5159 3.35297ZM78.5801 0.364508C78.8642 0.325965 79.0516 0.241715 79.1735 0.126085C79.6889 -0.00280082 80.2132 -0.0926908 80.7421 -0.142822C80.8513 0.0823757 81.0035 0.283966 81.1903 0.450555C81.2036 0.472919 81.2144 0.496666 81.2225 0.521371C81.1455 0.521371 81.0675 0.527659 80.9841 0.53483C80.6233 0.563371 80.2643 0.610628 79.9085 0.676439C79.4903 0.450473 79.0051 0.381793 78.5406 0.482834C78.5477 0.441009 78.5585 0.399897 78.5729 0.360022L78.5801 0.364508ZM85.7312 1.77179C85.7823 1.74579 85.828 1.71352 85.8791 1.68215C86.0082 1.81123 86.131 1.94031 86.2538 2.07566C86.0962 2.1081 85.9336 2.1081 85.776 2.07566C85.7665 1.97394 85.7516 1.8728 85.7312 1.77268V1.77179ZM85.0079 0.919349C84.9218 1.03176 84.8462 1.15177 84.782 1.27789C84.7101 1.2842 84.639 1.29712 84.5695 1.31645C84.6529 0.974042 84.4979 0.806417 84.4656 0.548266C84.6529 0.665689 84.834 0.787603 85.0079 0.916679V0.919349Z" fill="#DDB748"/>
<path d="M93.2175 0.258545C93.4685 0.284539 93.7267 0.310537 93.9786 0.329361C93.94 0.484431 93.8889 0.658309 93.8495 0.807105H93.7231C93.5395 0.638712 93.3704 0.455223 93.2175 0.258545Z" fill="#DDB748"/>
<path fill-rule="evenodd" clip-rule="evenodd" d="M4.18776 -2.42586L4.29083 -0.838419C4.02192 -0.592817 3.80681 -0.300617 3.74855 -0.089973C3.94844 -0.160785 4.12947 -0.245035 4.32309 -0.328396L4.33565 -0.0379772C4.18216 -0.0501285 4.02808 -0.0236161 3.88747 0.0391192C3.86237 0.613685 3.95199 1.31731 4.45575 1.88471L4.60456 4.21524C4.49102 4.26435 4.36957 4.2926 4.24601 4.29861C3.88747 3.74377 3.34966 3.22298 3.22058 4.13727C3.04287 4.00217 2.83432 3.91344 2.61375 3.8791C2.62002 3.82801 2.63258 3.77603 2.63975 3.73121C2.86563 3.5376 2.76882 3.40135 2.81363 3.25973C2.93016 3.1181 3.14886 3.02129 3.6078 2.85278C3.27166 2.65916 3.22686 2.1823 3.13633 1.74936C3.30395 1.73053 3.42672 1.72337 3.48498 1.76281C3.81395 1.12999 2.45238 1.00717 3.48498 -0.089973C2.87187 -0.141065 2.54921 0.0892987 2.25879 0.358206V-0.138358C2.25879 -0.841999 2.38159 -1.35204 2.61734 -1.76526C2.76975 -2.02343 2.96635 -2.25281 3.19818 -2.44291C3.4793 -2.58161 3.77963 -2.67738 4.08915 -2.72705C4.10582 -2.70902 4.12082 -2.68951 4.13397 -2.66877C4.18219 -2.59662 4.20081 -2.50868 4.18596 -2.42317L4.18776 -2.42586ZM3.18023 5.6028C2.96152 5.76414 2.79303 5.91205 2.68995 5.46029C2.97409 5.37693 3.00635 5.26666 2.94809 5.13131C2.8128 5.15454 2.67924 5.18689 2.54832 5.22813C2.53826 5.13813 2.54807 5.04703 2.57703 4.96123C2.60599 4.87543 2.6534 4.79703 2.71595 4.73154C2.66071 4.64314 2.62929 4.54195 2.62473 4.43782C2.62018 4.33368 2.64264 4.23015 2.68995 4.13727C2.64631 4.13197 2.60316 4.12328 2.56088 4.11127C2.5546 4.13099 2.55459 4.1507 2.54832 4.16952C2.45133 4.17502 2.35402 4.17083 2.25787 4.15698V4.82118C2.31682 4.77323 2.37281 4.72175 2.4255 4.667C2.49632 5.09277 2.34124 5.35094 2.25787 5.57682V6.03485C2.30111 6.11504 2.35782 6.18721 2.4255 6.24819C2.36988 6.25523 2.31393 6.25941 2.25787 6.26073V7.91899C2.25776 7.96482 2.2667 8.01021 2.28418 8.05257C2.30166 8.09493 2.32736 8.13342 2.35977 8.16582C2.39217 8.19822 2.43063 8.2239 2.47299 8.24138C2.51535 8.25887 2.56075 8.26781 2.60657 8.26769C2.69867 8.26675 2.78671 8.22968 2.85176 8.16446C2.9168 8.09925 2.95365 8.0111 2.95435 7.91899V6.1962C3.01741 5.99396 3.09285 5.79578 3.18023 5.6028Z" fill="#DDB748"/>
<path fill-rule="evenodd" clip-rule="evenodd" d="M26.0722 16.1546H26.9686C26.9881 16.1543 27.0074 16.158 27.0255 16.1653C27.0435 16.1727 27.0599 16.1836 27.0737 16.1973C27.0875 16.2111 27.0984 16.2275 27.1057 16.2456C27.1131 16.2636 27.1167 16.283 27.1165 16.3025V17.9482C27.1162 17.9874 27.1006 18.025 27.073 18.0528C27.0453 18.0806 27.0078 18.0965 26.9686 18.097H26.0722C26.0332 18.0956 25.9961 18.0795 25.9685 18.0519C25.9409 18.0243 25.9248 17.9872 25.9234 17.9482V16.3025C25.9239 16.2632 25.9397 16.2257 25.9676 16.1981C25.9954 16.1704 26.033 16.1548 26.0722 16.1546ZM20.7156 21.4852C20.8094 21.3495 20.8772 21.1975 20.9155 21.037C21.4766 21.5659 22.3093 21.0756 22.8875 20.7851H20.4996C20.4538 20.785 20.4084 20.794 20.366 20.8114C20.3236 20.8289 20.2851 20.8546 20.2527 20.887C20.2203 20.9194 20.1947 20.9579 20.1772 21.0003C20.1597 21.0426 20.1508 21.088 20.1509 21.1338C20.1516 21.2261 20.1885 21.3144 20.2538 21.3796C20.319 21.4448 20.4073 21.4818 20.4996 21.4825L20.7156 21.4852ZM23.5678 20.7878C23.5754 20.8719 23.5711 20.9567 23.5552 21.0397C23.4907 20.6399 23.1223 21.0012 23.0255 21.3086C23.2836 21.0764 23.5875 21.193 23.8519 21.47C23.9546 21.3507 24.0376 21.2157 24.0976 21.0702C24.5457 21.0182 24.6138 21.7344 24.82 22.1736C25.5039 21.4637 26.117 21.1993 26.7499 20.7923H25.1167C25.1648 20.8079 25.2149 20.8167 25.2655 20.8183C24.8003 21.167 24.5233 21.0639 24.3163 20.7923L23.5678 20.7878ZM21.6774 17.9544C21.6847 18.0027 21.6955 18.0503 21.7097 18.097H21.3413C21.301 18.0977 21.2621 18.0824 21.233 18.0546C21.204 18.0267 21.1871 17.9884 21.1862 17.9482V16.4378C21.3798 16.341 21.5734 16.2442 21.7805 16.1546H22.2287C22.2688 16.1538 22.3076 16.169 22.3366 16.1966C22.3656 16.2243 22.3825 16.2624 22.3837 16.3025V17.9482C22.383 17.9778 22.3734 18.0066 22.3561 18.0307C22.3389 18.0549 22.3148 18.0733 22.2869 18.0835C22.2344 18.0168 22.1684 17.9618 22.0933 17.9222C22.0922 17.982 22.0943 18.0418 22.0996 18.1015H21.8307C21.7822 18.0509 21.7307 18.0033 21.6765 17.9589L21.6774 17.9544ZM31.3446 17.9293C30.9771 17.6452 31.0605 17.0446 30.6607 16.7802V17.9455C30.6603 17.9651 30.6639 17.9846 30.6713 18.0028C30.6786 18.0211 30.6895 18.0376 30.7034 18.0515C30.7173 18.0654 30.7339 18.0763 30.7521 18.0837C30.7703 18.091 30.7898 18.0946 30.8095 18.0943H31.7058C31.7255 18.0946 31.745 18.091 31.7632 18.0837C31.7814 18.0763 31.798 18.0654 31.8118 18.0515C31.8257 18.0376 31.8367 18.0211 31.8441 18.0028C31.8514 17.9846 31.855 17.9651 31.8546 17.9455V17.2876C31.5516 17.3324 31.332 17.4229 31.3446 17.9266V17.9293ZM30.6607 16.393C30.7142 16.3104 30.7722 16.2308 30.8346 16.1546H30.8095C30.7899 16.1542 30.7705 16.1578 30.7523 16.1651C30.7342 16.1724 30.7177 16.1832 30.7038 16.197C30.6899 16.2108 30.6789 16.2272 30.6715 16.2454C30.6641 16.2635 30.6604 16.2829 30.6607 16.3025V16.3921V16.393ZM32.0868 23.3693C31.9393 23.2901 31.7806 23.2336 31.6162 23.2017C31.6736 23.0404 31.6996 22.8432 31.7453 22.6729H32.5448C32.592 22.6705 32.6393 22.6777 32.6836 22.6941C32.7279 22.7105 32.7685 22.7358 32.8027 22.7684C32.837 22.801 32.8643 22.8402 32.8829 22.8836C32.9016 22.9271 32.9112 22.9738 32.9112 23.0211C32.9112 23.0684 32.9016 23.1152 32.8829 23.1586C32.8643 23.2021 32.837 23.2413 32.8027 23.2738C32.7685 23.3064 32.7279 23.3317 32.6836 23.3481C32.6393 23.3645 32.592 23.3717 32.5448 23.3693H32.0868ZM31.9577 21.487H32.5448C32.6371 21.4863 32.7254 21.4493 32.7906 21.3841C32.8559 21.3189 32.8928 21.2306 32.8935 21.1383C32.8936 21.0925 32.8847 21.0471 32.8672 21.0047C32.8497 20.9624 32.824 20.9239 32.7916 20.8915C32.7592 20.8591 32.7208 20.8334 32.6784 20.8159C32.636 20.7984 32.5906 20.7895 32.5448 20.7896H31.5588C31.1393 21.0585 30.6419 21.1643 30.0162 20.8156C30.0206 20.8077 30.0228 20.7987 30.0225 20.7896H28.7371C28.7933 20.885 28.8307 20.9903 28.8473 21.0997C27.821 21.5775 28.3436 22.1647 28.7694 22.8163C27.8147 22.4873 27.5369 22.7392 27.0986 23.3711H28.7443V23.3604C28.7542 23.3655 28.7654 23.3677 28.7765 23.3666H30.9834C31.0011 23.3218 31.0227 23.2786 31.0479 23.2376C30.2797 22.9991 29.6989 23.225 29.1055 22.8889C29.5801 22.7653 30.0475 22.6157 30.5056 22.4407V21.4861H31.8869C31.9314 21.4288 31.9723 21.3689 32.0097 21.3068C31.9844 21.3636 31.9669 21.4237 31.9577 21.4852V21.487Z" fill="#DDB748"/>
<path fill-rule="evenodd" clip-rule="evenodd" d="M45.5306 17.9034C45.3511 17.9026 45.1726 17.9285 45.0008 17.9805C45.1433 18.0584 45.2984 18.1481 45.492 18.2494C45.4217 18.3032 45.3697 18.3774 45.3432 18.4618C45.7704 18.4369 46.1952 18.3809 46.6142 18.2942C46.3104 18.0399 45.9268 17.9006 45.5306 17.9007V17.9034ZM43.8203 19.6719C43.8254 19.9241 43.8896 20.1715 44.0076 20.3944C44.1107 20.427 44.2053 20.4821 44.2846 20.5557C44.5948 20.5682 44.5885 20.1236 44.6853 19.8261C45.2787 20.1102 45.6659 20.1945 46.098 20.2007C46.0657 20.1362 46.0334 20.0654 46.0011 19.9811C46.1392 20.0725 46.2903 20.1423 46.4493 20.1882C46.6564 20.1685 46.8885 20.1488 47.1664 20.1237C47.207 19.9982 47.231 19.868 47.2381 19.7364C46.9154 19.7167 46.7406 19.3232 46.6376 18.8974C45.8568 19.368 44.8045 19.8781 43.8239 19.6719H43.8203ZM39.8961 18.6393C39.9425 18.6561 39.986 18.68 40.0251 18.7101C40.0268 18.6569 40.0377 18.6044 40.0574 18.555C40.0063 18.581 39.948 18.6133 39.8961 18.6393ZM41.3481 17.9742C41.7731 17.9551 42.1952 18.0535 42.5681 18.2583C42.837 18.1687 43.1059 18.0791 43.3748 18.0002C43.0781 17.8837 42.8137 17.7358 42.6389 17.4964C42.2068 17.639 41.7811 17.8003 41.3481 17.9742ZM43.8069 17.1675C44.382 17.0282 44.9669 16.9332 45.5565 16.8833C46.1007 16.8397 46.648 16.8551 47.1888 16.929C47.6989 16.9991 48.1953 17.1469 48.6606 17.3673C49.0133 17.5385 49.3484 17.7438 49.661 17.9805C49.4817 18.0002 49.3186 18.0387 49.2675 18.2449C49.3965 18.3614 49.5184 18.4645 49.626 18.5748C49.5032 18.7101 49.4969 18.8652 49.2836 18.3874C49.2217 18.3956 49.1613 18.4128 49.1043 18.4385C48.8699 18.2715 48.6216 18.1249 48.3621 18.0002C47.9579 17.8089 47.5269 17.6804 47.0839 17.6192C46.594 17.554 46.0985 17.5411 45.6058 17.5807C45.2329 17.6077 44.8622 17.6595 44.4962 17.7358C44.4066 17.7207 44.3249 17.6753 44.2649 17.607C44.205 17.5387 44.1705 17.4519 44.1672 17.3611C44.2703 17.3485 44.3796 17.3674 44.4182 17.4319C44.5221 17.2257 44.2389 17.3423 44.0955 17.1226L43.9861 17.232C43.9302 17.2011 43.8697 17.1793 43.8069 17.1675ZM45.5099 22.6657V22.6595C44.6772 22.1629 43.5478 22.0275 42.967 21.7559C42.8899 21.7434 42.8128 21.7237 42.7285 21.7111C42.689 21.9501 42.7021 22.1948 42.7671 22.4282C43.6722 22.5906 44.5903 22.6704 45.5099 22.6666V22.6657ZM50.4283 19.2775C50.7509 19.5268 51.119 19.711 51.5119 19.8198C51.6912 20.0269 51.8803 20.233 52.0668 20.4329C51.9897 20.3943 51.9189 20.3621 51.8409 20.3236C51.7701 20.3746 51.6993 20.4266 51.6222 20.4786C51.4859 20.3361 51.3246 20.2204 51.2861 19.9811C51.1356 19.9973 50.9949 20.0632 50.8863 20.1685C50.6541 19.9103 50.4211 19.6459 50.1764 19.394C50.27 19.3576 50.3674 19.3318 50.4668 19.3169L50.4283 19.2775ZM51.0091 20.9429C50.6407 21.2459 50.3377 21.556 50.2409 21.8142C50.0276 21.8662 49.8151 21.9236 49.5892 21.9818C49.5373 21.9953 49.479 22.0141 49.4207 22.0275C49.0398 22.0019 48.6826 21.8336 48.4204 21.556C48.5629 21.5238 48.7046 21.4915 48.8336 21.4592C48.8722 21.5686 48.8722 21.7174 48.9045 21.8339C49.263 21.6591 49.3437 21.5175 49.3526 21.3239C49.3747 21.3229 49.3965 21.3184 49.4171 21.3104C49.9899 21.1625 50.5125 21.02 51.01 20.9402L51.0091 20.9429Z" fill="#DDB748"/>
<path fill-rule="evenodd" clip-rule="evenodd" d="M10.3054 13.3338C10.6662 13.335 11.0118 13.4788 11.2669 13.7339C11.5219 13.989 11.6658 14.3346 11.667 14.6954C11.6669 14.8446 11.643 14.9929 11.5962 15.1346C11.2027 15.0763 10.8092 15.1086 10.6156 14.7026C10.0607 15.373 9.80883 15.373 9.15718 15.425C8.98153 15.1505 8.91091 14.8217 8.95834 14.4993C9.00578 14.1768 9.16806 13.8823 9.41532 13.6699V13.6825C9.84109 13.6951 9.91819 13.5794 9.83483 13.4136C9.98572 13.3588 10.1449 13.3303 10.3054 13.3293V13.3338ZM10.3511 16.0579H10.3054C10.2035 16.0599 10.1017 16.049 10.0025 16.0256C10.1181 16.0381 10.2346 16.0444 10.3511 16.0579ZM11.4088 20.2456C10.6989 20.1685 12.1062 21.272 10.88 21.0398C10.4865 20.9233 10.983 20.7046 10.88 20.2456C10.0472 19.9552 10.2794 20.2268 9.29251 20.2456C9.47985 21.0595 9.47985 20.7556 9.29251 21.5686C10.3117 21.1205 11.0539 22.1065 12.1188 21.3688L12.0999 21.4853C12.2348 21.4667 12.3723 21.4821 12.4997 21.5301C12.6247 21.5792 12.7376 21.6548 12.8305 21.7519C12.9234 21.8489 12.994 21.9651 13.0375 22.0921C13.1308 22.3421 13.1808 22.6061 13.1854 22.8729V22.9374C12.9365 22.9157 12.6884 22.9869 12.4889 23.1373V22.8989C12.4885 22.7118 12.4557 22.5262 12.3921 22.3503C12.3727 22.2795 12.3264 22.219 12.2631 22.1818C12.1734 22.1495 12.0112 22.2015 11.7656 22.3691C11.7312 22.3945 11.6918 22.4122 11.65 22.4211C11.4798 22.6085 11.2722 22.7581 11.0406 22.8603C10.809 22.9626 10.5586 23.0151 10.3054 23.0145C10.0523 23.0152 9.80178 22.9627 9.57017 22.8605C9.33856 22.7583 9.13099 22.6086 8.96088 22.4211C8.91259 22.4337 8.86212 22.4355 8.81304 22.4265C8.76395 22.4175 8.71746 22.3979 8.67674 22.3691C8.43114 22.2015 8.26979 22.1495 8.17298 22.1818C8.11302 22.2227 8.06778 22.2817 8.04391 22.3503C7.98687 22.5277 7.95666 22.7126 7.95428 22.8989C7.94187 23.353 7.99868 23.8064 8.12278 24.2434C7.93544 24.3214 7.65757 24.2828 7.40569 24.1923C7.29704 23.7599 7.2473 23.3149 7.2578 22.8693C7.2578 22.8173 7.26406 22.7662 7.26406 22.7142C7.53297 22.6819 7.80638 22.6622 7.8252 22.3915C7.62532 22.3592 7.50966 22.2302 7.39313 22.1074C7.39313 22.1011 7.39943 22.0948 7.39943 22.0886C7.44396 21.9613 7.51548 21.8452 7.60908 21.7482C7.70268 21.6512 7.81615 21.5756 7.94171 21.5265C8.12485 21.4595 8.32542 21.4573 8.50999 21.5203C8.49154 21.4116 8.48284 21.3015 8.48399 21.1913V19.8467C8.44574 19.8384 8.40641 19.8363 8.36748 19.8405C8.23597 19.8607 8.11405 19.9215 8.01879 20.0144C7.88944 20.1515 7.79452 20.3174 7.74183 20.4984C7.66793 20.7251 7.64377 20.9651 7.67101 21.202C7.67573 21.293 7.64566 21.3824 7.58689 21.452C7.52812 21.5215 7.44508 21.5662 7.35462 21.5767C7.30881 21.5811 7.26259 21.5763 7.21863 21.5627C7.17467 21.5491 7.13384 21.527 7.09845 21.4976C7.06305 21.4682 7.03381 21.4321 7.0124 21.3914C6.99099 21.3507 6.97783 21.3061 6.97366 21.2603C6.94072 20.9319 6.97581 20.6002 7.07674 20.286C7.1633 19.9959 7.3207 19.7319 7.53476 19.5178C7.67218 19.3811 7.8372 19.2754 8.01879 19.2076C8.04192 19.2156 8.0661 19.2201 8.09052 19.2211C8.10307 19.2077 8.10933 19.1951 8.12278 19.1825C8.18106 19.1648 8.24123 19.1539 8.30205 19.1503C8.36162 19.1444 8.42148 19.142 8.48132 19.1431V19.1243C8.44887 19.1035 8.42035 19.0771 8.39707 19.0463C8.34482 19.0462 8.29277 19.0399 8.242 19.0275C8.39726 18.8863 8.57394 18.7708 8.76546 18.6851C9.38484 18.9755 10.0105 18.4332 9.81689 19.7177C10.0562 19.5776 10.3041 19.4528 10.5591 19.3439C11.2242 19.7437 11.9144 20.0861 13.0501 19.5052C13.0572 19.5115 13.0635 19.5115 13.0698 19.5178C13.1493 19.5965 13.2207 19.683 13.2831 19.7759C13.2286 19.8593 13.1688 19.9389 13.1038 20.0144C13.1917 19.983 13.2816 19.9573 13.3727 19.9373C13.4323 20.0489 13.4819 20.1656 13.5207 20.286C13.6185 20.6009 13.6536 20.9319 13.6237 21.2603C13.6137 21.3508 13.5687 21.4338 13.4984 21.4917C13.4281 21.5496 13.3379 21.5777 13.2471 21.5701C13.1564 21.5625 13.0722 21.5198 13.0124 21.4511C12.9527 21.3823 12.9221 21.293 12.9273 21.202C12.9514 20.9651 12.9273 20.7258 12.8565 20.4984C12.8017 20.3167 12.7043 20.1508 12.5723 20.0144C12.4803 19.9204 12.36 19.8593 12.2299 19.8405C12.1912 19.8363 12.1522 19.8384 12.1142 19.8467V20.8327C11.8749 20.6328 11.3398 20.7359 11.3972 20.2385L11.4088 20.2456ZM12.4845 23.1633C12.4585 23.892 12.2326 24.7185 11.9744 24.9443C11.906 25.0059 11.8647 25.0921 11.8599 25.1841C11.855 25.276 11.8869 25.3662 11.9485 25.4347C12.01 25.5031 12.0963 25.5443 12.1882 25.5492C12.2802 25.5541 12.3703 25.5222 12.4387 25.4607C12.7749 25.1702 13.0716 24.2864 13.1558 23.4537C12.9765 23.3694 12.7489 23.2789 12.4845 23.1633ZM8.31549 24.7507C8.2011 24.7712 8.09194 24.8142 7.99437 24.8773C7.89679 24.9404 7.81278 25.0223 7.74721 25.1182C7.80878 25.2473 7.89425 25.3635 7.99909 25.4607C8.06756 25.5222 8.15767 25.5541 8.24962 25.5492C8.34157 25.5443 8.4278 25.5031 8.48938 25.4347C8.55095 25.3662 8.58279 25.276 8.57792 25.1841C8.57304 25.0921 8.53184 25.0059 8.46338 24.9443C8.4029 24.8892 8.35282 24.8236 8.31549 24.7507ZM7.88884 15.7352C8.15775 15.9476 8.24738 16.212 7.9731 16.29C7.89163 16.2556 7.80341 16.24 7.71509 16.2445C7.62676 16.249 7.54062 16.2735 7.46307 16.316C7.28143 16.6233 7.18144 16.972 7.17263 17.3289C7.17263 17.7932 7.22463 18.2001 7.42451 18.5103C7.53898 18.7069 7.7165 18.8592 7.92828 18.9423C7.96682 18.7631 8.0959 18.5166 8.19718 18.297C8.12045 18.2655 8.05508 18.2114 8.00982 18.1419C7.90046 17.9626 7.86823 17.6776 7.86823 17.3289C7.86823 16.8708 8.18464 16.4056 8.51988 16.0901C8.58411 16.0267 8.65301 15.9683 8.72603 15.9153C8.78498 15.8674 8.84761 15.8243 8.91335 15.7863C8.91963 15.7863 8.92682 15.78 8.93309 15.7737C8.77762 15.6963 8.63046 15.6032 8.49388 15.4958C8.72604 15.4636 8.91964 15.4447 9.08098 15.4313C9.07735 15.3931 9.06641 15.356 9.04872 15.3219C9.00315 15.2411 8.92797 15.1811 8.83903 15.1545C8.7501 15.1279 8.65431 15.1368 8.57183 15.1794V15.1866C8.47555 15.2336 8.38527 15.292 8.30293 15.3605C8.21021 15.428 8.12191 15.5013 8.03853 15.5801L7.88346 15.7352H7.88884ZM8.72156 17.7547C8.74756 17.8192 8.76728 17.8837 8.79238 17.9483C8.72157 17.9483 8.64445 17.942 8.56019 17.9357C8.61068 17.8731 8.66457 17.8132 8.72156 17.7564V17.7547ZM12.7686 18.8975C12.7867 18.891 12.8038 18.8823 12.8197 18.8715C12.7749 18.8581 12.7363 18.8392 12.6906 18.8258C12.7182 18.848 12.7442 18.8719 12.7686 18.8975ZM12.549 15.5667C12.5182 15.588 12.4936 15.6172 12.4779 15.6513C12.4621 15.6853 12.4557 15.7229 12.4593 15.7603C12.2855 15.3542 12.0273 15.2224 11.7494 15.1606C11.7946 15.1446 11.8425 15.138 11.8903 15.1412C11.9381 15.1445 11.9847 15.1575 12.0273 15.1794L12.0336 15.1866C12.1275 15.2353 12.2161 15.2936 12.298 15.3605C12.3865 15.4235 12.4707 15.4924 12.5499 15.5667H12.549ZM12.168 16.1735C12.4245 16.4215 12.6101 16.7333 12.7058 17.077C13.1962 16.9676 13.215 16.6387 13.0994 16.2443C12.9951 16.0677 12.8715 15.9033 12.731 15.754C12.731 15.7556 12.7303 15.7572 12.7291 15.7584C12.728 15.7596 12.7263 15.7603 12.7247 15.7603C12.4405 15.7997 12.2926 15.9736 12.1698 16.1735H12.168ZM12.168 18.1455C11.7199 17.933 10.8836 17.8873 10.0831 17.9196C10.1345 17.8351 10.1757 17.7448 10.2059 17.6507C9.70304 17.7152 9.36694 17.9474 8.80582 17.9536C9.05769 17.812 9.30864 17.4508 9.46999 17.0761C9.62099 16.969 9.7925 16.8942 9.97375 16.8565C9.98434 16.7766 10.0235 16.7032 10.0839 16.6498C10.1444 16.5964 10.2221 16.5667 10.3027 16.5661C10.383 16.5657 10.4605 16.5952 10.5202 16.6489C10.5799 16.7026 10.6174 16.7766 10.6254 16.8565C11.0261 16.9408 11.3291 17.1604 11.381 17.4311C11.7179 17.5728 11.9957 17.8259 12.168 18.1482V18.1455ZM12.3168 18.504C12.2926 18.5238 12.2664 18.5412 12.2388 18.556C12.2648 18.5685 12.2908 18.5757 12.3168 18.5883V18.504ZM11.8973 18.7559C11.6965 18.859 11.4841 18.9558 11.2771 19.0463C11.5675 19.2597 11.8516 19.5043 12.0515 19.5241C12.2451 19.421 12.3034 19.2856 12.2711 19.1494H12.1232V19.1306C12.1554 19.1097 12.1836 19.0833 12.2066 19.0526H12.2388C12.1574 18.9224 12.0397 18.8189 11.9 18.755L11.8973 18.7559Z" fill="#DDB748"/>
<path d="M58.5024 15.1086C58.5212 15.096 58.5347 15.0897 58.5535 15.0763C58.6174 15.0519 58.6862 15.043 58.7542 15.0503C58.6574 15.1668 58.575 15.1605 58.5024 15.1086ZM58.8699 15.0897C58.9338 15.1283 58.9854 15.1843 59.0187 15.2511C59.0448 15.3126 59.0748 15.3725 59.1083 15.4304C59.0576 15.4626 58.9976 15.4769 58.9378 15.4711C58.878 15.4652 58.8219 15.4395 58.7784 15.3981C58.8178 15.298 58.8478 15.1945 58.8681 15.0888L58.8699 15.0897ZM59.2383 15.6446C59.3524 15.8115 59.4943 15.9577 59.6578 16.0766C59.8562 16.213 60.0836 16.3014 60.322 16.3348V14.7993C60.5542 14.8639 60.7935 14.9347 61.0193 14.9992V16.3348C61.2578 16.3014 61.4852 16.213 61.6836 16.0766C61.9664 15.8634 62.1871 15.5784 62.3227 15.2511C62.3327 15.2367 62.3414 15.2214 62.3486 15.2054C62.5382 15.2297 62.7304 15.2209 62.9169 15.1794C62.9553 15.23 62.9792 15.2901 62.986 15.3533C62.9928 15.4165 62.9823 15.4803 62.9555 15.5379C62.7684 15.9767 62.4676 16.3576 62.0842 16.6413C62.0322 16.6736 61.9874 16.7059 61.9354 16.7382C62.1839 16.9155 62.3983 17.1363 62.5683 17.3898C62.1369 17.2798 61.7168 17.1297 61.3134 16.9416C61.3196 17.0061 61.3259 17.0644 61.3331 17.1164C61.2363 17.0967 61.1394 17.0841 61.0552 17.0707C61.0489 17.0841 61.0427 17.0904 61.0427 17.0967C61.0335 17.0978 61.0243 17.0955 61.0167 17.0904V17.1487C60.8813 17.4176 60.7263 17.6327 60.6097 17.8389C60.5433 17.8561 60.4856 17.8977 60.4484 17.9554C60.3906 17.9078 60.3461 17.846 60.3193 17.7761V17.6533C60.3723 17.5464 60.4135 17.434 60.4421 17.3181C60.4014 17.3232 60.3603 17.3252 60.3193 17.3243V17.0922C60.2094 17.1175 60.1032 17.1563 60.0029 17.2078C59.9903 17.2016 59.984 17.189 59.9778 17.1827C60.1839 17.0599 60.3973 17.0931 60.6052 17.0787C60.1472 16.6404 60.0244 15.9951 59.2051 16.0211C59.1836 15.9591 59.1748 15.8934 59.1793 15.8279C59.1837 15.7625 59.2014 15.6986 59.2311 15.6401L59.2383 15.6446ZM63.4978 20.0009C63.5808 20.4652 63.6454 20.9621 63.6914 21.4915C63.6914 21.4852 63.6842 21.4853 63.6842 21.4853C63.3427 21.7111 64.0428 22.447 63.4906 22.3305C63.3938 22.4721 63.5426 22.4981 63.5946 22.4336C63.6591 22.4919 63.7102 22.5501 63.7685 22.6084C63.7685 22.6532 63.7748 22.6917 63.7748 22.7374C63.3813 22.6272 62.9555 22.6147 63.5874 22.1952C63.4181 22.2743 63.2359 22.3223 63.0496 22.3368C63.0361 22.0849 63.0174 21.8465 62.9976 21.6081C63.3786 21.1491 63.7272 20.7171 63.133 20.233C63.1198 20.2987 63.0937 20.361 63.0562 20.4165C63.0186 20.4719 62.9704 20.5192 62.9143 20.5557C62.9118 20.5402 62.9073 20.5252 62.9008 20.5109H62.8748C62.8115 20.065 62.7217 19.6232 62.6059 19.1879C62.5674 19.0516 62.5288 18.919 62.4831 18.7935C62.5414 18.7549 62.5996 18.7164 62.6507 18.6779C62.7958 19.0789 62.8862 19.4977 62.9196 19.9229C63.1009 19.9992 63.2991 20.0261 63.4942 20.0009H63.4978ZM63.7945 23.2466C63.807 23.7181 63.8133 24.2021 63.8133 24.6987C63.579 24.699 63.3454 24.7251 63.1168 24.7767V24.3509C63.3427 24.3572 63.6009 24.3697 63.7362 24.2218C63.6976 24.1941 63.6565 24.1701 63.6134 24.1501C63.7559 23.9242 63.5749 23.4662 63.7927 23.2466H63.7945ZM63.1034 23.4339C63.5811 23.1112 63.3364 22.9436 63.0711 22.7168C63.0846 22.949 63.0908 23.1946 63.1034 23.4339ZM61.0193 22.0204V22.1432C60.7872 22.0921 60.5542 22.0204 60.322 21.9693V21.4781C60.5013 21.6 60.7477 21.7165 61.0193 22.0159V22.0204ZM60.5864 25.1639C60.5738 25.1576 60.5613 25.1576 60.5541 25.1505L60.5739 25.1316C60.5802 25.1442 60.5864 25.1505 60.5864 25.1639ZM60.322 21.1169V20.1685C60.8123 20.4787 61.3743 21.0012 60.6384 21.2719C60.5262 21.2353 60.4197 21.1831 60.322 21.1169ZM60.322 18.581V18.0065C60.3677 18.0585 60.4116 18.1158 60.4573 18.1741C60.4185 18.2894 60.4074 18.4123 60.4251 18.5326L60.322 18.5784V18.581ZM58.5087 20.2133C58.4638 20.4822 58.4244 20.7691 58.3921 21.0657C58.1662 20.9044 58.0336 20.6722 58.315 20.1622C58.3859 20.181 58.4504 20.1945 58.5087 20.2133ZM58.1017 25.0859C58.039 25.1403 57.9588 25.1702 57.8758 25.1702C57.8431 25.1722 57.8102 25.1679 57.779 25.1576C57.8893 25.1253 57.9986 25.1056 58.1017 25.0859ZM57.6114 21.9487C57.6248 21.7613 57.6437 21.5812 57.6571 21.4001C57.7207 21.569 57.745 21.7502 57.7279 21.9298C57.6883 21.9294 57.6489 21.9357 57.6114 21.9487ZM59.0456 17.0501C59.2422 16.9648 59.4014 16.8114 59.4937 16.618C59.5895 16.6304 59.677 16.6788 59.7384 16.7534C59.8235 16.7239 59.9129 16.7088 60.0029 16.7086C59.4651 16.2048 58.9452 16.0695 58.4091 15.6051C58.5953 16.0193 58.8868 16.3775 59.2544 16.644C59.3064 16.6763 59.3512 16.7086 59.4032 16.7408C59.2737 16.8317 59.1536 16.9353 59.0447 17.0501H59.0456ZM66.8797 23.1103C66.8289 23.0885 66.7729 23.0819 66.7184 23.0915V21.7873C66.726 21.7718 66.7347 21.7568 66.7444 21.7425C66.7378 21.7302 66.729 21.7192 66.7184 21.7102V21.6072C66.9873 22.0652 66.9703 22.5555 66.9192 23.0655C67.0711 22.9802 67.2416 22.9337 67.4157 22.9302V24.8842C67.4154 24.9753 67.3808 25.063 67.319 25.1299C67.2803 25.1473 67.2436 25.1689 67.2096 25.1944C67.1253 25.2007 67.0411 25.2132 66.9577 25.2204C66.9261 25.2089 66.896 25.1936 66.8681 25.1747C66.8295 25.1361 66.7973 25.0976 66.7587 25.0519C66.732 25.0001 66.7184 24.9425 66.7193 24.8842V23.6966C66.8359 23.5238 66.8925 23.3176 66.8806 23.1095L66.8797 23.1103ZM67.4175 22.3556V22.3422C67.394 22.3183 67.3724 22.2924 67.353 22.2651C67.3385 22.2868 67.3277 22.3107 67.3208 22.3359L67.4175 22.3556ZM66.7901 15.6114C67.0222 15.6374 67.2607 15.6625 67.5072 15.6948C67.4487 15.8053 67.4179 15.9283 67.4175 16.0533V16.4657C67.1917 16.4916 66.9595 16.5114 66.7202 16.5302V16.0533C66.7198 15.901 66.744 15.7497 66.7919 15.6051L66.7901 15.6114ZM68.9261 15.9144L69.0229 15.9341C68.9907 16.4719 69.2919 16.8054 69.2426 17.0761C69.1646 17.0761 69.0812 17.0761 69.0032 17.0823C68.9933 17.0754 68.9845 17.067 68.9772 17.0572V17.0895H68.9387V16.0569C68.9407 16.0091 68.9365 15.9611 68.9261 15.9144ZM69.0158 18.7541C69.1832 18.8022 69.3471 18.8621 69.5061 18.9333C69.1959 18.5649 69.3447 18.3776 69.6351 18.2297V19.0749C69.4113 19.0768 69.1884 19.1026 68.9701 19.152C68.9618 19.018 68.9772 18.8836 69.0158 18.755V18.7541Z" fill="#DDB748"/>
<path d="M100.356 18.581L100.207 18.85C100.14 18.7543 100.113 18.6365 100.13 18.521C100.201 18.5398 100.278 18.5658 100.356 18.5855V18.581ZM100.795 19.9686C100.821 20.0197 100.853 20.0654 100.879 20.1165C100.808 20.0978 100.739 20.072 100.673 20.0394C100.673 20.0197 100.679 20.0009 100.679 19.9811C100.718 19.9801 100.756 19.9759 100.795 19.9686ZM95.2963 20.8784C95.3088 20.8336 95.316 20.7888 95.3286 20.743C95.3608 20.743 95.3994 20.7494 95.4316 20.7494C95.3868 20.7942 95.342 20.8336 95.2963 20.8784ZM94.6384 20.6588V21.0917C94.3806 21.0128 94.1602 20.843 94.0181 20.614C94.2257 20.6135 94.433 20.6285 94.6384 20.6588ZM92.6377 22.7052C92.5828 22.6707 92.5386 22.6215 92.5101 22.5632C92.4816 22.5049 92.4699 22.4399 92.4763 22.3753L92.9245 22.3951C92.8183 22.487 92.7232 22.5911 92.6413 22.7052H92.6377ZM100.827 21.834H100.679V22.0204C100.653 22.0263 100.627 22.0287 100.601 22.0275C100.588 21.9339 100.548 21.8461 100.485 21.7757C100.498 21.6773 100.504 21.5782 100.504 21.479V21.3105C100.788 21.2594 100.834 21.4898 100.827 21.834ZM99.0341 22.5116C99.0278 22.5304 99.0278 22.5564 99.0207 22.5761C98.9754 22.5496 98.9322 22.5197 98.8916 22.4865C98.9386 22.4977 98.9862 22.5064 99.0341 22.5125V22.5116ZM98.3045 21.124C98.2848 21.047 98.2546 20.9732 98.2148 20.9044L98.6092 20.2133C98.6829 20.2759 98.7458 20.3501 98.7957 20.4329C98.5052 20.6328 98.2283 20.8336 98.6926 21.072C98.628 21.3822 98.473 21.2979 98.3054 21.124H98.3045ZM97.8724 20.3881C97.8378 20.3423 97.8055 20.2947 97.7756 20.2456C97.7752 20.2422 97.7756 20.2387 97.7767 20.2355C97.7778 20.2322 97.7795 20.2293 97.7819 20.2268L97.8724 20.3881Z" fill="#DDB748"/>
<path fill-rule="evenodd" clip-rule="evenodd" d="M83.336 16.4057V16.8772L83.2589 16.9157C83.2696 16.9184 83.2804 16.9205 83.2912 16.922C83.5268 16.7304 83.8099 16.6065 84.1105 16.5634C83.9751 16.1439 83.6013 15.7764 83.4785 16.1574C83.9689 16.4084 83.6265 16.351 83.336 16.4084V16.4057ZM84.8598 15.2055L84.7953 14.941C84.7308 14.9025 84.6725 14.8639 84.616 14.8245C84.3471 14.8057 84.0549 14.8317 83.8219 14.7474C83.9644 15.0961 83.9061 15.348 83.7448 15.5479C83.9144 15.5483 84.0834 15.5287 84.2485 15.4896C84.2579 15.4022 84.275 15.3158 84.2996 15.2315C84.4784 15.2142 84.6581 15.21 84.8374 15.2189C84.8437 15.2117 84.85 15.2055 84.8571 15.2055H84.8598ZM77.5993 25.3513C77.5734 25.3253 77.5536 25.2993 77.5214 25.2671C77.3537 25.3442 77.0185 24.9184 76.6178 24.5374C76.5443 24.822 76.4337 25.0956 76.2889 25.3513H77.5993ZM74.8816 23.2216C74.6494 23.2019 74.411 23.1893 74.1788 23.1759V24.9829C74.1806 25.0415 74.1959 25.0989 74.2237 25.1506C74.3267 25.2088 74.4235 25.2734 74.5204 25.3298H74.5266C74.5731 25.3305 74.6192 25.3221 74.6624 25.3049C74.7056 25.2878 74.7449 25.2623 74.7782 25.2299C74.8115 25.1975 74.8381 25.1588 74.8565 25.1162C74.8748 25.0735 74.8846 25.0276 74.8852 24.9811V23.2198L74.8816 23.2216ZM81.174 16.6316C81.088 16.6562 81.01 16.7032 80.9481 16.7678C80.7357 15.8383 80.3807 15.0118 80.0383 14.1729H81.4582L81.9422 16.1287H81.174V16.6316ZM82.0847 17.7968L82.0067 17.9331C81.7871 17.7717 81.6069 17.5844 81.6715 17.2232C81.8448 17.386 81.9852 17.5808 82.0847 17.7968ZM80.8002 20.7467C80.7868 20.753 80.7805 20.7593 80.768 20.7655L80.7617 20.7593C80.7742 20.753 80.7868 20.753 80.8002 20.7467ZM74.2174 20.0951C74.2265 20.148 74.2415 20.1997 74.2622 20.2493C74.2362 20.2564 74.2039 20.2627 74.1788 20.269V20.0816C74.1914 20.0879 74.2039 20.0879 74.2174 20.0951ZM74.3967 20.7727C74.5106 20.5654 74.6627 20.3814 74.8448 20.2304H74.8834V20.3595C74.7274 20.6141 74.5661 20.7369 74.3975 20.7691L74.3967 20.7727Z" fill="#DDB748"/>
<path fill-rule="evenodd" clip-rule="evenodd" d="M22.6642 32.8501H23.2971C23.3893 32.8508 23.4776 32.8878 23.5428 32.953C23.6081 33.0182 23.6451 33.1065 23.6458 33.1987C23.6483 33.2337 23.6437 33.2688 23.6323 33.3019C23.313 33.2014 22.981 33.1471 22.6463 33.1405C22.6526 33.0437 22.6651 32.9469 22.6651 32.8501H22.6642ZM23.6458 34.4438C23.6469 34.4721 23.6445 34.5004 23.6386 34.5281L23.5418 34.4895C23.5732 34.4679 23.6085 34.4523 23.6458 34.4438ZM22.8641 34.7925H22.4706V35.8385C22.34 35.3767 22.3158 34.8913 22.3998 34.4187C22.5791 34.5603 22.7162 34.6634 22.8641 34.7925ZM25.9619 33.863H26.2013C26.133 34.0908 26.1111 34.3301 26.1367 34.5666C25.711 34.5281 25.84 34.2314 25.9619 33.863ZM26.1753 34.8956C25.8848 35.0569 25.6374 35.186 25.4268 35.2963H25.4071C25.4071 35.2979 25.4078 35.2995 25.4089 35.3007C25.4101 35.3019 25.4117 35.3025 25.4134 35.3025C25.3811 35.3151 25.356 35.3285 25.33 35.3411V34.7342C25.6054 34.8174 25.8886 34.8715 26.1753 34.8956Z" fill="#DDB748"/>
<path d="M60.1608 33.6892H61.0195C61.0552 33.8098 61.1026 33.9266 61.1612 34.0379H60.1994C60.1939 33.921 60.181 33.8045 60.1608 33.6892ZM61.8585 33.6892H61.9096C61.9379 33.6892 61.9658 33.6963 61.9906 33.7097C62.0155 33.7232 62.0367 33.7426 62.0521 33.7663C62.0324 33.786 62.0199 33.8058 62.0001 33.8246C61.9553 33.7798 61.9105 33.7349 61.8585 33.6892ZM59.8122 34.6896H61.0061C60.9189 34.7535 60.8262 34.8095 60.7291 34.8571C60.7062 34.8114 60.6867 34.7641 60.6708 34.7156C60.445 34.7093 60.402 34.8124 60.4324 34.9603C60.1994 35.006 59.9843 34.9352 59.8122 34.6914V34.6896ZM59.3353 40.4334C59.4061 40.498 59.4895 40.5751 59.5863 40.6593C59.7091 40.7624 59.7799 40.8206 59.8059 40.8466C59.8372 40.8766 59.8635 40.9114 59.8839 40.9497H60.6126C60.3679 41.129 60.1994 41.4077 59.9932 41.6471H59.5935C59.3998 41.2661 59.277 40.8404 59.3353 40.4334ZM61.1486 40.9497H61.1612C61.2231 40.9492 61.2841 40.9653 61.3377 40.9964C61.3913 41.0274 61.4356 41.0724 61.4659 41.1264C61.4962 41.1804 61.5114 41.2416 61.51 41.3036C61.5086 41.3655 61.4906 41.4259 61.4579 41.4785C61.3729 41.2923 61.2692 41.1151 61.1486 40.9497ZM54.6626 35.6962H55.1403C55.1329 35.7835 55.1439 35.8715 55.1726 35.9543C54.9974 35.8789 54.8271 35.7927 54.6626 35.6962ZM55.9981 35.1216V35.0382H54.953C55.2133 34.9371 55.4674 34.8207 55.714 34.6896H55.9981V34.625C56.0618 34.6599 56.1219 34.701 56.1774 34.7478C56.3065 34.9674 56.19 35.057 55.9981 35.1216ZM52.9326 33.9088V33.8631C52.9335 33.8311 52.9429 33.7999 52.96 33.7728C52.977 33.7457 53.001 33.7237 53.0294 33.7089C53.0357 33.7252 53.0444 33.7403 53.0554 33.7538C53.0106 33.8058 52.9712 33.8568 52.9326 33.9088ZM58.7347 41.4382C58.5026 41.38 58.5931 41.1998 58.7284 40.9479H58.0571C58.0831 41.1415 58.0768 41.2832 58.0571 41.2966C58.0249 41.1623 57.9531 41.0408 57.8509 40.9479H56.708C57.4699 41.1478 58.4058 41.6381 58.7347 41.4382ZM58.7796 40.8574C58.9158 40.6055 59.0771 40.2963 59.0377 39.9736C58.9992 39.9413 58.9606 39.9028 58.9221 39.8633C58.7213 39.8323 58.5184 39.8174 58.3152 39.8185C58.3142 39.8423 58.3163 39.8661 58.3215 39.8893C58.328 39.9082 58.328 39.9287 58.3215 39.9476C58.36 40.3671 58.5089 40.5993 58.7796 40.8574ZM56.6283 40.29C56.3493 40.4615 56.0968 40.6729 55.8789 40.9175C55.9922 40.8706 56.1155 40.8527 56.2375 40.8655C56.4095 40.7071 56.5422 40.5106 56.6247 40.2918L56.6283 40.29Z" fill="#DDB748"/>
<path d="M68.0539 39.3811L68.0727 39.3623C68.0799 39.3623 68.0799 39.3685 68.0799 39.3748C68.0799 39.3811 68.0727 39.3882 68.0665 39.3945C68.0602 39.4008 68.0602 39.3882 68.0539 39.3811ZM69.7642 38.1871C70.0107 38.0896 70.2654 38.014 70.5252 37.9613C70.5637 37.9672 70.6027 37.9696 70.6417 37.9684C70.5521 38.8397 70.0869 38.6461 69.6611 38.4847C69.7169 38.3943 69.7521 38.2927 69.7642 38.1871ZM73.7135 35.49C73.6364 35.3869 73.5979 35.2381 73.5979 35.0185C73.701 35.0768 73.7915 35.1216 73.8668 35.161L74.0927 35.49H73.7135ZM70.7385 38.6389C70.8697 38.5087 71.0283 38.4094 71.2028 38.3485C71.2745 38.4381 71.3453 38.5232 71.4224 38.6066C71.3579 38.6003 71.2933 38.6004 71.2288 38.6004C71.0646 38.6007 70.9007 38.6136 70.7385 38.6389ZM69.5508 31.9404C69.5667 32.0038 69.5689 32.0698 69.5571 32.134C69.4737 32.3465 69.6154 32.3985 69.7704 32.4433C69.5916 32.4814 69.4253 32.5637 69.2864 32.6826C69.1448 32.5661 69.0345 32.4244 69.0605 32.2344C69.0506 32.2329 69.0415 32.2282 69.0345 32.221C69.1573 32.1439 69.2864 32.0731 69.4092 32.0085C69.455 31.9841 69.5023 31.9625 69.5508 31.944V31.9404ZM69.1125 32.9147C68.9637 32.7659 68.8221 32.6118 68.6733 32.4755C68.5165 32.5957 68.3668 32.725 68.2251 32.8627C68.3186 32.9287 68.4277 32.9689 68.5415 32.9793C68.0933 33.3378 67.9347 33.3378 68.1346 33.8308C68.1861 33.8255 68.2379 33.8234 68.2896 33.8246C68.5151 33.5438 68.7706 33.2886 69.0515 33.0635C69.0651 33.0118 69.0847 32.9619 69.1098 32.9147H69.1125ZM67.8343 40.1107V40.143C67.8083 40.117 67.7895 40.0847 67.7698 40.0659C67.7895 40.0785 67.8146 40.0982 67.8343 40.1107ZM68.8284 35.49C68.9377 35.4003 69.048 35.2964 69.1699 35.2121C69.2595 35.3018 69.3492 35.3914 69.4388 35.49H68.8284ZM70.674 35.49C70.6736 35.4864 70.6739 35.4829 70.675 35.4795C70.6761 35.4761 70.6779 35.4729 70.6803 35.4703C70.695 35.478 70.7103 35.4846 70.726 35.49H70.674Z" fill="#DDB748"/>
<path fill-rule="evenodd" clip-rule="evenodd" d="M85.0077 34.4252L84.9691 34.3866C85.0139 34.3732 85.0659 34.3606 85.1179 34.3472C85.0919 34.3732 85.0597 34.3992 85.0337 34.4252H86.7439C86.6516 34.5679 86.5777 34.7218 86.5243 34.8832C86.2599 34.9415 85.9434 34.9997 85.705 35.1216H84.4591C84.6267 34.9092 84.8078 34.6188 84.685 34.444L84.814 34.4252H85.0077ZM84.1041 37.7023C84.33 37.5481 84.4627 37.3437 84.2834 36.9995H84.5989C85.3545 37.1089 86.0447 37.2639 86.3226 37.7023H84.1041Z" fill="#DDB748"/>
<path d="M47.74 35.419C47.7725 35.3719 47.8158 35.3332 47.8663 35.3062C47.9169 35.2792 47.9731 35.2648 48.0304 35.264C48.1227 35.2647 48.2109 35.3017 48.2762 35.3669C48.3414 35.4322 48.3784 35.5204 48.3791 35.6127V35.8816C48.1395 35.7671 47.9229 35.6097 47.74 35.4173V35.419ZM48.3791 36.3737V37.2701C48.1344 37.167 47.9013 37.0567 47.6826 36.9536V35.9345C47.8805 36.129 48.1181 36.2785 48.3791 36.3728V36.3737ZM48.3791 38.7168V39.2008C48.2428 39.2395 48.1002 39.2505 47.9596 39.2331C47.875 39.1109 47.7824 38.9944 47.6826 38.8844V38.3806C47.8053 38.3806 47.928 38.3743 48.0501 38.3618C47.9659 38.6782 48.1532 38.7105 48.3791 38.7203V38.7168ZM45.8173 41.0984C46.0234 40.8295 46.1337 40.5561 46.0692 40.2074C46.1443 40.1261 46.2314 40.0565 46.3273 40.0012V38.8584C46.3273 38.697 46.3201 38.5232 46.3139 38.3484C46.0817 38.3421 45.8496 38.3358 45.6103 38.3358C45.6237 38.5034 45.63 38.6845 45.63 38.8647V40.401H45.0751C45.0701 40.3878 45.061 40.3765 45.0491 40.3688C44.9908 40.3042 44.9326 40.2334 44.8752 40.1626C44.765 40.272 44.6556 40.3625 44.5391 40.2979C44.6816 40.1232 44.5454 40.1232 44.384 40.1366C44.4023 40.4237 44.4702 40.7055 44.5848 40.9693C44.3392 41.0142 44.1196 41.0527 43.926 41.0984H45.8173ZM44.1904 38.499C44.2493 38.8749 44.3625 39.2402 44.5265 39.5836C44.3117 39.49 44.126 39.3405 43.9887 39.1506C43.8794 39.2349 43.9699 39.4087 44.073 39.5701C43.975 39.5641 43.8768 39.5751 43.7826 39.6024C43.6667 39.3238 43.5802 39.0339 43.5244 38.7374C43.7383 38.6383 43.9606 38.5586 44.1886 38.499H44.1904ZM37.8012 41.0984C37.7367 41.013 37.6679 40.931 37.595 40.8528C37.9535 40.2845 38.5433 41.0527 38.3246 40.315C38.46 40.4252 38.5935 40.522 38.7244 40.341C38.6401 40.2639 38.5568 40.1994 38.4725 40.1348C38.3049 40.1671 38.1436 40.1859 37.9759 40.2056C38.0656 40.2702 38.1552 40.3347 38.2529 40.4055H36.4271C35.9843 40.4828 35.5662 40.6641 35.2071 40.9344C35.1991 40.9614 35.1882 40.9875 35.1748 41.0124C35.1659 41.0016 35.155 40.9928 35.1426 40.9864C35.0977 41.0249 35.0583 41.0634 35.0198 41.1029L37.8012 41.0984ZM38.7872 40.3885C38.8942 40.5743 39.0535 40.7245 39.2452 40.8205C39.1941 40.6789 39.1421 40.5364 39.0901 40.401H38.7997L38.7872 40.3885ZM46.2736 34.8705C46.1773 34.8403 46.0776 34.8229 45.9769 34.8185C46.1445 34.2959 46.1705 34.0566 46.1561 33.7537C46.3214 33.8475 46.4809 33.9511 46.6339 34.0638C46.6782 34.0966 46.7142 34.1394 46.739 34.1887C46.7638 34.2379 46.7767 34.2923 46.7767 34.3475C46.7767 34.4026 46.7638 34.457 46.739 34.5063C46.7142 34.5555 46.6782 34.5983 46.6339 34.6312C46.5183 34.7154 46.3955 34.7925 46.2753 34.8705H46.2736ZM43.2017 33.1531C43.1435 33.1988 43.0852 33.2499 43.0225 33.2956C43.2161 33.3404 43.4097 33.3852 43.5907 33.4372C43.7198 33.4758 43.8596 33.5152 43.9905 33.56C43.742 33.3953 43.476 33.2588 43.1972 33.1531H43.2017ZM40.9555 35.6835C40.9002 35.7458 40.8347 35.7983 40.7618 35.8386C40.7378 35.789 40.7099 35.7413 40.6785 35.6961C40.5037 35.7023 40.3199 35.7023 40.1407 35.7023C39.9408 35.7023 39.7409 35.7023 39.5473 35.6898C39.4505 35.7157 39.368 35.7346 39.2784 35.7543C39.4854 35.9739 39.8019 36.077 40.1371 36.2706C39.7696 36.4445 39.1367 36.3289 38.7172 36.0447C38.6652 36.1279 38.6384 36.2245 38.6402 36.3226C38.6653 36.3289 38.6912 36.3289 38.7172 36.3351C38.7224 36.285 38.7311 36.2353 38.7432 36.1863C38.839 36.2567 38.9428 36.3154 39.0525 36.3611C39.4074 36.3874 39.769 36.4003 40.1371 36.3997C40.5691 36.3997 40.9958 36.3871 41.4081 36.3477C41.4475 36.1093 41.4278 35.8995 41.2216 35.8314C41.8921 36.2186 42.6738 35.7543 43.7709 35.9282C44.0613 35.8448 44.3383 35.7606 44.6099 35.6638C44.341 35.4961 43.7512 35.567 43.4446 35.4316C43.4522 35.3814 43.4629 35.3316 43.4769 35.2828C42.6515 35.5012 41.8061 35.6355 40.9537 35.6835H40.9555ZM35.5594 39.5844C35.5664 39.4682 35.5643 39.3516 35.5531 39.2357C35.3846 39.2295 35.2044 39.2295 35.0233 39.2295C34.9994 39.2278 34.9753 39.231 34.9527 39.239C34.9301 39.247 34.9093 39.2595 34.8917 39.2759C34.8742 39.2922 34.8602 39.312 34.8506 39.334C34.841 39.3561 34.8361 39.3798 34.8361 39.4038C34.8361 39.4278 34.841 39.4516 34.8506 39.4736C34.8602 39.4956 34.8742 39.5154 34.8917 39.5317C34.9093 39.5481 34.9301 39.5607 34.9527 39.5687C34.9753 39.5767 34.9994 39.5799 35.0233 39.5782C35.2107 39.5782 35.3819 39.5782 35.5612 39.5844H35.5594ZM35.6884 39.2421C35.9403 39.4554 36.1787 39.4742 36.5212 39.3066C36.2452 39.2685 35.967 39.2482 35.6884 39.2456V39.2421Z" fill="#DDB748"/>
<path fill-rule="evenodd" clip-rule="evenodd" d="M9.40182 36.658L7.6593 36.2384V37.678L9.10512 37.3356L9.11138 37.3293C9.03083 37.2882 8.95508 37.2383 8.88549 37.1805C8.95003 36.9869 9.15442 36.7933 9.40182 36.658ZM10.7464 37.3419L10.9525 37.297C10.888 37.297 10.8235 37.3096 10.7589 37.3159C10.7524 37.3232 10.7481 37.3322 10.7464 37.3419ZM11.5073 37.3939C11.333 37.8214 11.237 38.2768 11.2241 38.7384V39.4053C11.4177 39.5406 11.6364 39.6509 11.5271 40.0892C11.4303 40.0632 11.3272 40.0381 11.2241 40.0121V41.4768C11.6239 41.6318 11.398 41.8837 11.2241 42.1284V42.6322C11.3203 42.6793 11.4221 42.714 11.5271 42.7352C11.4329 42.7836 11.3333 42.8206 11.2304 42.8455H12.4951V38.7402C12.4812 38.3003 12.3917 37.8661 12.2307 37.4566C12.1205 37.4754 12.0174 37.4951 11.908 37.5077C11.8677 37.4744 11.8219 37.4484 11.7727 37.4306C11.7734 37.5256 11.7797 37.6205 11.7915 37.7148C11.731 37.583 11.6319 37.4726 11.5073 37.3983V37.3939ZM12.7622 37.297L13.7698 37.5355V37.1357L16.0537 37.6735V36.234L13.8468 36.7628C13.5034 36.9743 13.1402 37.1517 12.7622 37.2926V37.297ZM13.5627 31.7531C13.389 31.3353 13.0799 30.9881 12.6852 30.7671C12.4316 30.6223 12.1444 30.5469 11.8524 30.5484C11.6311 30.5506 11.4122 30.5943 11.2071 30.6774C11.104 31.036 10.8485 31.3802 10.3493 31.3873C10.3295 31.4196 10.3036 31.4519 10.2847 31.4842C10.4789 31.6138 10.6866 31.722 10.9041 31.8069C11.0182 31.63 11.1715 31.4818 11.3523 31.3739C11.5051 31.2917 11.6754 31.2474 11.8489 31.2448C12.0228 31.2457 12.1939 31.2901 12.3464 31.3739C12.581 31.5077 12.7688 31.7105 12.8842 31.9547C13.1405 31.7916 13.3261 31.6966 13.5645 31.7531H13.5627Z" fill="#DDB748"/>
<path d="M4.69059 40.9882H3.33529C3.33807 40.6746 3.24828 40.3671 3.07715 40.1043C2.94297 40.1259 2.81117 40.1605 2.68363 40.2075V35.593H1.74158C1.65111 35.5869 1.5659 35.5482 1.50178 35.4841C1.43766 35.42 1.39897 35.3348 1.39289 35.2443V31.2887H0.283207V42.0987H1.24408C1.11619 42.3266 0.925899 42.5132 0.69554 42.6366C0.778381 42.7123 0.877835 42.7676 0.985937 42.7979H0.579906C0.211503 42.6886 -0.0977702 42.5335 -0.414185 42.469V40.7067C-0.214297 40.6296 -0.0654925 40.5203 -0.0914869 40.3482C-0.19731 40.3729 -0.305513 40.3862 -0.414185 40.3876V30.94C-0.408098 30.8495 -0.36941 30.7643 -0.305291 30.7002C-0.241172 30.6361 -0.155962 30.5974 -0.065489 30.5913H1.74158C1.83336 30.5964 1.92018 30.6345 1.98607 30.6986C2.05196 30.7627 2.09248 30.8484 2.10013 30.94V33.8308C2.07413 33.8568 2.05441 33.8828 2.02931 33.9088C1.8097 33.9088 1.59637 33.8702 1.44847 33.7151C1.48074 34.0441 1.57752 34.2529 1.71287 34.373C1.71287 34.3793 1.71917 34.3865 1.71917 34.3928C1.70749 34.4191 1.70078 34.4473 1.69943 34.4761C1.49955 34.7925 1.80343 34.745 1.91906 34.5801C1.97674 34.6003 2.03724 34.6111 2.09833 34.6124V34.8956H3.03412C3.12453 34.9019 3.20963 34.9407 3.27371 35.0047C3.33779 35.0688 3.37655 35.1539 3.38282 35.2443V40.2917H5.04734C5.13774 40.2976 5.22292 40.3361 5.28706 40.4C5.35119 40.464 5.38993 40.5491 5.39604 40.6395V41.7949C5.21737 41.8403 5.04578 41.91 4.88601 42.002C4.84812 41.9346 4.80269 41.8717 4.75064 41.8146C4.75165 41.9046 4.74507 41.9946 4.73095 42.0835C4.7184 42.0835 4.70583 42.0773 4.69239 42.0773V41.638C4.82774 41.6192 4.98282 41.6775 4.97027 41.7994C5.4543 41.5672 4.82774 41.5735 4.69239 41.3288V41.1289C4.71211 41.0966 4.72465 41.0643 4.75064 41.0249C4.7335 41.0411 4.71382 41.0545 4.69239 41.0643V40.9864L4.69059 40.9882ZM2.8647 42.0987C2.55634 42.4394 2.15452 42.6816 1.70933 42.7952H3.73598C4.03895 42.7119 4.29707 42.6921 4.47097 42.5693C4.168 42.382 3.62572 42.382 3.27703 42.2279C3.2824 42.1842 3.2911 42.141 3.30303 42.0987H2.8647ZM5.30999 42.6536C5.21096 42.6134 5.11608 42.5635 5.02673 42.5048L5.04555 42.7952C5.09745 42.7931 5.14821 42.7793 5.19401 42.7547C5.2398 42.7302 5.27946 42.6957 5.30999 42.6536Z" fill="#DDB748"/>
<path d="M66.8468 48.843C66.7759 48.8878 66.7177 48.9264 66.6729 48.9587C66.7148 49.0025 66.7496 49.0527 66.7759 49.1075L67.0663 48.9909C67.0018 48.9299 66.9276 48.8799 66.8468 48.843ZM65.634 52.6077V52.666H65.4879C65.3636 52.7579 65.262 52.8773 65.1912 53.0147H65.6393V53.6663H65.271C65.2762 53.6778 65.2828 53.6887 65.2906 53.6986C65.3166 53.7309 65.3427 53.7568 65.3678 53.7882C65.7362 53.7945 66.0911 53.8008 66.4201 53.8268C66.4235 53.7695 66.4414 53.7139 66.4721 53.6654H66.3358V53.3168C66.2847 53.3302 66.2139 53.2916 66.0974 53.1554C65.9423 52.9295 66.4649 53.0075 66.0974 52.7171C66.0947 52.7195 66.0916 52.7214 66.0882 52.7224C66.0848 52.7235 66.0812 52.7238 66.0777 52.7234C66.0679 52.7115 66.0594 52.6985 66.0525 52.6848C66.0298 52.666 66.0058 52.6486 65.9809 52.6328C65.9875 52.6168 65.9962 52.6017 66.0069 52.588C65.9943 52.5683 65.988 52.5494 65.9746 52.5297C65.8654 52.5653 65.7532 52.5911 65.6393 52.6068L65.634 52.6077ZM68.0604 53.6403C68.0269 53.8429 68.016 54.0485 68.0281 54.2534C68.0014 54.2361 67.9732 54.2211 67.9439 54.2086V54.0159H67.4957C67.3033 53.9563 67.1068 53.9111 66.9077 53.8806C66.9365 53.8056 66.9735 53.7341 67.0179 53.6672H67.9403V53.5839L68.0568 53.6412L68.0604 53.6403ZM66.4792 53.0129C66.4938 52.9792 66.5112 52.9468 66.5312 52.9161C66.5698 52.9483 66.6146 52.9806 66.6603 53.0129H66.4792Z" fill="#DDB748"/>
<path fill-rule="evenodd" clip-rule="evenodd" d="M2.70327 47.7413C2.42889 47.7409 2.16077 47.8233 1.93388 47.9776C1.70699 48.1319 1.53187 48.351 1.43134 48.6063C1.54455 48.4933 1.63843 48.3625 1.70922 48.219C2.14754 48.5417 2.00588 48.7936 1.80599 49.0392C2.03187 49.1163 2.18696 49.2328 2.15469 49.5035C2.76062 49.465 2.34115 49.0553 2.48995 48.574C2.80009 49.0455 2.88341 48.8062 3.5745 48.9325C3.34862 49.4166 2.70324 49.2911 2.3196 49.5268C2.3447 49.7912 2.79649 49.759 2.52579 50.2233C2.41644 50.1785 2.29988 50.1265 2.18335 50.0691C2.15158 50.1517 2.10581 50.2281 2.04803 50.295C2.25062 50.4039 2.47685 50.4615 2.70686 50.4626C2.92543 50.4621 3.14065 50.4089 3.33431 50.3075C3.24433 50.2536 3.15994 50.1909 3.08243 50.1202C4.45116 50.1722 3.63727 48.8429 3.08243 48.0102C3.31445 48.1102 3.55139 48.1985 3.79233 48.2746C3.66444 48.1085 3.50038 47.9737 3.3126 47.8805C3.12482 47.7874 2.91828 47.7382 2.70865 47.7368L2.70327 47.7413ZM1.56041 49.8459C1.70921 49.897 1.86428 49.9876 1.98618 50.2654C1.81727 50.1559 1.6724 50.0132 1.56041 49.8459ZM0.99301 59.3133C0.897508 59.2878 0.800536 59.2684 0.702613 59.255C0.711653 59.4832 0.705045 59.7117 0.682874 59.9389C0.748044 59.9603 0.817968 59.9626 0.884379 59.9454C0.95079 59.9282 1.01092 59.8924 1.05757 59.8421C1.08834 59.8075 1.11193 59.7672 1.12698 59.7234C1.14203 59.6796 1.14824 59.6333 1.14523 59.5871C1.14223 59.5409 1.13006 59.4958 1.10948 59.4543C1.08889 59.4128 1.06026 59.3758 1.02527 59.3455L0.99301 59.3133ZM0.186288 59.255C0.191889 59.2359 0.196096 59.2164 0.198849 59.1967C0.185686 59.1977 0.17246 59.1956 0.16029 59.1905C0.167306 59.2126 0.175999 59.2342 0.186288 59.255ZM-0.41429 51.5302C-0.343477 50.9296 0.0338965 50.3649 0.444428 49.9876C0.534064 49.9033 0.618355 49.8262 0.702613 49.7617C0.768168 49.7119 0.837032 49.6667 0.908758 49.6263C1.00919 49.6457 1.1083 49.6715 1.20546 49.7034C1.29257 49.7543 1.38601 49.7934 1.48334 49.8199C1.49692 49.8919 1.48809 49.9663 1.45813 50.0331C1.42816 50.0999 1.37848 50.156 1.31571 50.1937C1.25744 50.226 1.19292 50.2717 1.12838 50.3165C1.05506 50.3695 0.985842 50.4279 0.921319 50.4913C0.59863 50.8006 0.293867 51.2335 0.269665 51.6781C0.0539203 51.6154 -0.157254 51.5378 -0.362294 51.4459C-0.369465 51.4916 -0.382021 51.5167 -0.41429 51.5302ZM1.25115 52.0528C1.36626 51.9645 1.49179 51.8907 1.62492 51.8331C1.67691 51.5642 1.97362 51.3366 2.37339 51.2586C2.38164 51.177 2.42003 51.1014 2.48102 51.0465C2.54201 50.9917 2.62124 50.9615 2.70327 50.9619C2.78447 50.9619 2.86272 50.9923 2.9225 51.0473C2.98228 51.1022 3.01922 51.1777 3.02597 51.2586C3.42574 51.3366 3.7287 51.5624 3.78069 51.8331C4.22887 52.033 4.5426 52.3629 4.63941 52.7501C4.7107 52.744 4.77978 52.7223 4.84175 52.6865C4.90371 52.6507 4.95704 52.6018 4.99795 52.5431C5.10731 52.3692 5.13328 52.0788 5.13328 51.7301C5.13328 51.3043 4.86438 50.8785 4.55244 50.5648C4.6562 50.5582 4.75949 50.5453 4.8617 50.5262C4.91369 50.5648 5.00423 50.5325 5.13061 50.4868C5.2077 50.4805 5.28565 50.468 5.36901 50.4546C5.63344 50.8292 5.82708 51.2747 5.82708 51.7327C5.83295 51.9931 5.80703 52.2531 5.74997 52.5072C5.73742 52.4947 5.7177 52.4875 5.70515 52.475C5.23366 52.6883 4.67254 53.7397 4.33641 52.8685C3.95546 53.2817 3.75559 53.5076 3.57542 53.6492C3.12724 53.3722 2.69699 53.5335 2.36175 53.8177C2.58541 53.8753 2.8148 53.9078 3.04566 53.9145C2.87177 53.9656 2.63963 54.0301 2.3035 54.127C2.33895 54.2841 2.31835 54.4486 2.24524 54.5922C2.1375 54.6091 2.03177 54.637 1.92972 54.6755C1.96281 54.5856 1.96024 54.4866 1.92254 54.3985C1.75243 54.4313 1.57826 54.4376 1.40622 54.4174C1.50303 54.2435 1.53531 54.0436 1.32914 53.7271C-0.0969613 53.9145 0.180029 54.9336 -0.290559 55.5853C-0.334248 55.5534 -0.385587 55.5337 -0.439368 55.528C-0.490857 55.4347 -0.556145 55.3498 -0.632996 55.2761C-0.620422 55.0807 -0.583384 54.8876 -0.522745 54.7015C-0.439754 54.4233 -0.291619 54.1689 -0.0906728 53.9593C0.000116706 53.9967 0.0884106 54.0398 0.173727 54.0884C0.173418 53.978 0.162626 53.8678 0.14147 53.7594C0.309714 53.648 0.502656 53.5794 0.703488 53.5596C0.763034 53.5524 0.823214 53.5524 0.88276 53.5596V53.5398C0.852171 53.5173 0.824192 53.4915 0.799383 53.4627C0.315349 53.4233 0.0115103 53.2234 -0.182103 52.9204C-0.284006 52.7476 -0.351856 52.5568 -0.381989 52.3584C-0.113082 52.4104 0.155822 52.4687 0.398735 52.5269C0.398735 52.5332 0.405001 52.5395 0.412172 52.5458C0.451806 52.6033 0.503406 52.6516 0.563432 52.6873C0.623459 52.723 0.690485 52.7454 0.759948 52.7528C0.767119 52.7331 0.773413 52.7134 0.779687 52.7008C1.33453 52.5718 1.42507 52.9393 1.76568 52.5592C1.72624 52.7716 2.16544 52.8425 2.24253 52.6488C1.81048 52.552 1.51378 52.2903 1.24936 52.0554L1.25115 52.0528ZM5.14225 53.6922C4.65822 54.1951 4.03256 54.4209 3.432 54.6863C3.59216 54.738 3.74334 54.8142 3.88018 54.9121C3.86887 54.8538 3.87661 54.7934 3.90228 54.7398C3.92794 54.6862 3.97015 54.6423 4.02268 54.6146C4.15085 54.7671 4.32515 54.8737 4.51927 54.9184V54.2533C4.55785 54.247 4.59724 54.247 4.63582 54.2533C4.7675 54.2669 4.88934 54.3292 4.97734 54.4281C5.11097 54.5632 5.20865 54.7296 5.26148 54.9121C5.28751 54.992 5.30699 55.0738 5.31973 55.1568C5.39941 55.2214 5.4689 55.2975 5.52588 55.3827C5.46935 55.4375 5.40647 55.4854 5.33855 55.5252C5.33855 55.5503 5.33229 55.5826 5.33229 55.6086C5.32373 55.7003 5.35193 55.7916 5.41068 55.8624C5.46943 55.9333 5.55389 55.9779 5.64554 55.9864C5.73718 55.995 5.82849 55.9668 5.89934 55.908C5.9702 55.8493 6.01482 55.7648 6.02338 55.6732C6.04222 55.5016 6.04222 55.3284 6.02338 55.1568C5.53935 55.0798 5.13238 54.9507 5.37799 54.3699C5.5117 54.5372 5.70387 54.6477 5.9158 54.6791C5.82646 54.396 5.66922 54.139 5.45777 53.9306C5.36359 53.8345 5.25465 53.754 5.13508 53.6922H5.14225ZM4.5148 55.6991C4.5127 55.775 4.504 55.8506 4.48881 55.925C4.67647 55.8683 4.87701 55.8706 5.06339 55.9313C5.31526 56.0209 5.48916 56.228 5.6012 56.4996C5.68933 56.7353 5.73748 56.984 5.74371 57.2355C5.67137 57.2267 5.59998 57.2114 5.53038 57.1898C5.12433 57.1002 5.41475 56.5319 5.0078 56.4413C4.97702 56.5118 4.93559 56.5771 4.88499 56.635C4.87111 56.6139 4.85061 56.5982 4.82674 56.5901C4.7371 56.5579 4.57577 56.6089 4.32389 56.7766C4.28978 56.803 4.24979 56.8208 4.20734 56.8285C4.16879 56.6798 4.21361 56.47 4.02807 56.4216C3.73047 56.4673 3.899 57.1835 3.56286 57.1638C3.44723 56.609 2.8664 56.4861 2.42718 56.6152C2.8915 56.3057 3.36268 55.9962 3.84074 55.6866C4.0729 55.6866 4.30506 55.6991 4.51839 55.6991H4.5148ZM5.74104 57.5815C5.52146 57.4736 5.28931 57.3936 5.04995 57.3431C5.05722 57.8174 4.98973 58.2899 4.85002 58.7432C4.97282 58.7826 5.08935 58.8149 5.18615 58.84C5.05345 58.9162 4.90943 58.9707 4.75951 59.0013C4.71055 59.1291 4.63614 59.2456 4.5408 59.3437C4.4731 59.4071 4.43255 59.4942 4.42771 59.5868C4.42286 59.6794 4.45409 59.7702 4.5148 59.8403C4.5452 59.8744 4.58203 59.902 4.62317 59.9218C4.66432 59.9415 4.70899 59.9529 4.75456 59.9553C4.80014 59.9578 4.84571 59.9511 4.88871 59.9359C4.93171 59.9206 4.9713 59.897 5.00513 59.8663C5.37264 59.5374 5.70249 58.485 5.74104 57.5815ZM3.61127 57.1692C3.08869 57.1235 2.5975 57.0401 2.19145 56.7685C2.02383 56.8787 1.85532 56.9944 1.68143 57.1046C1.87538 57.2359 2.09211 57.3298 2.32052 57.3816C2.31251 57.3373 2.29957 57.294 2.28196 57.2525C2.31423 57.3045 2.33933 57.3422 2.3716 57.3879C2.48034 57.4087 2.59077 57.4195 2.70147 57.4202C3.02187 57.4204 3.3363 57.3336 3.61127 57.1692ZM0.539448 57.8334C0.522322 57.8382 0.506651 57.8471 0.493754 57.8594C0.479268 57.8741 0.468213 57.8918 0.461454 57.9114C0.452045 57.9058 0.443316 57.8992 0.435456 57.8917C0.256185 58.001 0.0769129 58.1112 -0.102359 58.2143C-0.0951589 58.2729 -0.0843509 58.3309 -0.0700583 58.3882C0.323443 58.4205 0.529591 58.6141 0.632672 58.9045C0.684661 58.918 0.736648 58.9242 0.78774 58.9368C0.658642 58.5812 0.576384 58.2102 0.543037 57.8334H0.539448ZM1.10059 55C1.10314 55.098 1.12505 55.1946 1.1651 55.2841C1.22964 55.1873 1.35873 55.0905 1.35873 54.7875C1.26001 54.8414 1.17242 54.9135 1.10059 55ZM4.0496 52.6444C3.25632 52.561 3.13978 51.8511 2.32678 52.1675C2.12689 52.9545 2.97216 53.019 3.4302 53.3543C3.50998 52.9276 3.99761 53.0952 4.05139 52.6435L4.0496 52.6444Z" fill="#DDB748"/>
<path d="M58.7346 57.9599H58.2954C58.2581 57.8665 58.2034 57.781 58.134 57.7081C58.5685 57.685 59.004 57.6874 59.4382 57.7152V59.4255C59.4337 59.4847 59.4151 59.5419 59.3839 59.5925C59.3527 59.643 59.3098 59.6853 59.259 59.7159C59.1358 59.5934 59.0275 59.4568 58.9363 59.3089C58.9017 59.3813 58.8832 59.4603 58.8821 59.5404C58.881 59.6206 58.8973 59.7 58.93 59.7733H57.2583C57.3426 59.5286 57.4905 59.3672 57.8589 59.5348C57.8526 59.4703 57.8392 59.4058 57.8329 59.3349C57.9267 59.3937 58.0151 59.4606 58.0973 59.5348C58.3814 59.006 58.8458 59.5223 58.8269 58.9925L58.7373 58.9737V57.9599H58.7346ZM57.8571 57.9599C57.9019 57.8891 57.9467 57.8049 58.005 57.7215C57.6465 57.7443 57.2928 57.8158 56.9535 57.9339C56.9917 57.9526 57.0339 57.9616 57.0764 57.9599H57.8571ZM56.7277 52.6168V52.571H55.7856C55.6951 52.5649 55.6099 52.5263 55.5458 52.4621C55.4817 52.398 55.443 52.3128 55.4369 52.2224V49.951C55.6593 50.0507 55.8933 50.1223 56.1334 50.1643V51.6881C55.843 51.6881 55.5463 51.6819 55.7748 52.2044C56.7608 52.0296 56.7241 52.191 57.2987 51.9651C57.3362 51.997 57.3664 52.0365 57.3875 52.081C57.4085 52.1255 57.4198 52.174 57.4205 52.2232V52.7467C57.1884 52.701 56.9562 52.6571 56.7241 52.6176L56.7277 52.6168ZM54.3263 49.2733V52.571C54.3011 52.6589 54.3011 52.7521 54.3263 52.8399V53.272C54.2478 53.2846 54.1674 53.2659 54.1024 53.22C54.0375 53.1741 53.993 53.1046 53.9785 53.0264C54.0942 52.5101 54.0753 52.0718 53.6298 52.0198V51.9104C53.7596 51.8397 53.8651 51.7316 53.9328 51.6003C53.836 51.5035 53.7329 51.4004 53.6298 51.3036V48.8386C53.8716 48.9665 54.1043 49.1108 54.3263 49.2707V49.2733ZM56.119 59.0768H56.6228C56.8092 59.2561 56.958 59.5608 57.0288 59.6514C57.0208 59.6786 57.0069 59.7036 56.9879 59.7247C56.969 59.7458 56.9457 59.7624 56.9195 59.7733H56.7644C56.5583 59.7285 56.2804 59.5734 56.0473 59.7733H54.4016C54.469 59.5783 54.5185 59.3776 54.5495 59.1736C55.2083 59.2624 55.8614 59.3896 56.5054 59.5546C56.5439 59.3027 56.2275 59.2964 56.0339 59.196C56.0566 59.1516 56.0849 59.1104 56.1182 59.0732L56.119 59.0768ZM53.8665 52.8677C53.8515 52.7766 53.83 52.6868 53.8019 52.5988C53.8057 52.6697 53.7917 52.7404 53.7614 52.8045C53.731 52.8687 53.6852 52.9243 53.6281 52.9663V53.2827C53.7268 53.157 53.8071 53.0179 53.8665 52.8695V52.8677ZM53.6281 59.0956C53.7634 59.0956 53.9122 59.1091 54.0538 59.1216C54.364 59.3905 54.1309 59.5931 53.8477 59.741C53.7854 59.714 53.7318 59.6702 53.693 59.6144C53.6543 59.5587 53.6318 59.4933 53.6281 59.4255V59.0956Z" fill="#DDB748"/>
<path fill-rule="evenodd" clip-rule="evenodd" d="M44.2658 50.4046C44.2251 50.4056 44.1855 50.4187 44.1522 50.4421C44.1188 50.4656 44.0931 50.4983 44.0783 50.5363C44.0635 50.5743 44.0602 50.6157 44.0689 50.6556C44.0775 50.6954 44.0977 50.7318 44.127 50.7602C44.1562 50.7885 44.1932 50.8077 44.2333 50.8151C44.2733 50.8226 44.3147 50.8181 44.3522 50.8021C44.3897 50.7862 44.4217 50.7595 44.4441 50.7254C44.4665 50.6914 44.4784 50.6515 44.4782 50.6107C44.478 50.5832 44.4723 50.556 44.4615 50.5307C44.4506 50.5054 44.4349 50.4825 44.4151 50.4633C44.3954 50.4441 44.372 50.429 44.3464 50.4189C44.3207 50.4089 44.2934 50.404 44.2658 50.4046ZM43.0844 59.8531C43.0781 59.7823 43.0718 59.7106 43.0647 59.6335C42.9105 59.4847 42.7617 59.3233 42.6165 59.1557H42.2365C42.2813 59.0661 42.3261 58.9684 42.3655 58.8716C42.1928 58.6705 42.0049 58.4829 41.8035 58.3105C41.744 58.5719 41.6393 58.8209 41.4942 59.0464C41.5161 59.1402 41.5332 59.235 41.5454 59.3305C41.4486 59.4273 41.3518 59.5304 41.2612 59.6272C41.2842 59.6929 41.3269 59.7499 41.3836 59.7904C41.4402 59.8308 41.508 59.8527 41.5776 59.8531H43.0844ZM49.228 50.6825C49.1243 50.645 49.0155 50.6232 48.9054 50.6179C48.8865 51.2113 48.7377 51.0759 48.4572 51.0177C48.4846 50.9859 48.5086 50.9514 48.5289 50.9146C48.5439 50.8893 48.5502 50.8598 48.5466 50.8306C48.5431 50.8014 48.5299 50.7742 48.5092 50.7533C48.465 50.7072 48.4092 50.6738 48.3478 50.6565C48.2903 50.6364 48.2284 50.6317 48.1685 50.643C48.1174 50.6565 48.0717 50.7013 48.0592 50.8044C48.0508 50.8838 48.0487 50.9639 48.0529 51.0437C47.9833 51.0718 47.9163 51.1063 47.853 51.1468C47.9015 51.2234 47.9577 51.2948 48.0206 51.3601C47.8061 51.3395 47.5904 51.335 47.3753 51.3467C47.3503 51.1384 47.3481 50.928 47.369 50.7192V50.7129C47.4263 50.2648 47.6917 50.0353 48.0144 49.9573C48.1969 49.9199 48.3861 49.931 48.563 49.9896C48.7398 50.0457 48.8995 50.1455 49.0272 50.28C49.1306 50.3927 49.2018 50.5311 49.2334 50.6807L49.228 50.6825ZM46.7111 52.027C47.3054 52.1955 48.0278 52.0145 48.5441 51.6272C48.6284 51.647 48.7189 51.6595 48.813 51.6721C48.7162 51.776 48.6122 51.8728 48.5154 51.9624L48.8579 52.0853C48.8907 52.0938 48.9213 52.1094 48.9475 52.131C48.8184 52.3103 48.6893 52.4788 48.6508 52.7504C48.6374 52.7441 48.6311 52.7441 48.6248 52.7369L48.0502 52.537L47.9534 52.8015C47.8692 52.7889 47.7741 52.8275 47.5859 52.9888C47.5536 53.1887 47.637 53.2577 47.7795 53.2855L47.663 53.6082C47.7577 53.7367 47.8156 53.8885 47.8306 54.0474C47.5995 54.099 47.3606 54.1057 47.127 54.0671C47.1169 54.0372 47.0966 54.0118 47.0696 53.9954H47.0624C47.0229 53.9838 46.9816 53.9801 46.9406 53.9846C46.8997 53.989 46.8601 54.0016 46.824 54.0214C46.6564 53.9954 46.495 53.9703 46.34 53.9568C46.5453 53.7616 46.7897 53.6123 47.0571 53.5186C47.0561 53.469 47.0426 53.4205 47.0178 53.3775C46.993 53.3346 46.9578 53.2986 46.9154 53.2729C46.954 53.2729 46.9988 53.2792 47.0382 53.2792L47.3968 52.2986L46.8222 52.0915C46.7808 52.0792 46.743 52.0571 46.7119 52.027H46.7111ZM46.0146 53.8197C46.0469 53.8717 46.0791 53.9165 46.1114 53.9614C46.0296 53.9711 45.9492 53.9907 45.8721 54.0196C45.916 53.9505 45.9636 53.8838 46.0146 53.8197ZM44.7104 53.7812C44.5799 53.6821 44.425 53.6202 44.2622 53.6019C44.1197 53.938 44.0292 54.189 43.9458 54.3441C43.951 54.3166 43.9531 54.2887 43.9521 54.2607C43.991 53.8009 44.0578 53.3438 44.152 52.892C44.3762 52.7789 44.6359 52.7579 44.8753 52.8337C44.8108 53.1376 44.7525 53.4612 44.7068 53.783L44.7104 53.7812ZM43.5164 54.4454C43.4268 54.3746 43.3166 54.2715 43.1687 54.1299V53.1735C43.2332 53.1412 43.2977 53.1089 43.3551 53.0838C43.4006 53.123 43.4568 53.1476 43.5164 53.1546V54.4516V54.4454ZM42.5681 56.9435C42.516 56.9401 42.4643 56.9335 42.413 56.9238C42.3359 56.8144 42.2579 56.7042 42.1871 56.6074C42.2579 56.5637 42.3168 56.5032 42.3586 56.4313C42.4003 56.3593 42.4237 56.2782 42.4265 56.1951C42.3214 56.1209 42.2087 56.0581 42.0904 56.0077C42.0007 55.4852 41.7318 54.872 41.8519 54.4454C41.7354 54.4974 41.6386 54.535 41.5615 54.5619C41.5158 54.2033 41.4772 53.8197 41.4512 53.4128C41.4536 53.3652 41.4494 53.3175 41.4387 53.2711C41.4324 53.1421 41.4324 53.0067 41.4261 52.8714C41.5061 52.9187 41.5755 52.9821 41.6298 53.0575C41.6841 53.1329 41.7222 53.2188 41.7417 53.3097C41.7874 53.1744 41.8313 53.0327 41.7354 52.8902C41.7999 52.7808 41.8707 52.8319 41.9424 52.8839C41.9998 52.7611 41.9425 52.7351 41.8385 52.7226C41.9239 52.678 42.0206 52.6599 42.1163 52.6706C42.1334 53.4028 42.1932 54.1334 42.2956 54.8586C42.3207 55.0522 42.3341 55.123 42.3404 55.1813C42.3664 55.3946 42.3987 55.6071 42.43 55.8267C42.4811 56.1951 42.5331 56.5689 42.5654 56.9435H42.5681ZM41.4387 52.2C41.4324 52.3479 41.4261 52.4967 41.4261 52.6482C41.502 52.6813 41.5824 52.703 41.6646 52.7127C41.7 52.5898 41.7453 52.4699 41.7999 52.3542C41.6771 52.3156 41.5615 52.3416 41.4414 52.2063L41.4387 52.2ZM45.6211 51.3287C45.6035 51.3294 45.586 51.3273 45.5691 51.3225C45.4958 51.2909 45.4203 51.2648 45.3432 51.2445C45.3369 51.2508 45.337 51.2642 45.3307 51.2705C44.7561 51.1091 44.8825 50.7479 45.3692 50.3024C45.3716 50.305 45.3735 50.3082 45.3746 50.3116C45.3757 50.315 45.376 50.3186 45.3755 50.3221C45.3818 50.3347 45.3817 50.3472 45.388 50.3607C45.2849 50.799 44.8977 51.1477 45.3307 51.1737C45.4532 51.2109 45.5847 51.2065 45.7045 51.1611C45.6982 51.2507 45.6722 51.3225 45.6211 51.3287ZM41.8134 51.9867C41.9102 51.9544 42.007 51.9221 42.1101 51.8898C42.0556 51.9482 42.0058 52.0109 41.9612 52.0772C41.9173 52.0393 41.8673 52.009 41.8134 51.9876V51.9867ZM44.2138 48.8243C44.2461 48.8306 44.2721 48.844 44.2981 48.8503C44.2264 48.8826 44.169 48.9149 44.1188 48.94H44.1251C44.1588 48.9042 44.1888 48.8651 44.2147 48.8234L44.2138 48.8243ZM43.9297 49.0762C43.6455 49.3666 44.9883 49.2698 44.826 50.3607C44.81 50.4705 44.7774 50.5771 44.7292 50.6771C44.7245 50.6168 44.7158 50.5569 44.7032 50.4978C44.6583 50.3357 44.5644 50.1914 44.4343 50.0846C44.288 49.9695 44.1145 49.8939 43.9306 49.865C43.7695 49.8401 43.6051 49.8468 43.4465 49.8847C43.3626 49.9277 43.288 49.9868 43.2269 50.0586C43.1611 49.9938 43.1161 49.9107 43.0978 49.8202C43.177 49.5595 43.3088 49.3179 43.4851 49.1103C43.5421 49.126 43.6008 49.1347 43.6599 49.1363C43.7523 49.1336 43.8435 49.1138 43.9288 49.078L43.9297 49.0762ZM45.0142 48.5599C44.904 48.4048 44.8072 48.2632 44.6979 48.1207C44.7866 48.1069 44.8683 48.064 44.93 47.9988C44.9878 48.151 45.0163 48.3128 45.0142 48.4756V48.5599Z" fill="#DDB748"/>
<path fill-rule="evenodd" clip-rule="evenodd" d="M-32.8122 27.9318H-32.2438C-32.2309 28.0883 -32.187 28.2406 -32.1148 28.38H-31.0571C-31.3018 28.1407 -31.326 28.0053 -31.231 27.9318H-29.1209C-28.704 27.98 -28.283 27.98 -27.866 27.9318H-25.3132C-24.6159 28.3441 -24.009 29.0218 -23.3412 28.2088C-23.7096 28.1191 -24.0583 28.0214 -24.3676 27.9318H-23.0123C-22.7223 28.1912 -22.4114 28.4262 -22.0827 28.6345H-28.1627C-28.2524 28.5512 -28.3366 28.4607 -28.4209 28.3836C-28.7561 28.4804 -29.0851 28.5628 -29.3952 28.6345H-34.4417C-34.4025 28.5049 -34.3341 28.3859 -34.2418 28.2868C-33.9389 28.2025 -33.635 28.112 -33.332 28.0026C-33.158 27.9967 -32.985 27.9729 -32.8157 27.9318H-32.8122ZM-19.9243 27.9318H-18.6076C-19.1104 28.0214 -19.4591 28.2733 -19.9629 28.38C-20.3304 28.2572 -20.1179 28.1111 -19.9243 27.9318ZM-17.7811 27.9318H-17.0264C-17.03 27.995 -17.0408 28.0576 -17.0587 28.1183C-17.2938 28.0328 -17.5366 27.9703 -17.7838 27.9318H-17.7811ZM-16.8328 27.9318H-14.7218C-14.6382 28.0229 -14.5226 28.0781 -14.3992 28.086C-14.4027 28.0343 -14.4092 27.9828 -14.4189 27.9318H-9.37866C-9.31964 28.2028 -9.17734 28.4485 -8.97171 28.6345H-10.5789C-10.7041 28.535 -10.8407 28.4507 -10.9858 28.3836C-10.9892 28.468 -11 28.552 -11.0181 28.6345H-12.2632C-12.6504 28.3119 -13.5476 28.2993 -14.3248 28.6345H-16.5388C-16.6221 28.4284 -16.7969 28.1864 -16.8292 27.9318H-16.8328ZM-7.06787 27.9318H0.850582C0.945763 28.094 0.984531 28.2831 0.960835 28.4696C0.97208 28.5227 0.974186 28.5772 0.967091 28.631H-1.08556C-1.38465 28.4659 -1.73577 28.4223 -2.06617 28.5091C-2.04289 28.5477 -2.02339 28.5885 -2.00792 28.631H-6.75861C-6.81639 28.3793 -6.92134 28.1408 -7.06787 27.9282V27.9318ZM1.07016 27.9318H2.90323C2.94897 28.0095 3.01262 28.0752 3.08885 28.1234C3.16509 28.1716 3.25173 28.2008 3.34156 28.2088C3.3646 28.1464 3.40043 28.0896 3.44674 28.0419C3.49305 27.9942 3.54882 27.9567 3.61047 27.9318H4.16531C4.53999 28.0152 4.93975 28.2088 5.18536 28.2088C5.2499 28.1191 5.30726 28.0214 5.35925 27.9318H7.80541C7.7597 28.1505 7.6629 28.3441 7.77315 28.6345H1.68689C1.42627 28.4542 1.21362 28.213 1.06749 27.9318H1.07016ZM8.84699 27.9318H17.314C17.011 28.0537 16.7268 28.1962 16.5789 28.6345H9.46008C9.18221 28.1057 8.92228 28.0214 8.84699 27.9318ZM21.1611 27.9318H22.4967C22.4896 28.1731 22.4392 28.4111 22.3479 28.6345H20.2962C20.6521 28.4986 20.9552 28.2524 21.1611 27.9318ZM31.6674 27.9318H32.3773C32.5261 28.0797 32.7197 28.1111 32.9778 27.9318H37.6308C37.6694 28.0932 37.5663 28.2545 37.3619 28.4221C37.4984 28.4739 37.6264 28.5455 37.742 28.6345H34.5931C34.2444 28.3836 33.7218 27.8027 33.4502 28.4732C33.499 28.477 33.5458 28.4941 33.5856 28.5225C33.6254 28.5509 33.6567 28.5896 33.6761 28.6345H31.4352C31.5195 28.3961 31.5903 28.1577 31.6674 27.9318ZM38.2377 27.9318H40.587C40.9097 28.2151 41.3041 28.3961 41.7675 28.138C41.8664 28.2397 41.9564 28.3498 42.0364 28.467C42.2946 28.3961 42.4748 28.2025 42.6038 27.9291H42.9722C43.017 28.1613 43.0878 28.3773 43.3783 28.4454C43.495 28.2558 43.6361 28.0823 43.7978 27.9291H43.9654C43.5593 28.9358 44.8304 28.3674 44.9406 28.6319H43.4491C43.4043 28.432 43.3335 28.363 43.2429 28.6319H43.1139C43.1076 28.5745 43.1013 28.5028 43.0941 28.432C43.0389 28.4899 42.9951 28.5577 42.965 28.6319H41.7908C41.8105 28.5673 41.8356 28.4839 41.8751 28.3809C41.3193 28.3934 40.907 28.4777 40.6031 28.6319H38.8866C38.8678 28.6238 38.8502 28.6129 38.8346 28.5996C38.8626 28.5965 38.8909 28.5965 38.9189 28.5996C38.8418 28.4903 38.7638 28.3809 38.693 28.2769C38.534 28.1721 38.3822 28.0568 38.2385 27.9318H38.2377ZM41.4063 27.9318C41.4965 27.9573 41.5833 27.9941 41.6645 28.0412C41.62 28.0013 41.5727 27.9647 41.5228 27.9318H41.4063ZM54.5272 27.9318H54.6948C54.7133 27.9472 54.7305 27.9643 54.7459 27.9829C54.8355 28.0797 54.7208 28.1828 54.6563 28.2796C54.6236 28.1601 54.5804 28.0437 54.5272 27.9318ZM57.2163 27.9318H57.6232C57.6546 27.9823 57.6722 28.0401 57.6743 28.0994C57.8679 28.0994 57.8939 28.0098 57.8491 27.9318H58.3716C58.4621 28.1548 58.506 28.3939 58.5007 28.6345H57.6232C57.4156 28.45 57.273 28.2036 57.2163 27.9318ZM64.9482 27.9318H67.4392C67.7194 28.1382 67.9769 28.3737 68.2074 28.6345H65.6509C65.6569 28.5834 65.6593 28.5319 65.6581 28.4804C65.0513 28.2545 65.0056 28.8479 64.3136 28.4992C64.6883 28.1577 64.8819 28.0349 64.9464 27.9318H64.9482ZM56.2285 28.6345H55.964C55.9537 28.5969 55.9494 28.5579 55.9515 28.5189C56.0404 28.5651 56.1331 28.6038 56.2285 28.6345ZM9.20015 28.6345C9.15356 28.5395 9.1018 28.447 9.04508 28.3576C8.77617 28.4472 8.50726 28.5449 8.23836 28.6345H9.20015Z" fill="#DDB748"/>
<path fill-rule="evenodd" clip-rule="evenodd" d="M-31.3078 10.8877H-29.4685C-29.2808 10.9747 -29.1051 11.0855 -28.9459 11.2176C-29.1332 11.2749 -29.3591 11.3529 -29.6173 11.43C-30.0888 11.3404 -30.5531 11.2238 -31.0048 11.127C-31.0865 11.0335 -31.1985 10.9716 -31.3212 10.9522C-31.3143 10.9313 -31.3098 10.9097 -31.3078 10.8877ZM-26.3384 10.8877H-24.067L-24.4542 11.2176C-24.4295 11.3354 -24.3971 11.4516 -24.3574 11.5653C-24.4345 11.5976 -24.5251 11.5913 -24.6604 11.5008C-24.6733 11.5299 -24.6841 11.5598 -24.6927 11.5904H-26.7256C-26.6162 11.352 -26.6037 11.0033 -26.2998 10.9513C-26.3133 10.9262 -26.3258 10.9065 -26.3384 10.8868V10.8877ZM-21.5303 10.8877H-18.904C-19.1819 11.2561 -20.0854 10.9979 -20.1688 11.5653C-20.0734 11.5635 -19.9781 11.5722 -19.8846 11.5913H-21.5823C-21.7374 11.2946 -21.6988 11.0688 -21.5303 10.8877ZM-18.6073 10.8877C-18.6073 11.024 -18.9426 11.2686 -18.9237 11.5913H-18.5293C-18.2263 11.4237 -18.0202 11.1656 -17.8006 10.8877H-18.6073ZM-15.6897 10.8877H-14.467C-14.3514 11.0042 -14.2286 11.1396 -14.0995 11.2749C-14.2826 11.3153 -14.4679 11.3452 -14.6544 11.3646C-15.028 11.2733 -15.3807 11.1111 -15.6933 10.8868L-15.6897 10.8877ZM-13.3152 10.8877H-13.0185C-13.1399 10.954 -13.2646 11.0138 -13.3923 11.067C-13.344 11.0197 -13.3163 10.9553 -13.3152 10.8877ZM-10.3205 10.8877H-8.01325V11.5653C-8.31622 11.3466 -8.72315 11.2176 -9.33626 11.3009C-9.22898 11.3913 -9.12752 11.4883 -9.03242 11.5913H-10.1358C-10.1296 11.508 -10.1233 11.4121 -10.1233 11.3009C-10.2625 11.2906 -10.4007 11.269 -10.5365 11.2364C-10.4585 11.1208 -10.3877 11.0042 -10.3169 10.8877H-10.3205ZM-7.64215 10.8877H-3.51173C-3.46691 11.482 -4.53807 11.1978 -4.73796 11.1781C-4.7458 11.3179 -4.72818 11.4579 -4.68596 11.5913H-7.07387C-7.02417 11.4994 -6.98536 11.4019 -6.95824 11.3009C-7.28093 11.2561 -7.46826 11.0813 -7.64215 10.8877ZM-3.23389 10.8877H-1.27263C-1.5756 11.0365 -1.74949 11.3144 -1.92428 11.5913H-2.76956C-2.70245 11.452 -2.68413 11.2942 -2.71757 11.1432C-2.97572 11.2274 -3.09227 11.0275 -3.23389 10.885V10.8877ZM-0.620098 10.8877H-0.478466C-0.426477 11.0885 -0.136068 11.049 0.160627 11.0105C0.0107651 11.2172 -0.155588 11.4115 -0.336834 11.5913H-0.785013C-0.888094 11.3655 -0.636229 11.3529 -0.616508 10.8877H-0.620098ZM6.70496 10.8877H10.6418C10.604 10.9261 10.5587 10.9562 10.5087 10.9763C10.4587 10.9963 10.4051 11.0058 10.3513 11.0042C10.5512 11.8755 12.732 11.6882 12.9714 10.8877H19.2638C19.3472 11.2301 19.4763 11.456 19.6448 11.5913H9.93811C10.0302 11.409 10.0807 11.2085 10.086 11.0042C9.46661 10.9271 8.9503 11.2301 8.86694 11.5913H6.82059C6.91052 11.5084 6.98486 11.41 7.04017 11.3009C6.92365 11.1458 6.81431 11.0105 6.70496 10.8877ZM11.4287 10.8877C11.4413 11.0813 11.487 11.2463 11.6744 11.2687C11.7223 11.1364 11.7823 11.0089 11.8536 10.8877H11.4287ZM12.1969 10.8877C12.2803 11.075 12.5322 10.998 12.7455 10.8877H12.1969ZM21.9484 10.8877H29.0476C29.1058 10.9334 29.1641 10.9845 29.2268 11.0365C28.5035 11.0168 28.689 11.4847 28.1682 11.0365C28.1762 11.2223 28.1633 11.4084 28.1297 11.5913H20.7912C21.2022 11.4022 21.59 11.1661 21.9466 10.8877H21.9484ZM30.0864 10.8877H33.2102C33.605 11.0307 34.0079 11.1504 34.4167 11.2463C34.2319 11.2814 34.043 11.2902 33.8556 11.2722C33.8663 11.3822 33.8901 11.4906 33.9264 11.5949H30.2218C30.1707 11.3368 30.1061 11.1109 30.0864 10.8913V10.8877ZM38.3858 10.8877H41.4263C41.5804 11.0042 41.7292 11.1207 41.8744 11.2301C41.6486 11.3009 41.5159 11.3977 41.6486 11.5886H41.48C41.4585 11.4102 41.4476 11.2306 41.4478 11.0508C41.4415 11.0437 41.4352 11.0374 41.4289 11.0374C41.3793 11.0855 41.3359 11.1397 41.2999 11.1987C41.2756 11.1614 41.2474 11.1268 41.2156 11.0956C41.1968 11.1351 41.1818 11.1762 41.1708 11.2185C41.2122 11.2038 41.256 11.1971 41.2999 11.1987C41.3832 11.3278 41.2542 11.4569 41.1896 11.586H36.1494L36.2274 11.5277L36.2202 11.5214C37.0531 11.5925 37.8899 11.6054 38.7246 11.56C38.5758 11.1217 38.4468 11.0222 38.3822 10.8823L38.3858 10.8877ZM43.7102 10.8877H44.248C44.0875 11.0342 43.9193 11.1721 43.7442 11.3009C43.7652 11.1625 43.7542 11.0212 43.712 10.8877H43.7102ZM51.5085 10.8877H54.064C54.0192 11.2104 54.1608 11.404 54.3159 11.5913H53.3093C53.1605 11.43 52.9992 11.3655 52.7795 11.5913H51.3597C51.3274 11.2561 51.3669 11.0365 51.5085 10.8877ZM59.6985 10.8877H65.4881C65.6165 11.0115 65.757 11.122 65.9076 11.2176C65.9173 11.1051 65.8998 10.992 65.8565 10.8877H66.1657C66.1147 10.9975 66.0867 11.1165 66.0835 11.2376C66.0803 11.3586 66.1018 11.479 66.1469 11.5913H58.8344C59.1311 11.1781 59.4287 10.9845 59.6931 10.8877H59.6985ZM66.2876 10.8877H67.0047C66.9079 11.3592 66.7663 11.0562 66.2876 10.8877ZM69.6696 10.8877H70.0891C70.315 11.0428 70.5086 11.3359 70.358 11.5913H69.9448C69.9 11.3466 69.9197 11.0535 69.6615 10.946C69.6606 10.9263 69.6627 10.9067 69.6678 10.8877H69.6696ZM101.17 10.8877H102.003C101.883 11.1652 101.694 11.4074 101.454 11.5913H101.332C101.242 11.3664 101.188 11.1291 101.17 10.8877ZM72.0575 11.5913C71.4569 11.2624 70.7533 10.9917 70.3598 11.5913H72.0575ZM57.6458 11.5913H56.5245C56.5385 11.4674 56.5137 11.3421 56.4537 11.2328C56.9189 10.9164 57.6736 11.0195 58.371 11.0455C58.2285 11.3682 57.9515 11.5035 57.6476 11.594L57.6458 11.5913ZM45.7001 11.5913C45.7709 11.4623 45.8489 11.3269 45.7772 11.1978C45.7156 11.1717 45.6558 11.1418 45.5979 11.1082C45.5396 11.7357 44.533 11.4121 44.023 11.5922L45.7001 11.5913ZM4.91583 11.5913H3.33464C3.17957 10.7846 3.98631 11.2498 4.91583 11.5913ZM2.85421 11.5913H2.42213C2.34415 11.2498 2.38358 11.0625 3.08005 11.0365C2.88644 11.2238 2.82821 11.4112 2.85421 11.5913ZM2.04118 11.5913H1.68264C1.70147 11.5017 1.72745 11.404 1.75972 11.3009C1.9856 11.2624 2.02866 11.4112 2.0439 11.5913H2.04118ZM-7.80711 11.5913C-7.87565 11.5792 -7.94472 11.5705 -8.01413 11.5653C-8.01413 11.5788 -8.007 11.5851 -8.007 11.5913H-7.80711ZM40.8347 11.4945C40.833 11.4945 40.8314 11.4939 40.8302 11.4927C40.8291 11.4915 40.8284 11.4899 40.8284 11.4883V11.4945H40.8347Z" fill="#DDB748"/>
<path fill-rule="evenodd" clip-rule="evenodd" d="M-25.7453 44.9707H-25.6485C-25.5154 45.0037 -25.3786 45.0187 -25.2415 45.0155C-25.4106 45.0118 -25.5795 45.0269 -25.7453 45.0603V44.9707ZM-24.1838 44.9707H-22.1312C-21.9116 45.2477 -21.5378 45.4189 -20.9659 45.4548C-20.8108 45.28 -20.9139 45.0962 -20.9722 44.9707H-20.5975C-20.0238 45.2674 -19.7397 45.003 -19.0235 45.6412C-18.9841 45.4153 -18.9455 45.193 -18.9007 44.9707H-18.6488C-18.6209 45.1608 -18.6188 45.3538 -18.6425 45.5444C-18.1262 45.1061 -18.3064 45.5641 -17.5965 45.5444C-17.5777 45.5901 -17.558 45.634 -17.5391 45.6735H-20.9659C-20.9436 45.6375 -20.9133 45.6072 -20.8774 45.5848C-20.8415 45.5624 -20.8009 45.5486 -20.7588 45.5444C-21.6301 45.8545 -22.444 44.9312 -24.0117 45.2414C-24.07 45.1706 -24.122 45.0998 -24.1794 45.0352C-24.1794 45.0093 -24.1865 44.9895 -24.1865 44.9707H-24.1838ZM-17.8914 44.9707C-17.8654 45.003 -17.8394 45.0415 -17.8134 45.0738C-17.8331 45.0415 -17.8457 45.003 -17.8654 44.9707H-17.8914ZM-16.8328 44.9707H-13.7932C-13.9671 45.1571 -14.1159 45.4476 -14.0622 45.6735H-15.6756C-15.6886 45.5777 -15.7231 45.4861 -15.7767 45.4056C-15.8303 45.3252 -15.9015 45.258 -15.9849 45.2091C-16.0171 45.4996 -16.2107 45.5515 -16.5227 45.4413C-16.0126 44.8927 -16.6195 45.0926 -16.8391 44.9707H-16.8328ZM-13.4831 44.9707H-10.5986C-9.95951 45.2477 -9.63683 45.5982 -8.79784 45.5318C-8.71986 45.2414 -8.77186 45.0926 -8.8364 44.9707H-6.95405C-6.52828 45.106 -6.13386 45.1571 -5.74664 44.9707H-2.19079C-2.01635 45.0858 -1.84848 45.2106 -1.68795 45.3445C-1.78303 45.3643 -1.87289 45.4038 -1.95178 45.4604C-2.03067 45.5171 -2.09682 45.5897 -2.14597 45.6735H-7.41208C-7.4058 45.6672 -7.40579 45.6546 -7.39952 45.6483C-7.32494 45.6271 -7.24539 45.6315 -7.17363 45.6609C-7.14764 45.4996 -7.11537 45.3445 -7.08938 45.1831C-7.37352 45.1966 -7.44793 44.8739 -7.56714 45.0998C-7.47034 45.1249 -7.37981 45.1509 -7.43807 45.2862C-7.65768 45.2737 -7.77332 45.4028 -7.76077 45.5318C-7.78677 45.5766 -7.81903 45.6286 -7.85041 45.6735H-13.6973C-13.5745 45.4476 -13.4069 45.1768 -13.4777 44.9707H-13.4831ZM-1.20839 44.9707C-1.14373 45.0648 -1.09941 45.1714 -1.07827 45.2836C-1.05712 45.3958 -1.05961 45.5112 -1.08558 45.6223C-1.40826 45.4933 -1.52391 45.6546 -1.74979 45.6609C-1.74979 45.6672 -1.74976 45.6735 -1.74349 45.6735H0.0536919C-0.12558 45.4942 -0.304867 45.306 -0.365818 45.1356C-0.269012 45.0774 -0.172184 45.0191 -0.0753784 44.968L-1.20839 44.9707ZM4.54892 44.9707H4.56774L4.56148 44.977C4.55521 44.977 4.55519 44.9707 4.54892 44.9707ZM5.34221 44.9707H9.36325C9.29872 45.1831 9.22791 45.409 9.14993 45.6735H5.49101C5.40138 45.6026 5.31174 45.5256 5.22211 45.4476C5.31334 45.306 5.3561 45.1387 5.344 44.9707H5.34221ZM10.9444 44.9707H12.9164C12.9148 45.0353 12.8995 45.0988 12.8716 45.1571C13.0455 45.1571 13.1405 45.0675 13.1549 44.9707H14.9879C14.9864 45.0053 14.9823 45.0398 14.9754 45.0738C14.8695 45.081 14.7665 45.1113 14.6736 45.1625C14.5807 45.2138 14.5001 45.2848 14.4376 45.3705C14.9601 45.2996 15.4441 45.5318 15.8771 45.6735H14.0503C13.6918 45.5256 13.2956 45.7703 12.9595 45.4548C13.0153 45.5246 13.0671 45.5976 13.1145 45.6735H9.7523C9.76298 45.632 9.76321 45.5885 9.75305 45.5469C9.74288 45.5053 9.7226 45.4669 9.694 45.435C10.2748 45.5901 10.3331 45.0998 10.914 45.2611C10.9099 45.1632 10.9208 45.0653 10.9462 44.9707H10.9444ZM15.247 44.9707C15.1439 45.003 15.0345 45.0541 14.9781 45.0738C15.5723 45.0415 16.2948 45.6026 17.0693 45.3705C16.9899 45.4934 16.8839 45.597 16.7591 45.6735H18.2049C18.1861 45.5901 18.2309 45.4942 18.3842 45.3902C18.8485 45.3902 19.0224 45.4476 19.2098 45.6735H20.1957C20.2696 45.4468 20.2872 45.2056 20.2468 44.9707H15.6754C15.7139 45.0675 15.7139 45.1383 15.5652 45.1383C15.5714 45.0487 15.5464 44.9958 15.5006 44.9707H15.247ZM29.5941 44.9707H33.4278C33.5694 45.1768 33.8338 45.3579 33.7119 45.6735H32.0357C31.6091 45.4996 31.203 45.3149 30.8095 45.1061C30.8024 45.3705 30.7576 45.5542 30.6805 45.6735H29.6281C29.5385 45.4736 29.551 45.2351 29.5959 44.9707H29.5941ZM33.8966 44.9707H34.8324C35.0009 45.1643 35.2133 45.3293 35.3487 45.6735H34.7938C34.532 45.3956 34.2298 45.1587 33.8975 44.9707H33.8966ZM35.3684 44.9707H39.1887C39.1439 45.0998 39.0668 45.2289 39.0533 45.3579C39.0919 45.3965 39.1376 45.4413 39.1824 45.4798C38.7692 45.4413 38.4079 45.3122 37.9759 45.3122C38.0549 45.4366 38.1411 45.5563 38.2341 45.6707H37.8208C37.7669 45.6071 37.6968 45.5592 37.618 45.532C37.5391 45.5049 37.4543 45.4996 37.3726 45.5166C37.3986 45.574 37.4246 45.6259 37.4506 45.6707H36.2307C36.2692 45.4771 35.9986 45.2907 36.41 45.0899C36.0685 45.1795 35.6929 45.0971 35.3648 44.968L35.3684 44.9707ZM39.2532 44.9707H39.5436C39.6539 45.054 39.7633 45.1643 39.8735 45.1383C40.0089 45.2611 40.1505 45.3767 40.189 45.5963C40.2154 45.5952 40.2416 45.5911 40.267 45.5838C40.2607 45.6161 40.2607 45.6484 40.2536 45.6735H39.4791C39.4468 45.4413 39.2532 45.2091 39.2532 44.9707ZM45.9759 44.9707H53.0679C52.9971 44.9707 52.9263 44.977 52.8617 44.9832C52.9606 45.0679 53.0742 45.1335 53.197 45.1769C53.1009 45.3358 53.017 45.5018 52.946 45.6735H51.7906C51.7174 45.6069 51.6372 45.5486 51.5513 45.4996C51.4581 45.5519 51.3683 45.61 51.2823 45.6735H45.5887C45.724 45.487 45.8145 45.2477 45.9759 44.9707ZM58.2632 44.9707H58.6217C58.6612 45.1966 58.7113 45.4288 58.7508 45.6735H58.1377C58.17 45.4736 58.2273 45.2253 58.2668 44.9707H58.2632ZM61.5223 44.9707H63.5624C63.9163 45.1838 64.2566 45.4185 64.5816 45.6735H63.6198C63.5865 45.5449 63.6051 45.4083 63.6718 45.2934C63.4137 45.2414 63.1555 45.1966 62.8911 45.1509C62.8766 45.3306 62.91 45.5109 62.9879 45.6735H62.7037C62.4904 45.4673 61.7742 45.5964 61.4972 45.435C61.6514 45.1769 61.6191 45.054 61.5223 44.9707ZM66.6468 44.9707H67.0215C67.2151 45.1643 66.9892 45.306 66.8467 45.6735H66.5375C66.4595 45.4996 66.5052 45.3149 66.7759 45.1356C66.7051 45.0254 66.6343 45.0774 66.5635 45.1419C66.5557 45.1285 66.5446 45.1174 66.5312 45.1096C66.5778 45.0697 66.617 45.0217 66.6468 44.968V44.9707ZM67.9761 45.6735H67.363C67.4526 45.4798 67.5423 45.2996 67.925 45.5255C67.9438 45.5838 67.9573 45.6286 67.9761 45.6735ZM65.9952 45.6735H65.6017C65.4547 45.6455 65.317 45.5815 65.201 45.487C65.1957 45.5509 65.2069 45.6151 65.2333 45.6735H64.6955C64.7299 45.6136 64.7759 45.5611 64.8308 45.5193C64.8953 45.5255 64.9796 45.4933 65.0827 45.3902C65.4959 45.2737 66.0687 45.3902 66.4272 45.1831C66.4469 45.4413 66.2533 45.6161 65.9952 45.6735ZM59.9806 45.6735H58.905C59.1891 45.5767 59.5324 45.5516 59.9806 45.6735ZM36.185 45.6735C35.9788 45.3319 35.7789 45.5516 35.5719 45.6735H36.185ZM-31.231 45.6735H-32.1928C-32.1865 45.6349 -32.1731 45.5963 -32.1668 45.5515C-32.4052 45.5255 -32.6571 45.487 -32.909 45.4413C-32.9036 45.3877 -32.9015 45.3338 -32.9027 45.2799C-31.3923 45.0926 -30.9603 45.3579 -30.4951 45.5193C-30.7407 45.5704 -30.9926 45.6089 -31.2292 45.6735H-31.231Z" fill="#DDB748"/>
</g>
<defs>
<clipPath id="clip0_12_260">
<rect width="155" height="150.405" fill="white" transform="translate(-53 -40.2451)"/>
</clipPath>
</defs>
</svg>
