<svg width="22" height="21" viewBox="0 0 22 21" fill="none" xmlns="http://www.w3.org/2000/svg">
<path fill-rule="evenodd" clip-rule="evenodd" d="M11.3357 0C5.51876 0 0.838928 4.65037 0.838928 10.4307C0.838928 15.0376 3.85676 18.9492 8.01175 20.3399C8.53659 20.4269 8.71154 20.1226 8.71154 19.8184C8.71154 19.5576 8.71154 18.9057 8.71154 18.0365C5.78118 18.6884 5.16886 16.6457 5.16886 16.6457C4.68776 15.4288 3.98797 15.1246 3.98797 15.1246C3.02576 14.4726 4.07545 14.4726 4.07545 14.4726C5.12513 14.5596 5.69371 15.5592 5.69371 15.5592C6.61218 17.1673 8.14296 16.6892 8.75528 16.4284C8.84275 15.733 9.10517 15.2984 9.41133 15.0376C7.09328 14.7769 4.64402 13.8642 4.64402 9.86574C4.64402 8.73574 5.03765 7.77959 5.73744 7.08421C5.64997 6.82344 5.25634 5.78037 5.82491 4.30268C5.82491 4.30268 6.69965 4.04191 8.71154 5.38921C9.54254 5.17191 10.461 5.04152 11.3357 5.04152C12.2105 5.04152 13.1289 5.17191 13.9599 5.38921C15.9718 4.04191 16.8466 4.30268 16.8466 4.30268C17.4151 5.7369 17.0653 6.77998 16.934 7.08421C17.5901 7.82305 18.0275 8.73574 18.0275 9.86574C18.0275 13.8642 15.5782 14.7334 13.2164 14.9942C13.6101 15.2984 13.9162 15.9503 13.9162 16.9065C13.9162 18.2972 13.9162 19.4272 13.9162 19.7749C13.9162 20.0357 14.0912 20.3834 14.6597 20.2965C18.8147 18.9492 21.8326 15.0376 21.8326 10.4307C21.8326 4.65037 17.1527 0 11.3357 0Z" fill="#FFC947"/>
</svg>
