<svg width="390" height="50" viewBox="0 0 390 50" fill="none" xmlns="http://www.w3.org/2000/svg">
<g clip-path="url(#clip0_1_428)">
<path fill-rule="evenodd" clip-rule="evenodd" d="M11.9625 -23.1521C12.1621 -22.9714 12.3228 -22.7523 12.4353 -22.5078C12.5478 -22.2633 12.6096 -21.9985 12.6169 -21.7294C12.6056 -21.7191 12.5986 -21.7048 12.597 -21.6896C11.81 -22.037 10.9849 -22.2911 10.1387 -22.4464C10.0164 -22.6712 9.89402 -22.9188 9.77167 -23.1634L11.9625 -23.1521ZM6.7785 -20.3466H6.43147C4.89505 -20.3666 5.16246 -19.2797 5.95912 -18.7277C5.80241 -18.5287 5.68731 -18.3002 5.62083 -18.0558C5.55435 -17.8114 5.53789 -17.5561 5.57221 -17.3051C5.75126 -17.3202 5.92894 -17.3478 6.10415 -17.3877C5.79687 -16.8755 5.53519 -16.5682 4.5479 -17.5726C4.42271 -16.4658 7.94785 -15.0517 5.38716 -14.2323C3.76823 -16.608 1.68848 -19.8033 -1.33313 -18.412C-1.52773 -19.1497 -1.8922 -19.8318 -2.39731 -20.4036C-1.86526 -22.3099 0.203221 -22.4948 2.0896 -22.1448C1.9165 -21.8639 1.66809 -21.6372 1.3726 -21.4904C4.30032 -21.1405 5.46977 -22.8021 6.84116 -22.7793C6.84477 -22.5455 6.93147 -22.3206 7.08581 -22.1448C6.29218 -21.6856 5.68725 -20.9597 5.37868 -20.0963C6.60781 -20.7735 6.97488 -20.9498 6.77003 -20.3637L6.7785 -20.3466ZM9.78307 -11.0542C8.36046 -11.9362 4.96901 -9.88761 2.85786 -11.7085C2.36305 -10.9505 1.62729 -10.3813 0.769379 -10.0926C1.62294 -8.02124 2.36553 -5.93284 2.38829 -4.31391C2.92034 -3.9042 3.16512 -3.24976 3.04277 -2.20556C2.62801 -2.16108 2.21052 -2.14684 1.79368 -2.16291C1.74361 -2.09704 1.68841 -2.03523 1.62864 -1.978C0.154819 -0.484264 -1.48404 -2.59249 -3.71753 -4.74347C-2.86036 -6.24746 -2.30368 -7.90379 -2.07861 -9.6202C-4.86408 -9.45518 -8.24426 -9.60031 -11.3996 -7.50908C-11.1549 -9.43529 -11.6044 -10.6644 -13.0783 -10.8693C-14.1775 -10.8866 -15.268 -10.6711 -16.2781 -10.2372C-17.2883 -9.80321 -18.1953 -9.16051 -18.9394 -8.35125C-16.0089 -14.7018 -16.6632 -14.5168 -23.1389 -16.7503C-22.6141 -17.5111 -21.9626 -18.1761 -21.2127 -18.7163C-22.4617 -19.6183 -23.6083 -20.6824 -25.1248 -21.1945C-25.2671 -21.0722 -25.3923 -20.9271 -25.5345 -20.8048C-25.2273 -20.745 -24.9001 -20.7222 -24.6128 -20.6426C-25.0623 -19.9654 -25.4948 -19.2883 -25.4663 -18.1217C-26.4707 -17.9169 -26.8605 -18.3266 -27.0027 -18.9753C-27.5388 -18.18 -27.9854 -17.3279 -28.3343 -16.4345C-27.4335 -16.3664 -26.5281 -16.4787 -25.6711 -16.7646C-24.9342 -13.5068 -27.7197 -13.7714 -28.1721 -11.7229C-25.1789 -8.16065 -23.3779 -16.6821 -21.4716 -11.7229C-23.5629 -10.7612 -26.5731 -8.87761 -28.9688 -8.48781C-28.7326 -7.43905 -28.3755 -6.4212 -27.9046 -5.45477C-26.408 -5.70231 -25.8959 -7.23879 -23.9925 -5.02521C-28.1095 -9.98158 -21.9239 -5.10771 -22.3109 -9.20481C-22.2711 -3.59121 -14.8963 -4.30817 -13.0924 0.853042C-11.2715 -0.569565 -9.22297 -0.825701 -7.86865 -0.211135C-7.06314 -0.769937 -6.32173 -1.41592 -5.65791 -2.13735C-4.30644 -0.785873 -2.89237 0.545703 -1.39009 1.36512C-0.247186 1.32573 0.895998 1.43674 2.00999 1.69521C3.87361 0.485998 0.965716 -0.353301 2.84925 -0.825606C3.66867 -0.230957 4.81526 -0.128584 6.08707 -0.171263C7.5808 -1.74751 8.79011 -4.43914 9.38476 -7.34125C8.81643 -7.5789 8.30094 -7.92695 7.86824 -8.36542C8.38038 -8.42517 8.87266 -8.48782 8.70764 -9.20481C6.86394 -10.6786 8.58519 -9.26456 9.67206 -9.20481C9.73181 -9.8393 9.77459 -10.4538 9.77459 -11.0684L9.78307 -11.0542ZM-29.2419 1.03226C-31.6404 2.56867 -34.2609 2.91576 -37.1914 0.00795246C-38.0109 -0.855681 -38.6759 -1.85373 -39.1574 -2.94257C-38.9145 -2.95405 -38.6741 -2.88913 -38.47 -2.75696C-38.2659 -2.62479 -38.1082 -2.43191 -38.0193 -2.20556C-38.1843 -3.65947 -38.7762 -3.91274 -39.5558 -3.82169C-39.9978 -4.90176 -40.3406 -6.01972 -40.58 -7.1619C-37.8543 -6.97696 -35.3961 -6.30844 -33.5951 -4.70374C-33.6187 -4.34911 -33.6121 -3.99305 -33.5752 -3.63956C-34.7816 -4.17162 -36.0334 -4.294 -37.18 -3.04496C-35.1315 -1.62235 -31.2392 1.56433 -29.6402 -1.36339C-30.0104 -1.47589 -30.3621 -1.6417 -30.6844 -1.85561C-30.0684 -2.27048 -29.4964 -2.74715 -28.9773 -3.27821C-28.1977 -2.66365 -27.2701 -2.23409 -26.4763 -1.63944C-26.6214 -0.0831055 -29.3216 -1.12719 -29.8365 0.0393498C-29.7495 0.428583 -29.5413 0.780146 -29.2419 1.04365V1.03226ZM-41.7807 -20.2329C-43.2346 -20.395 -43.7724 -21.0864 -43.8293 -21.7266V-21.8489C-43.548 -21.8485 -43.2708 -21.9177 -43.0226 -22.0502C-42.7744 -22.1828 -42.5629 -22.3746 -42.4067 -22.6086C-41.5048 -22.4038 -41.8377 -20.9498 -40.7252 -20.9271C-40.7454 -20.716 -40.8321 -20.5167 -40.9727 -20.358L-41.7723 -20.2357L-41.7807 -20.2329ZM-28.7098 -18.7562C-28.7631 -18.2513 -28.8583 -17.7516 -28.9944 -17.2625C-29.055 -17.0192 -29.1301 -16.7798 -29.2191 -16.5455C-30.9263 -16.9324 -32.0245 -17.877 -33.2024 -17.5697C-33.652 -17.9567 -33.7345 -18.3465 -33.7544 -18.9611C-31.2364 -18.7363 -29.8223 -18.2242 -28.7155 -18.7562H-28.7098ZM-30.417 -13.6775C-32.5452 -13.9848 -34.5141 -13.9222 -33.2024 -15.9082C-33.7971 -16.4772 -34.6251 -16.8101 -35.5782 -17.0462C-35.9054 -16.2496 -37.7292 -17.6409 -38.9384 -17.1913C-37.8004 -14.3234 -32.6078 -15.4842 -33.2024 -10.8807C-32.6704 -10.9006 -32.1155 -10.9233 -31.6233 -10.9831C-31.2136 -11.9049 -30.8039 -12.8268 -30.417 -13.6889V-13.6775ZM-32.1781 -9.66008C-32.3204 -9.33288 -32.4428 -9.00562 -32.568 -8.67842C-32.4075 -9.11004 -32.3377 -9.57011 -32.3631 -10.0299L-32.1781 -9.66008ZM-32.5878 -8.6159C-32.75 -8.16636 -32.915 -7.71392 -33.0573 -7.2843C-33.0999 -7.36681 -33.1598 -7.42941 -33.2024 -7.50908C-32.9615 -7.85678 -32.7556 -8.22756 -32.5878 -8.6159ZM-29.2675 -12.0984C-29.2424 -12.5377 -29.1949 -12.9755 -29.1252 -13.41C-29.0854 -13.41 -29.0427 -13.3901 -29.0028 -13.3901C-28.9574 -12.9426 -29.0498 -12.4919 -29.2675 -12.0984ZM-20.8485 -24.0483C-19.1936 -24.7387 -17.4179 -25.0937 -15.6246 -25.0925C-15.0146 -25.0935 -14.4054 -25.0526 -13.8009 -24.9701C-12.9152 -24.6176 -12.1028 -24.1034 -11.4053 -23.4537C-13.5563 -21.8774 -13.8436 -24.5177 -13.1665 -20.6255C-13.6982 -20.8236 -14.2582 -20.9351 -14.8253 -20.9556C-15.0562 -21.3791 -15.2614 -21.8161 -15.4397 -22.2643C-15.4397 -22.2871 -15.4198 -22.3071 -15.3999 -22.327C-15.3799 -22.3469 -15.4397 -22.307 -15.4625 -22.307L-15.5849 -22.6143C-15.7072 -22.4492 -15.8295 -22.307 -15.9319 -22.1619C-17.5907 -21.7949 -19.7218 -22.6541 -20.8485 -24.0483ZM-37.4475 -21.866C-37.2853 -21.4136 -37.1203 -20.984 -36.7533 -20.7593C-35.7887 -21.0239 -34.7246 -21.2087 -34.0275 -21.7636C-33.9097 -21.2434 -33.828 -20.7159 -33.7829 -20.1845C-33.3504 -21.149 -31.5067 -18.7306 -30.4824 -20.6369C-32.2642 -21.4384 -34.091 -22.1357 -35.9537 -22.7253C-36.5307 -22.6093 -37.0546 -22.3099 -37.4475 -21.8717V-21.866ZM-12.1905 -19.9797C-12.1279 -19.9598 -12.0682 -19.9597 -12.0056 -19.9398C-12.0056 -19.8971 -12.0255 -19.8573 -12.0255 -19.7947C-12.0881 -19.8573 -12.1279 -19.9199 -12.1905 -19.9797ZM-11.7808 -19.9199C-10.5716 -19.7349 -10.0993 -19.5898 -9.48478 -19.8573C-9.48478 -18.7192 -9.58713 -17.5014 -8.68804 -17.2966C-8.5031 -18.3009 -7.74338 -17.8087 -7.00647 -17.2966C-6.9674 -17.5957 -6.94746 -17.897 -6.94673 -18.1986C-6.77637 -17.9626 -6.57658 -17.7493 -6.35213 -17.564C-6.45456 -15.7203 -9.91717 -17.2141 -11.391 -16.7446C-12.102 -17.2979 -12.7482 -17.9298 -13.3172 -18.6282C-12.6201 -19.0777 -12.0255 -19.5301 -11.7808 -19.9199ZM-8.40074 -20.6141L-8.03078 -20.9214C-7.80086 -20.7346 -7.64212 -20.4744 -7.58121 -20.1845C-7.81334 -20.3945 -8.09558 -20.5415 -8.40074 -20.6113V-20.6141Z" fill="#DDB748"/>
<path fill-rule="evenodd" clip-rule="evenodd" d="M98.9435 -32.6379C100.089 -32.6342 101.186 -32.1776 101.995 -31.3679C102.805 -30.5582 103.262 -29.4611 103.265 -28.316C103.265 -27.8423 103.189 -27.3717 103.041 -26.9219C101.792 -27.1068 100.542 -27.0044 99.9279 -28.2933C98.1667 -26.1651 97.3672 -26.165 95.2987 -26C94.7412 -26.8715 94.5171 -27.915 94.6676 -28.9386C94.8182 -29.9622 95.3333 -30.8969 96.1181 -31.571V-31.5311C97.4696 -31.4913 97.7144 -31.8583 97.4497 -32.3847C97.9287 -32.5586 98.4339 -32.649 98.9435 -32.6521V-32.6379ZM99.0885 -23.9913H98.9435C98.6199 -23.9849 98.2968 -24.0193 97.9818 -24.0937C98.3489 -24.0539 98.7186 -24.034 99.0885 -23.9913ZM102.446 -10.6985C100.193 -10.9431 104.659 -7.44073 100.767 -8.17764C99.5181 -8.54752 101.094 -9.24171 100.767 -10.6985C98.124 -11.6203 98.8609 -10.7582 95.7283 -10.6985C96.323 -8.115 96.323 -9.0796 95.7283 -6.49899C98.9633 -7.9216 101.319 -4.79186 104.699 -7.13347L104.64 -6.76351C105.068 -6.82253 105.504 -6.77363 105.909 -6.62124C106.305 -6.46551 106.664 -6.22536 106.959 -5.9173C107.253 -5.60925 107.478 -5.24067 107.616 -4.83729C107.912 -4.04386 108.07 -3.20584 108.085 -2.35912V-2.15434C107.295 -2.22323 106.508 -1.99721 105.874 -1.51987V-2.2766C105.873 -2.87038 105.769 -3.45948 105.567 -4.0179C105.505 -4.24271 105.358 -4.43455 105.157 -4.55277C104.873 -4.6552 104.358 -4.49022 103.578 -3.95816C103.469 -3.87766 103.344 -3.82138 103.211 -3.79312C102.671 -3.19827 102.012 -2.72328 101.277 -2.39885C100.542 -2.07442 99.747 -1.90773 98.9435 -1.90955C98.1399 -1.90738 97.3448 -2.07398 96.6097 -2.39844C95.8745 -2.72289 95.2156 -3.19799 94.6757 -3.79312C94.5224 -3.75325 94.3622 -3.74739 94.2064 -3.77589C94.0506 -3.8044 93.903 -3.8666 93.7738 -3.95816C92.9942 -4.49022 92.482 -4.6552 92.1747 -4.55277C91.9844 -4.42296 91.8408 -4.23548 91.765 -4.0179C91.5839 -3.4549 91.488 -2.86796 91.4805 -2.2766C91.4411 -0.835086 91.6214 0.604018 92.0154 1.99122C91.4207 2.23876 90.5387 2.11632 89.7392 1.82896C89.3943 0.456638 89.2364 -0.955914 89.2698 -2.37051C89.2698 -2.53554 89.2896 -2.69771 89.2896 -2.86273C90.1432 -2.96516 91.0111 -3.02778 91.0708 -3.88703C90.4363 -3.98946 90.0692 -4.39915 89.6993 -4.78894C89.6993 -4.80886 89.7193 -4.82877 89.7193 -4.84868C89.8607 -5.25256 90.0877 -5.62105 90.3848 -5.92897C90.6819 -6.2369 91.042 -6.47696 91.4406 -6.63264C92.0219 -6.84542 92.6586 -6.8524 93.2444 -6.6525C93.1859 -6.99742 93.1583 -7.34699 93.1619 -7.69681V-11.9646C93.0405 -11.9911 92.9157 -11.9978 92.7921 -11.9845C92.3747 -11.9204 91.9876 -11.7274 91.6853 -11.4325C91.2747 -10.9972 90.9734 -10.4707 90.8061 -9.89616C90.5716 -9.17646 90.4949 -8.41464 90.5814 -7.66264C90.5963 -7.37391 90.5009 -7.09025 90.3143 -6.86937C90.1278 -6.64848 89.8642 -6.50687 89.5771 -6.47329C89.4317 -6.45958 89.285 -6.47479 89.1454 -6.51788C89.0059 -6.56098 88.8763 -6.63116 88.7639 -6.72447C88.6516 -6.81778 88.5588 -6.93239 88.4908 -7.06164C88.4228 -7.1909 88.3811 -7.33229 88.3678 -7.47773C88.2633 -8.52017 88.3746 -9.57288 88.695 -10.5704C88.9698 -11.4912 89.4694 -12.3293 90.1489 -13.0088C90.5851 -13.4426 91.1089 -13.7783 91.6853 -13.9932C91.7587 -13.9681 91.8354 -13.9537 91.913 -13.9505C91.9528 -13.9932 91.9727 -14.0331 92.0154 -14.0729C92.2003 -14.1294 92.3913 -14.1637 92.5844 -14.1753C92.7735 -14.194 92.9635 -14.2016 93.1534 -14.1981V-14.2578C93.0504 -14.324 92.9599 -14.4077 92.886 -14.5053C92.7202 -14.5057 92.5549 -14.5258 92.3938 -14.5651C92.8866 -15.0131 93.4474 -15.3799 94.0554 -15.6519C96.0214 -14.7301 98.0074 -16.4515 97.3928 -12.3743C98.1524 -12.8189 98.9393 -13.2152 99.7487 -13.5608C101.86 -12.2918 104.051 -11.2049 107.656 -13.0486C107.678 -13.0287 107.698 -13.0287 107.718 -13.0088C107.97 -12.7588 108.197 -12.4844 108.395 -12.1894C108.222 -11.9249 108.032 -11.672 107.826 -11.4325C108.105 -11.5321 108.39 -11.6138 108.68 -11.6772C108.869 -11.323 109.026 -10.9526 109.149 -10.5704C109.46 -9.57085 109.571 -8.52012 109.476 -7.47773C109.445 -7.1904 109.302 -6.92688 109.079 -6.74322C108.855 -6.55956 108.569 -6.47017 108.281 -6.49427C107.993 -6.51837 107.726 -6.65395 107.536 -6.87215C107.346 -7.09035 107.249 -7.37401 107.266 -7.66264C107.342 -8.41467 107.266 -9.17443 107.041 -9.89616C106.867 -10.4729 106.558 -10.9996 106.139 -11.4325C105.847 -11.7307 105.465 -11.9246 105.052 -11.9845C104.929 -11.9978 104.805 -11.9911 104.685 -11.9646V-8.8349C103.925 -9.46938 102.227 -9.14215 102.409 -10.7212L102.446 -10.6985ZM105.86 -1.43734C105.778 0.875815 105.061 3.49913 104.241 4.21613C104.024 4.41157 103.893 4.6853 103.878 4.97717C103.862 5.26904 103.963 5.5552 104.159 5.77252C104.354 5.98985 104.628 6.12062 104.92 6.13609C105.212 6.15157 105.498 6.05048 105.715 5.85504C106.782 4.93319 107.724 2.12778 107.991 -0.515428C107.422 -0.782878 106.7 -1.07031 105.86 -1.43734ZM92.6271 3.60152C92.264 3.66642 91.9175 3.80301 91.6078 4.00329C91.298 4.20358 91.0314 4.46359 90.8232 4.76808C91.0187 5.17764 91.29 5.54653 91.6228 5.85504C91.8401 6.05048 92.1261 6.15157 92.418 6.13609C92.7098 6.12062 92.9836 5.98985 93.179 5.77252C93.3744 5.5552 93.4755 5.26904 93.4601 4.97717C93.4446 4.6853 93.3138 4.41157 93.0965 4.21613C92.9045 4.04098 92.7455 3.83279 92.6271 3.60152ZM91.2728 -25.0156C92.1264 -24.3413 92.4109 -23.5019 91.5402 -23.2544C91.2816 -23.3636 91.0016 -23.413 90.7213 -23.3987C90.4409 -23.3844 90.1675 -23.3069 89.9213 -23.1719C89.3448 -22.1964 89.0274 -21.0896 88.9994 -19.9568C88.9994 -18.483 89.1644 -17.1913 89.7989 -16.2068C90.1623 -15.5827 90.7257 -15.0994 91.398 -14.8354C91.5203 -15.4045 91.93 -16.1869 92.2515 -16.8839C92.008 -16.9839 91.8005 -17.1556 91.6568 -17.3762C91.3097 -17.9452 91.2074 -18.85 91.2074 -19.9568C91.2074 -21.4107 92.2117 -22.8874 93.2758 -23.8889C93.4797 -24.09 93.6984 -24.2755 93.9302 -24.4437C94.1173 -24.5957 94.3161 -24.7327 94.5248 -24.8534C94.5447 -24.8534 94.5675 -24.8733 94.5874 -24.8932C94.0939 -25.139 93.6268 -25.4346 93.1933 -25.7752C93.9302 -25.8777 94.5447 -25.9374 95.0569 -25.9801C95.0454 -26.1013 95.0106 -26.2191 94.9545 -26.3272C94.8098 -26.5839 94.5712 -26.7744 94.2889 -26.8588C94.0066 -26.9432 93.7025 -26.9148 93.4407 -26.7796V-26.7568C93.1351 -26.6077 92.8486 -26.4224 92.5872 -26.2049C92.2929 -25.9906 92.0126 -25.7578 91.7479 -25.5078L91.2557 -25.0156H91.2728ZM93.916 -18.6053C93.9985 -18.4005 94.0611 -18.1956 94.1408 -17.9907C93.916 -17.9907 93.6712 -18.0107 93.4038 -18.0306C93.564 -18.2294 93.7351 -18.4194 93.916 -18.5996V-18.6053ZM106.762 -14.9777C106.819 -14.9983 106.874 -15.026 106.924 -15.0602C106.782 -15.1029 106.66 -15.1626 106.515 -15.2053C106.602 -15.1349 106.685 -15.0589 106.762 -14.9777ZM106.065 -25.5505C105.967 -25.4826 105.889 -25.3899 105.839 -25.2818C105.789 -25.1738 105.769 -25.0544 105.78 -24.9359C105.228 -26.2248 104.409 -26.643 103.527 -26.8393C103.67 -26.8902 103.823 -26.9111 103.974 -26.9008C104.126 -26.8905 104.274 -26.8493 104.409 -26.7796L104.429 -26.7568C104.727 -26.6021 105.008 -26.4172 105.268 -26.2049C105.549 -26.0049 105.816 -25.7862 106.068 -25.5505H106.065ZM104.856 -23.6242C105.67 -22.8371 106.259 -21.8471 106.563 -20.7563C108.119 -21.1034 108.179 -22.1476 107.812 -23.3995C107.481 -23.9599 107.089 -24.4819 106.643 -24.9559C106.643 -24.9506 106.641 -24.9455 106.637 -24.9418C106.633 -24.938 106.628 -24.9359 106.623 -24.9359C105.721 -24.8107 105.251 -24.2587 104.861 -23.6242H104.856ZM104.856 -17.3648C103.433 -18.0391 100.779 -18.1842 98.2379 -18.0818C98.401 -18.3499 98.5317 -18.6365 98.6276 -18.9353C97.0314 -18.7305 95.9646 -17.9936 94.1834 -17.9737C94.983 -18.4232 95.7795 -19.5699 96.2917 -20.7592C96.771 -21.0991 97.3154 -21.3364 97.8907 -21.4562C97.9243 -21.71 98.0485 -21.943 98.2404 -22.1124C98.4323 -22.2818 98.6789 -22.3762 98.9349 -22.3781C99.1897 -22.3793 99.4358 -22.2856 99.6252 -22.1152C99.8146 -21.9447 99.9337 -21.7098 99.9592 -21.4562C101.231 -21.1888 102.193 -20.4917 102.358 -19.6324C103.427 -19.1827 104.309 -18.379 104.856 -17.3562V-17.3648ZM105.328 -16.2267C105.251 -16.1639 105.168 -16.1087 105.081 -16.0617C105.163 -16.0219 105.246 -15.9991 105.328 -15.9593V-16.2267ZM103.997 -15.4272C103.359 -15.1 102.685 -14.7927 102.028 -14.5053C102.949 -13.8282 103.851 -13.0515 104.486 -12.9889C105.101 -13.3161 105.285 -13.7457 105.183 -14.1781H104.714V-14.2379C104.816 -14.3042 104.905 -14.388 104.978 -14.4855H105.081C104.822 -14.8987 104.448 -15.2271 104.005 -15.43L103.997 -15.4272Z" fill="#DDB748"/>
<path d="M251.931 -27.0043C251.99 -27.0441 252.033 -27.064 252.093 -27.1066C252.296 -27.1841 252.514 -27.2124 252.73 -27.1892C252.423 -26.8193 252.161 -26.8392 251.931 -27.0043ZM253.097 -27.064C253.3 -26.9415 253.464 -26.7639 253.57 -26.5518C253.653 -26.3564 253.748 -26.1664 253.854 -25.9828C253.693 -25.8805 253.503 -25.835 253.313 -25.8535C253.123 -25.8721 252.945 -25.9537 252.807 -26.0853C252.932 -26.403 253.027 -26.7316 253.092 -27.0668L253.097 -27.064ZM254.267 -25.3028C254.629 -24.7729 255.079 -24.309 255.598 -23.9314C256.228 -23.4985 256.95 -23.2179 257.707 -23.112V-27.9858C258.443 -27.781 259.203 -27.5562 259.92 -27.3514V-23.112C260.677 -23.2179 261.399 -23.4985 262.028 -23.9314C262.926 -24.6083 263.627 -25.513 264.057 -26.5518C264.089 -26.5976 264.116 -26.6462 264.14 -26.6969C264.741 -26.6197 265.351 -26.6476 265.943 -26.7795C266.065 -26.6188 266.141 -26.428 266.163 -26.2274C266.184 -26.0269 266.151 -25.8243 266.066 -25.6414C265.472 -24.2487 264.517 -23.0397 263.3 -22.1389C263.135 -22.0365 262.993 -21.934 262.828 -21.8316C263.616 -21.2686 264.297 -20.5679 264.837 -19.7632C263.468 -20.1124 262.134 -20.5887 260.853 -21.1858C260.873 -20.981 260.893 -20.796 260.916 -20.6309C260.609 -20.6935 260.301 -20.7334 260.034 -20.776C260.014 -20.7334 259.994 -20.7134 259.994 -20.6935C259.965 -20.6901 259.936 -20.6972 259.912 -20.7135V-20.5285C259.482 -19.675 258.99 -18.9921 258.62 -18.3377C258.409 -18.2829 258.226 -18.1509 258.108 -17.9679C257.924 -18.1189 257.783 -18.315 257.698 -18.5369V-18.9267C257.866 -19.2661 257.997 -19.6229 258.088 -19.9908C257.958 -19.9747 257.828 -19.9681 257.698 -19.9709V-20.7078C257.349 -20.6275 257.012 -20.5042 256.694 -20.3407C256.654 -20.3606 256.634 -20.4005 256.614 -20.4204C257.268 -20.8102 257.945 -20.705 258.606 -20.7505C257.152 -22.1418 256.762 -24.1903 254.161 -24.1078C254.093 -24.3045 254.065 -24.5131 254.079 -24.7209C254.093 -24.9286 254.15 -25.1314 254.244 -25.317L254.267 -25.3028ZM267.787 -11.4751C268.051 -10.0012 268.256 -8.42407 268.402 -6.7435C268.402 -6.76342 268.379 -6.76337 268.379 -6.76337C267.295 -6.04637 269.517 -3.71054 267.764 -4.08042C267.457 -3.63087 267.929 -3.54825 268.094 -3.75311C268.299 -3.56817 268.461 -3.38331 268.646 -3.19837C268.646 -3.05611 268.666 -2.93379 268.666 -2.78868C267.417 -3.13864 266.066 -3.17842 268.072 -4.50998C267.534 -4.25871 266.956 -4.10641 266.364 -4.06041C266.322 -4.85992 266.262 -5.61671 266.2 -6.37354C267.409 -7.83029 268.515 -9.20178 266.629 -10.7382C266.587 -10.5298 266.504 -10.3318 266.385 -10.1559C266.266 -9.98006 266.113 -9.82981 265.935 -9.71389C265.927 -9.76304 265.913 -9.8109 265.892 -9.85615H265.81C265.609 -11.2717 265.324 -12.674 264.956 -14.0557C264.834 -14.4882 264.711 -14.9092 264.566 -15.3076C264.751 -15.4299 264.936 -15.5523 265.098 -15.6746C265.559 -14.4015 265.846 -13.0723 265.952 -11.7226C266.527 -11.4805 267.157 -11.395 267.776 -11.4751H267.787ZM268.729 -1.17255C268.769 0.324034 268.789 1.8605 268.789 3.43675C268.045 3.43752 267.303 3.52043 266.578 3.68418V2.3327C267.295 2.35262 268.114 2.39247 268.544 1.92301C268.422 1.83492 268.291 1.75876 268.154 1.69545C268.606 0.978455 268.032 -0.475471 268.723 -1.17255H268.729ZM266.535 -0.577943C268.052 -1.60222 267.275 -2.13428 266.433 -2.85411C266.475 -2.1172 266.495 -1.33762 266.535 -0.577943ZM259.92 -5.06485V-4.67502C259.183 -4.8372 258.443 -5.0648 257.707 -5.22698V-6.78615C258.276 -6.3992 259.058 -6.02932 259.92 -5.07902V-5.06485ZM258.546 4.9134C258.506 4.89349 258.466 4.89351 258.443 4.87075L258.506 4.81087C258.526 4.85071 258.546 4.87072 258.546 4.9134ZM257.707 -7.93271V-10.943C259.263 -9.95852 261.047 -8.29975 258.711 -7.44049C258.355 -7.5569 258.017 -7.72257 257.707 -7.93271ZM257.707 -15.9819V-17.8057C257.852 -17.6406 257.991 -17.4586 258.136 -17.2736C258.013 -16.9077 257.978 -16.5177 258.034 -16.1356L257.707 -15.9904V-15.9819ZM251.951 -10.8007C251.808 -9.94714 251.683 -9.03674 251.581 -8.09498C250.864 -8.60711 250.443 -9.34405 251.336 -10.963C251.561 -10.9032 251.766 -10.8605 251.951 -10.8007ZM250.659 4.66584C250.46 4.83851 250.205 4.93347 249.942 4.93327C249.838 4.93972 249.734 4.92616 249.635 4.8934C249.985 4.79097 250.332 4.72843 250.659 4.66584ZM249.103 -5.29241C249.145 -5.88706 249.205 -6.45898 249.248 -7.03372C249.45 -6.49762 249.527 -5.92246 249.473 -5.35215C249.347 -5.35362 249.221 -5.33342 249.103 -5.29241ZM253.655 -20.8415C254.279 -21.112 254.784 -21.5991 255.077 -22.2129C255.382 -22.1736 255.659 -22.02 255.854 -21.7833C256.124 -21.8768 256.408 -21.9249 256.694 -21.9255C254.986 -23.5245 253.336 -23.9542 251.635 -25.428C252.226 -24.1133 253.151 -22.9763 254.318 -22.1304C254.483 -22.0279 254.625 -21.9256 254.79 -21.8231C254.379 -21.5348 253.998 -21.2059 253.652 -20.8415H253.655ZM278.522 -1.60503C278.361 -1.67452 278.183 -1.69528 278.01 -1.66477V-5.8045C278.034 -5.85376 278.062 -5.9013 278.092 -5.94676C278.072 -5.98581 278.044 -6.02066 278.01 -6.04928V-6.37646C278.864 -4.92255 278.81 -3.36621 278.647 -1.74729C279.129 -2.0181 279.671 -2.16561 280.223 -2.17685V4.02566C280.222 4.31483 280.113 4.59308 279.916 4.80532C279.793 4.86059 279.677 4.92921 279.569 5.0101C279.302 5.03001 279.034 5.06986 278.77 5.09262C278.669 5.05618 278.574 5.00751 278.485 4.94758C278.363 4.82523 278.26 4.70286 278.138 4.55775C278.053 4.39344 278.01 4.21063 278.013 4.02566V0.255754C278.383 -0.292719 278.563 -0.947307 278.525 -1.60781L278.522 -1.60503ZM280.229 -4.00067V-4.04332C280.154 -4.11928 280.086 -4.2012 280.024 -4.28811C279.978 -4.21916 279.944 -4.14325 279.922 -4.06333L280.229 -4.00067ZM278.237 -25.4081C278.974 -25.3255 279.731 -25.2459 280.514 -25.1435C280.328 -24.7928 280.23 -24.4022 280.229 -24.0054V-22.6966C279.512 -22.6141 278.775 -22.5515 278.016 -22.4917V-24.0054C278.014 -24.4888 278.091 -24.9691 278.243 -25.428L278.237 -25.4081ZM285.018 -24.4464L285.325 -24.3838C285.223 -22.6767 286.179 -21.6183 286.022 -20.759C285.775 -20.759 285.51 -20.759 285.262 -20.7391C285.231 -20.761 285.203 -20.7879 285.18 -20.8188V-20.7163H285.058V-23.994C285.064 -24.1459 285.051 -24.298 285.018 -24.4464ZM285.302 -15.4327C285.834 -15.28 286.354 -15.0898 286.859 -14.8637C285.874 -16.0331 286.346 -16.6277 287.268 -17.0972V-14.4142C286.558 -14.4083 285.85 -14.3263 285.157 -14.1695C285.131 -14.5949 285.18 -15.0216 285.302 -15.4299V-15.4327Z" fill="#DDB748"/>
<path fill-rule="evenodd" clip-rule="evenodd" d="M48.0571 -18.8927C47.8726 -19.0409 47.7013 -19.2046 47.545 -19.3821C47.7726 -21.2685 47.9774 -23.1719 49.0415 -24.219C49.4212 -23.8763 49.8406 -23.5801 50.2906 -23.3369C50.1749 -21.6332 49.404 -20.0405 48.1396 -18.8927H54.4531C55.8576 -18.4287 57.1487 -17.6745 58.2429 -16.6791H50.9705C50.7457 -18.3379 48.04 -17.5185 47.5279 -18.8927H48.0571ZM50.2906 -24.7311C50.1924 -24.7552 50.0971 -24.7895 50.0061 -24.8335C49.6581 -24.6951 49.3388 -24.4935 49.0643 -24.2389C49.4727 -24.0736 49.8897 -23.9302 50.3134 -23.8093V-23.9913C50.3134 -24.2389 50.3133 -24.4836 50.2934 -24.7311H50.2906ZM61.9275 -18.8927H65.0572C65.3507 -18.8927 65.6322 -18.7761 65.8398 -18.5685C66.0473 -18.361 66.164 -18.0794 66.164 -17.7859C66.164 -17.4924 66.0473 -17.2109 65.8398 -17.0033C65.6322 -16.7958 65.3507 -16.6791 65.0572 -16.6791H64.9975C64.0777 -17.5522 63.044 -18.2968 61.9246 -18.8927H61.9275ZM45.7638 -16.6791H42.526C42.856 -17.766 42.4663 -18.4403 41.6469 -18.8927H38.3065C38.7589 -18.1331 39.1885 -17.3762 39.7006 -16.6791H42.5032C42.8731 -18.1017 44.6343 -18.153 45.7211 -18.8927H45.8235C45.8435 -18.1131 46.4978 -17.9481 46.6429 -17.2937C44.3668 -17.0262 44.8591 -16.9238 45.761 -16.6791H45.7638ZM32.5308 -16.6791H31.1082C30.8146 -16.6791 30.533 -16.7958 30.3255 -17.0033C30.1179 -17.2109 30.0013 -17.4924 30.0013 -17.7859C30.0013 -18.0794 30.1179 -18.361 30.3255 -18.5685C30.533 -18.7761 30.8146 -18.8927 31.1082 -18.8927H38.2354C37.6208 -17.0263 33.0912 -19.0748 32.397 -17.2937C32.4368 -17.0689 32.4767 -16.8641 32.5194 -16.6791H32.5308ZM52.3591 -10.7042C52.4615 -9.9872 52.524 -9.2475 52.5638 -8.49068H54.6352C54.1337 -9.13855 53.796 -9.89786 53.6508 -10.7042H52.3591ZM49.3887 -8.49345C47.9023 -9.40482 46.2128 -9.93273 44.4721 -10.0298C43.7352 -8.67837 41.2571 -8.67833 40.5799 -9.98997C40.1104 -9.96721 39.658 -9.9275 39.1885 -9.90759C39.2284 -9.86491 39.2483 -9.82498 39.2711 -9.80506L39.5556 -9.8648C39.5386 -9.74057 39.5119 -9.61785 39.4758 -9.49775C39.7006 -9.19047 39.9453 -8.84057 40.1701 -8.49345H49.3887ZM34.9691 3.55313C34.0268 3.84084 33.1193 4.2321 32.2632 4.7197C32.488 3.77793 32.7157 2.81346 32.2235 1.50466C31.8536 1.89161 31.4866 2.26149 31.0854 2.64275V4.66844C31.1047 4.95561 31.2275 5.22609 31.431 5.42961C31.6346 5.63314 31.9049 5.75594 32.1921 5.77526H39.0206C39.1705 5.78287 39.3204 5.76 39.4611 5.70788C39.6019 5.65577 39.7305 5.57552 39.8393 5.47213C39.9481 5.36873 40.0346 5.24438 40.0938 5.10647C40.153 4.96856 40.1835 4.82003 40.1835 4.66996C40.1835 4.51989 40.153 4.37136 40.0938 4.23346C40.0346 4.09555 39.9481 3.97105 39.8393 3.86766C39.7305 3.76427 39.6019 3.68416 39.4611 3.63204C39.3204 3.57993 39.1705 3.55692 39.0206 3.56453L34.9691 3.55313ZM31.0968 -7.40663C31.3813 -7.77651 31.6658 -8.16631 31.9759 -8.54472C31.6627 -8.46746 31.3653 -8.33644 31.0968 -8.15767V-7.41803V-7.40663ZM31.3613 -10.2745C32.1409 -10.1123 32.838 -9.92745 33.5351 -9.78519C35.0914 -10.3172 36.073 -9.7027 36.9493 -9.51776C37.2566 -9.53768 37.5639 -9.5576 37.911 -9.60028C38.0252 -9.66738 38.1345 -9.7425 38.2382 -9.82506C37.7061 -9.80515 37.1542 -9.76246 36.5994 -9.74254C36.6274 -10.0691 36.5856 -10.3978 36.477 -10.707H32.2092C32.0444 -10.6991 31.8832 -10.6566 31.7361 -10.5821C31.589 -10.5075 31.4593 -10.4027 31.3556 -10.2745H31.3613ZM57.9925 5.76387C57.6056 5.12939 56.8545 4.94447 56.0464 4.86196V4.65718C56.0461 4.51187 56.0744 4.36789 56.1299 4.2336C56.1855 4.0993 56.267 3.97723 56.3699 3.87461C56.4727 3.77199 56.595 3.69083 56.7294 3.63566C56.8638 3.58048 57.008 3.55238 57.1533 3.55313H62.8693V-8.49345H55.1672C55.7191 -9.4153 57.9328 -8.71827 58.3823 -9.74254C58.3624 -10.0498 58.3625 -10.3769 58.3625 -10.707H63.9761C64.2631 -10.6871 64.533 -10.5642 64.7364 -10.3608C64.9398 -10.1574 65.0629 -9.88725 65.0828 -9.60028V1.03231H64.713C64.4683 1.994 64.7129 2.45495 65.0828 2.77362V4.65718C65.0635 4.94436 64.9406 5.2147 64.7371 5.41822C64.5336 5.62175 64.2633 5.74455 63.9761 5.76387H57.9925Z" fill="#DDB748"/>
<path fill-rule="evenodd" clip-rule="evenodd" d="M330.757 -22.8875V-21.3909L330.512 -21.2685C330.546 -21.2599 330.58 -21.2533 330.615 -21.2486C331.363 -21.8566 332.261 -22.25 333.215 -22.3867C332.786 -23.7183 331.599 -24.8848 331.209 -23.6756C332.766 -22.8789 331.679 -23.061 330.757 -22.8789V-22.8875ZM335.594 -26.6972L335.389 -27.5365C335.184 -27.6588 334.999 -27.7812 334.82 -27.9064C333.966 -27.9661 333.039 -27.8836 332.299 -28.1511C332.752 -27.0443 332.567 -26.2448 332.055 -25.6103C332.593 -25.6091 333.13 -25.6712 333.653 -25.7953C333.683 -26.0727 333.738 -26.3468 333.816 -26.6146C334.383 -26.6694 334.954 -26.6827 335.523 -26.6545C335.543 -26.6773 335.563 -26.6972 335.585 -26.6972H335.594ZM312.548 5.50779C312.465 5.42528 312.403 5.34279 312.3 5.24036C311.768 5.48505 310.704 4.13353 309.432 2.92432C309.199 3.82754 308.848 4.69618 308.388 5.50779H312.548ZM303.921 -1.25237C303.184 -1.31496 302.427 -1.35487 301.69 -1.39755V4.33845C301.696 4.52444 301.745 4.70664 301.833 4.87054C302.16 5.05548 302.467 5.26033 302.774 5.43958H302.794C302.942 5.44184 303.088 5.41497 303.225 5.36053C303.362 5.30609 303.487 5.22509 303.593 5.12227C303.699 5.01946 303.783 4.89683 303.841 4.76134C303.9 4.62585 303.931 4.48021 303.932 4.33275V-1.25806L303.921 -1.25237ZM323.894 -22.1705C323.621 -22.0923 323.374 -21.943 323.177 -21.738C322.503 -24.6885 321.376 -27.3117 320.29 -29.9749H324.796L326.333 -23.7666H323.894V-22.1705ZM326.785 -18.4717L326.538 -18.0392C325.841 -18.5513 325.269 -19.146 325.473 -20.2926C326.024 -19.7757 326.469 -19.1574 326.785 -18.4717ZM322.708 -9.1081C322.665 -9.08819 322.645 -9.06828 322.606 -9.04836L322.586 -9.06823C322.625 -9.08815 322.665 -9.08819 322.708 -9.1081ZM301.813 -11.1766C301.842 -11.0086 301.889 -10.8444 301.955 -10.6871C301.873 -10.6644 301.77 -10.6445 301.69 -10.6246V-11.2192C301.73 -11.1993 301.77 -11.1993 301.813 -11.1766ZM302.382 -9.02558C302.744 -9.68367 303.226 -10.2676 303.804 -10.7469H303.927V-10.3372C303.432 -9.52914 302.919 -9.1394 302.385 -9.03697L302.382 -9.02558Z" fill="#DDB748"/>
<path fill-rule="evenodd" clip-rule="evenodd" d="M138.173 29.311H140.182C140.475 29.3133 140.755 29.4306 140.962 29.6377C141.169 29.8447 141.287 30.1249 141.289 30.4177C141.297 30.5286 141.282 30.64 141.246 30.745C140.233 30.4262 139.179 30.2537 138.116 30.2328C138.136 29.9255 138.176 29.6183 138.176 29.311H138.173ZM141.289 34.3698C141.293 34.4595 141.285 34.5494 141.266 34.6372L140.959 34.5149C141.059 34.4461 141.171 34.3968 141.289 34.3698ZM138.808 35.4766H137.559V38.7969C137.144 37.331 137.067 35.7901 137.334 34.2902C137.903 34.7397 138.338 35.0669 138.808 35.4766ZM148.641 32.5261H149.401C149.184 33.2494 149.114 34.0089 149.196 34.7596C147.844 34.6372 148.254 33.6955 148.641 32.5261ZM149.318 35.8038C148.396 36.3159 147.611 36.7257 146.942 37.0756H146.88C146.88 37.0809 146.882 37.0859 146.886 37.0897C146.889 37.0934 146.894 37.0955 146.9 37.0955C146.797 37.1353 146.718 37.1781 146.635 37.2179V35.2917C147.509 35.5556 148.408 35.7272 149.318 35.8038Z" fill="#DDB748"/>
<path d="M257.194 31.9741H259.92C260.033 32.3569 260.184 32.7276 260.37 33.0809H257.317C257.299 32.7098 257.258 32.3401 257.194 31.9741ZM262.583 31.9741H262.745C262.835 31.9741 262.923 31.9966 263.002 32.0393C263.081 32.082 263.148 32.1436 263.198 32.2188C263.135 32.2814 263.095 32.3441 263.033 32.4038C262.89 32.2616 262.748 32.1192 262.583 31.9741ZM256.088 35.1494H259.877C259.6 35.3523 259.306 35.5302 258.998 35.6814C258.926 35.5363 258.864 35.3862 258.813 35.2319C258.096 35.212 257.96 35.5392 258.056 36.0087C257.317 36.1538 256.634 35.929 256.088 35.1551V35.1494ZM254.574 53.3816C254.799 53.5864 255.063 53.8311 255.371 54.0986C255.76 54.4258 255.985 54.6107 256.068 54.6932C256.167 54.7883 256.251 54.8988 256.315 55.0203H258.628C257.851 55.5894 257.317 56.4742 256.662 57.2339H255.393C254.779 56.0246 254.389 54.6733 254.574 53.3816ZM260.33 55.0203H260.37C260.566 55.0187 260.76 55.0698 260.93 55.1684C261.1 55.2671 261.24 55.4097 261.337 55.5812C261.433 55.7527 261.481 55.9469 261.477 56.1436C261.472 56.3402 261.415 56.532 261.311 56.699C261.042 56.1078 260.713 55.5454 260.33 55.0203ZM239.742 38.3446H241.258C241.235 38.6219 241.27 38.901 241.361 39.164C240.804 38.9247 240.264 38.6511 239.742 38.3446ZM243.981 36.5208V36.2561H240.664C241.49 35.9352 242.297 35.5657 243.079 35.1494H243.981V34.9445C244.183 35.0552 244.374 35.1858 244.55 35.3343C244.96 36.0314 244.59 36.3159 243.981 36.5208ZM234.251 32.6713V32.5261C234.253 32.4245 234.283 32.3255 234.337 32.2395C234.391 32.1534 234.467 32.0835 234.558 32.0368C234.578 32.0882 234.605 32.1362 234.64 32.179C234.498 32.3441 234.373 32.5062 234.251 32.6713ZM252.668 56.571C251.931 56.3861 252.218 55.8142 252.648 55.0147H250.517C250.599 55.6292 250.579 56.0788 250.517 56.1215C250.415 55.6952 250.186 55.3095 249.862 55.0147H246.234C248.653 55.6491 251.623 57.2055 252.668 56.571ZM252.81 54.7274C253.242 53.9278 253.754 52.9461 253.629 51.9219C253.507 51.8194 253.385 51.6971 253.262 51.5719C252.625 51.4736 251.981 51.4261 251.336 51.4297C251.333 51.5051 251.339 51.5807 251.356 51.6544C251.376 51.7144 251.376 51.7794 251.356 51.8393C251.478 53.1709 251.951 53.9079 252.81 54.7274ZM245.981 52.9263C245.096 53.4707 244.294 54.1417 243.603 54.918C243.962 54.7691 244.354 54.7123 244.741 54.7529C245.287 54.2502 245.708 53.6266 245.97 52.932L245.981 52.9263Z" fill="#DDB748"/>
<path d="M282.249 50.0411L282.309 49.9814C282.331 49.9814 282.331 50.0014 282.331 50.0213C282.331 50.0412 282.309 50.0639 282.289 50.0838C282.269 50.1037 282.269 50.0639 282.249 50.0411ZM287.678 46.2514C288.46 45.9416 289.268 45.7017 290.093 45.5344C290.216 45.5532 290.339 45.5608 290.463 45.5572C290.178 48.3227 288.702 47.7081 287.35 47.1959C287.527 46.9089 287.639 46.5864 287.678 46.2514ZM300.214 37.69C299.969 37.3628 299.847 36.8906 299.847 36.1935C300.174 36.3785 300.461 36.5207 300.7 36.6459L301.417 37.69H300.214ZM290.77 47.6854C291.187 47.2719 291.69 46.9568 292.244 46.7635C292.472 47.048 292.696 47.3182 292.941 47.5828C292.736 47.5629 292.531 47.563 292.327 47.563C291.805 47.5641 291.285 47.6051 290.77 47.6854ZM287 26.4231C287.051 26.6242 287.058 26.8336 287.02 27.0376C286.756 27.7119 287.205 27.877 287.697 28.0192C287.13 28.1403 286.602 28.4014 286.161 28.7789C285.711 28.409 285.361 27.9594 285.444 27.3563C285.413 27.3515 285.384 27.3365 285.361 27.3136C285.751 27.0689 286.161 26.8441 286.551 26.6393C286.696 26.5616 286.846 26.4931 287 26.4343V26.4231ZM285.609 29.5157C285.137 29.0434 284.687 28.5541 284.215 28.1216C283.717 28.5031 283.242 28.9134 282.792 29.3507C283.089 29.56 283.435 29.6876 283.797 29.7207C282.374 30.8587 281.87 30.8587 282.505 32.4236C282.668 32.4067 282.833 32.4001 282.997 32.4037C283.713 31.5127 284.524 30.7026 285.416 29.9881C285.458 29.8239 285.521 29.6654 285.601 29.5157H285.609ZM281.552 52.3572V52.4596C281.469 52.3771 281.41 52.2747 281.347 52.2149C281.41 52.2548 281.489 52.3174 281.552 52.3572ZM284.707 37.69C285.054 37.4055 285.404 37.0756 285.791 36.8081C286.076 37.0926 286.36 37.3771 286.645 37.69H284.707ZM290.565 37.69C290.564 37.6788 290.565 37.6675 290.569 37.6567C290.572 37.6459 290.578 37.6359 290.585 37.6275C290.632 37.652 290.681 37.6728 290.73 37.69H290.565Z" fill="#DDB748"/>
<path fill-rule="evenodd" clip-rule="evenodd" d="M336.063 34.3101L335.941 34.1877C336.083 34.145 336.248 34.1052 336.413 34.0625C336.331 34.145 336.228 34.2276 336.146 34.3101H341.575C341.281 34.7631 341.047 35.2517 340.877 35.7639C340.038 35.9489 339.034 36.1339 338.277 36.5208H334.322C334.854 35.8465 335.429 34.9246 335.039 34.3698L335.449 34.3101H336.063ZM333.195 44.7122C333.912 44.2228 334.333 43.5741 333.764 42.4816H334.766C337.164 42.8287 339.355 43.3209 340.237 44.7122H333.195Z" fill="#DDB748"/>
<path d="M40.796 33.7979H52.0431C52.3359 33.8001 52.6162 33.9174 52.8233 34.1245C53.0304 34.3315 53.1477 34.6117 53.1499 34.9045C53.1503 35.0499 53.1219 35.1938 53.0664 35.3281C53.0109 35.4624 52.9294 35.5845 52.8265 35.6871C52.7236 35.7897 52.6014 35.8709 52.4669 35.9261C52.3325 35.9812 52.1884 36.0093 52.0431 36.0086H48.8764C49.5735 34.1877 45.8263 37.2377 45.2914 34.842C45.1292 35.3342 44.9841 35.8037 44.7394 36.0086H44.1704C43.8233 35.394 43.8034 34.7794 44.1505 33.8376C44.5204 35.2118 39.5839 35.2118 39.9509 33.8376C40.2299 33.8907 40.5176 33.8771 40.7903 33.7979H40.796ZM22.1143 33.7979C24.0803 34.145 26.1289 34.5148 28.2201 34.677C28.2435 34.7238 28.2635 34.7724 28.2798 34.8222C28.9617 34.5911 29.62 34.2958 30.2459 33.9401C30.082 33.852 29.8998 33.8033 29.7138 33.7979H22.1143ZM52.8825 38.5921C51.3062 39.0416 49.38 39.144 48.6146 40.413H52.0289C52.2404 40.4142 52.4477 40.3544 52.6261 40.2408C52.8046 40.1273 52.9465 39.9649 53.035 39.7728C53.1235 39.5807 53.1549 39.3673 53.1253 39.1579C53.0957 38.9485 53.0065 38.7521 52.8683 38.5921H52.8825ZM47.1067 42.6066C46.9844 42.709 46.882 42.729 46.882 42.6066H36.6192C36.3263 42.6089 36.0462 42.7262 35.8391 42.9332C35.632 43.1403 35.5147 43.4206 35.5125 43.7134V43.7732C37.8683 43.5086 41.0237 44.6124 43.112 43.6109C43.3567 44.0605 43.5615 44.4503 43.7265 44.8174H52.0431C52.1929 44.825 52.3429 44.802 52.4836 44.7498C52.6243 44.6977 52.753 44.6176 52.8618 44.5142C52.9705 44.4108 53.0571 44.2863 53.1163 44.1484C53.1755 44.0105 53.206 43.862 53.206 43.7119C53.206 43.5619 53.1755 43.4133 53.1163 43.2754C53.0571 43.1375 52.9705 43.0131 52.8618 42.9098C52.753 42.8064 52.6243 42.7261 52.4836 42.674C52.3429 42.6219 52.1929 42.599 52.0431 42.6066H47.1067ZM37.8881 40.413C38.0634 40.3015 38.1881 40.1258 38.2353 39.9235C38.1329 39.8609 38.0105 39.7785 37.8881 39.7188C37.0787 39.6891 36.281 39.5156 35.5324 39.2065C35.516 39.2381 35.5092 39.2736 35.5125 39.3089C35.5147 39.6015 35.6321 39.8815 35.8392 40.0882C36.0464 40.2948 36.3266 40.4115 36.6192 40.413H37.8881ZM30.6358 38.7058C29.859 38.7656 29.7565 38.5607 29.8789 38.2335C29.8255 38.2171 29.7696 38.2104 29.7138 38.2136H28.1775C28.0208 38.8912 27.9728 39.5894 28.0352 40.2821C28.5139 40.215 29.0018 40.2638 29.4578 40.4244H29.7225C29.8678 40.4251 30.0117 40.397 30.1462 40.3418C30.2806 40.2867 30.4028 40.2055 30.5057 40.1029C30.6086 40.0003 30.6901 39.8782 30.7456 39.7439C30.8012 39.6096 30.8297 39.4656 30.8293 39.3203C30.8314 39.1014 30.7668 38.8872 30.6442 38.7058H30.6358ZM49.033 47.0224C49.8865 47.4122 51.0245 47.5345 52.5353 47.267C52.3421 47.9382 52.1027 48.5952 51.8184 49.2331H52.0431C52.1929 49.2407 52.3429 49.2177 52.4836 49.1656C52.6243 49.1135 52.753 49.0334 52.8618 48.93C52.9705 48.8266 53.0571 48.7021 53.1163 48.5642C53.1755 48.4263 53.206 48.2778 53.206 48.1277C53.206 47.9776 53.1755 47.8291 53.1163 47.6912C53.0571 47.5533 52.9705 47.4289 52.8618 47.3255C52.753 47.2221 52.6243 47.1419 52.4836 47.0898C52.3429 47.0377 52.1929 47.0148 52.0431 47.0224H49.033ZM37.9081 49.2331C37.9707 48.5161 37.6834 47.9641 36.5965 47.267C36.8214 47.1488 37.0631 47.0662 37.3134 47.0224H36.6192C36.4693 47.0148 36.3195 47.0377 36.1788 47.0898C36.0381 47.1419 35.9094 47.2221 35.8006 47.3255C35.6919 47.4289 35.6053 47.5533 35.5461 47.6912C35.4869 47.8291 35.4564 47.9776 35.4564 48.1277C35.4564 48.2778 35.4869 48.4263 35.5461 48.5642C35.6053 48.7021 35.6919 48.8266 35.8006 48.93C35.9094 49.0334 36.0381 49.1135 36.1788 49.1656C36.3195 49.2177 36.4693 49.2407 36.6192 49.2331H37.9081ZM30.5959 48.7836C29.5517 48.6811 27.9328 48.5161 28.8347 47.0224H27.5828C27.5691 47.2209 27.5768 47.4202 27.6056 47.617C26.9285 46.7634 25.9866 47.9243 25.2497 47.3325C25.34 47.2373 25.4219 47.1345 25.4945 47.0252H15.2517C15.2274 47.2165 15.1931 47.4064 15.1492 47.5942C14.9883 47.369 14.7866 47.176 14.5546 47.0252H14.31C14.1645 47.0241 14.0203 47.0517 13.8855 47.1064C13.7508 47.1612 13.6281 47.2422 13.5247 47.3446C13.4214 47.4469 13.3393 47.5686 13.2831 47.7027C13.227 47.8369 13.1978 47.9809 13.1974 48.1263C13.1943 48.3046 13.2364 48.4808 13.3198 48.6384C13.3822 48.7147 13.4373 48.7967 13.4847 48.8832C13.589 48.9957 13.7159 49.0848 13.8572 49.1446C13.9984 49.2045 14.1509 49.2336 14.3043 49.2302H29.6997C29.8723 49.2336 30.0432 49.1944 30.197 49.116C30.3509 49.0376 30.483 48.9223 30.5817 48.7807L30.5959 48.7836ZM28.4848 44.8287C28.4449 44.8088 28.4022 44.8088 28.3624 44.7889L28.3226 44.8287H28.4848ZM26.6212 44.8287C26.7435 44.604 26.8658 44.3792 27.0109 44.1544C25.7818 43.5996 24.6125 43.0676 23.5085 42.618H17.5051C16.6857 43.6821 15.9687 44.6467 15.1891 44.8287H26.6212ZM14.822 44.8287H14.31C14.1405 44.8293 13.9729 44.7943 13.8177 44.7262C14.0852 44.6466 14.3498 44.5641 14.6173 44.4617C14.6372 44.3394 14.6371 44.237 14.657 44.1345C15.2716 43.7447 15.5789 43.5996 14.822 44.8287ZM46.2019 38.3245C46.191 38.3352 46.184 38.3492 46.182 38.3644C46.2479 38.4287 46.3096 38.4972 46.367 38.5693C46.3044 38.4896 46.2645 38.407 46.2019 38.3245ZM17.9119 39.4313C17.3059 39.7988 16.6768 40.1267 16.0285 40.413H15.3512C15.3836 40.3686 15.4113 40.3209 15.4337 40.2707C15.0041 39.5736 14.4721 38.8992 13.9799 38.242C14.0808 38.2189 14.1837 38.2057 14.2872 38.2022H18.0769C17.9661 38.6025 17.9106 39.016 17.9119 39.4313ZM13.3596 39.9235C13.4635 40.0769 13.6041 40.2019 13.7686 40.2874C13.933 40.3728 14.1161 40.4161 14.3013 40.413C14.0168 40.2707 13.6868 40.0658 13.3596 39.9235ZM14.8533 36.0086C14.896 35.3542 15.0184 34.7595 15.6329 34.677C16 35.3741 16.4096 35.8151 16.862 36.0086H14.8533ZM18.3786 36.0086C19.198 35.6814 19.9946 34.8704 20.6718 33.8376C20.6833 34.1014 20.7558 34.3591 20.8837 34.5901C21.0115 34.8212 21.1912 35.0194 21.4087 35.1692C21.0089 35.3955 20.6438 35.6783 20.3246 36.0086H18.3786ZM24.2368 36.0086H23.3549C23.4626 35.9412 23.5652 35.866 23.6621 35.7838C23.6414 35.5463 23.5411 35.3227 23.3775 35.1493C23.6114 35.0231 23.8261 34.864 24.0149 34.677C24.0425 35.1271 24.1159 35.5733 24.234 36.0086H24.2368Z" fill="#DDB748"/>
<path d="M-11.2264 51.0655C-11.3693 52.5885 -11.6716 54.0924 -12.1283 55.5524C-12.5171 55.3081 -12.9288 55.1023 -13.3575 54.9377C-13.3575 56.6193 -13.972 57.4387 -14.9138 57.783C-14.5425 58.2578 -14.0515 58.6251 -13.4911 58.8471C-13.5737 59.1146 -13.6363 59.3593 -13.6961 59.6068H-16.3194V57.3733C-15.4175 57.3733 -14.763 56.369 -14.2708 54.935C-13.9227 53.8612 -13.6761 52.7571 -13.5339 51.6373C-13.5834 51.6532 -13.6311 51.6742 -13.6762 51.6999C-13.8553 51.7722 -14.0411 51.8265 -14.2309 51.8621C-14.3105 51.8861 -14.3926 51.9004 -14.4756 51.9047C-13.4712 51.5547 -12.262 51.3926 -11.2378 51.0511L-11.2264 51.0655ZM-12.3332 56.1271H-12.5181C-12.5347 56.283 -12.5414 56.4398 -12.5381 56.5965C-12.4615 56.4438 -12.3931 56.2871 -12.3332 56.1271ZM-12.4556 57.376C-12.4556 57.4159 -12.4356 57.4785 -12.4356 57.5183C-10.8793 58.6052 -10.5919 57.8882 -9.24041 57.376H-9.75263C-10.0599 57.6833 -10.3217 57.6008 -10.6062 57.376H-12.4556ZM1.30966 52.8068C1.38365 51.3957 1.56138 49.992 1.84161 48.6071C1.98672 47.7678 2.12622 46.9485 2.21157 46.2742C2.2275 46.1582 2.23411 46.0411 2.23144 45.9241C2.83958 45.3152 3.57382 44.8471 4.38244 44.5527C4.40235 44.6352 4.40239 44.7149 4.42231 44.7974C4.48833 45.3649 4.48155 45.9386 4.4023 46.5045C4.31979 47.3239 4.17752 48.1434 4.03526 49.0027C3.72798 50.7098 3.39798 52.5278 3.58291 54.1866C3.39798 54.1041 3.19313 54.0217 2.94844 53.9391C2.81984 53.7534 2.73315 53.5419 2.69434 53.3194C2.65553 53.0969 2.66551 52.8685 2.72365 52.6502C2.27185 52.8279 1.78127 52.8839 1.30105 52.8125L1.30966 52.8068ZM0.612528 44.3279C0.466273 43.8197 0.377466 43.2968 0.347874 42.7688C1.20144 42.8114 2.39653 42.4018 1.30966 41.9722C1.10481 41.9722 0.919773 41.992 0.714917 42.0119C-0.821498 42.5041 -0.186988 45.2071 -2.17295 45.2896C-2.29529 44.9823 -2.44038 44.6751 -2.58264 44.3678L-4.26129 46.4363C-4.28405 46.1916 -4.30403 45.9668 -4.32394 45.7193C-4.34386 45.5343 -4.38655 45.3523 -4.40647 45.1673C-5.10354 45.2498 -6.11361 44.8601 -6.69973 44.8402C-6.63998 45.2072 -6.57729 45.597 -6.53746 45.9782C-6.49478 46.2229 -6.47485 46.4904 -6.45494 46.755C-5.6156 47.5744 -4.17886 47.802 -2.56277 47.8418L-0.286603 45.0563C-0.203193 44.949 -0.113923 44.8464 -0.01917 44.749C0.168742 44.5737 0.382795 44.4289 0.615307 44.3195L0.612528 44.3279ZM5.61152 58.6678C4.5724 58.918 3.51857 59.1024 2.45622 59.2199C2.47338 59.3491 2.47999 59.4793 2.47609 59.6096H4.56735C4.82407 59.5995 5.06911 59.4998 5.2599 59.3277C5.45068 59.1556 5.57511 58.9221 5.61152 58.6678ZM2.02666 59.6096C2.02666 59.5071 2.04653 59.4047 2.04653 59.3023C1.9441 59.4246 1.86154 59.5271 1.78187 59.6096H2.02666ZM0.367879 59.6096L0.182829 59.4873L-0.923859 59.6096H0.367879ZM-17.2469 38.5921C-17.3067 38.6178 -17.3623 38.6523 -17.4119 38.6945C-17.4318 38.4896 -17.4717 38.3046 -17.4944 38.0997C-17.4034 38.2594 -17.3207 38.4238 -17.2469 38.5921ZM-16.9396 48.7921C-16.1202 48.5275 -15.3832 48.1776 -14.5638 47.9528V47.8901C-14.5439 47.6853 -14.524 47.5231 -14.5013 47.3581C-14.524 47.378 -14.5639 47.3781 -14.5838 47.4009C-15.1528 46.9485 -15.3434 46.2314 -15.2609 45.3295C-15.4686 45.0845 -15.5781 44.7713 -15.5682 44.4503C-15.4857 45.4945 -15.9153 45.8729 -16.6323 45.9042V45.9669C-16.6323 46.1916 -16.6523 46.4789 -16.6751 46.8061C-16.6978 47.1333 -16.7347 47.4407 -16.7547 47.6256C-16.7746 47.8106 -16.7974 47.9528 -16.8173 48.0552C-16.8308 48.2148 -16.8583 48.3729 -16.8997 48.5275C-16.9034 48.6169 -16.9168 48.7056 -16.9396 48.7921ZM-3.78908 29.2483C-3.80727 29.2803 -3.82059 29.3148 -3.82881 29.3507C-3.79106 29.3291 -3.75661 29.3024 -3.72642 29.2711C-3.73435 29.2627 -3.74417 29.2563 -3.75504 29.2523C-3.76591 29.2484 -3.77759 29.2469 -3.78908 29.2483ZM-15.6905 33.0809C-16.4701 33.061 -17.0847 33.2658 -17.924 33.1833C-17.9439 33.3881 -17.924 33.593 -17.924 33.7979C-17.1245 33.9202 -16.3677 34.0425 -15.6905 34.1876C-15.6905 33.8177 -15.7104 33.4479 -15.6905 33.0809ZM-17.9041 32.2415C-17.7647 32.1913 -17.616 32.1726 -17.4685 32.1863C-17.321 32.2001 -17.1783 32.2462 -17.0506 32.3212C-16.5173 31.991 -16.0743 31.5334 -15.7616 30.9896C-15.9597 30.8851 -16.1743 30.8157 -16.3961 30.7847V31.0323C-16.5714 30.9682 -16.7425 30.8931 -16.9083 30.8075C-17.3579 30.9697 -17.5854 31.4619 -17.87 31.8717C-17.87 31.994 -17.8928 32.1163 -17.8928 32.2415H-17.9041ZM-10.3643 34.4123C-9.99516 33.982 -9.5834 33.5903 -9.13525 33.243C-9.25143 33.2386 -9.36768 33.2462 -9.48228 33.2658C-9.52701 33.1041 -9.56119 32.9397 -9.58467 32.7736C-9.73522 32.0454 -9.76312 31.2972 -9.66719 30.5599C-9.97448 30.2128 -10.2817 29.863 -10.5691 29.476C-10.8664 30.6136 -10.9082 31.8028 -10.6915 32.9585C-10.609 33.408 -10.4867 33.8576 -10.3643 34.2901V34.4123ZM-15.7531 30.008C-16.0377 29.5157 -16.2226 29.1687 -16.3222 29.8032C-16.1289 29.861 -15.9389 29.9293 -15.7531 30.008ZM-16.3051 59.5982V57.3648C-17.4147 57.3762 -17.4148 59.6096 -16.308 59.6096L-16.3051 59.5982Z" fill="#DDB748"/>
<path d="M217.768 37.4653C217.871 37.3156 218.009 37.1928 218.169 37.1072C218.329 37.0216 218.508 36.9756 218.69 36.9731C218.983 36.9754 219.263 37.0928 219.47 37.2999C219.677 37.507 219.794 37.7871 219.797 38.08V38.9335C219.036 38.5701 218.349 38.0705 217.768 37.4596V37.4653ZM219.797 40.4956V43.3408C219.02 43.0136 218.28 42.6636 217.586 42.3364V39.1013C218.214 39.7189 218.968 40.1935 219.797 40.4927V40.4956ZM219.797 47.9329V49.4694C219.364 49.5923 218.911 49.6271 218.465 49.5718C218.196 49.1841 217.903 48.8143 217.586 48.465V46.8659C217.975 46.8658 218.365 46.8459 218.752 46.8062C218.485 47.8106 219.08 47.913 219.797 47.9443V47.9329ZM211.665 55.4927C212.319 54.6392 212.669 53.7714 212.464 52.6646C212.703 52.4064 212.979 52.1857 213.284 52.0101V48.3825C213.284 47.8703 213.261 47.3184 213.241 46.7636C212.504 46.7436 211.767 46.7237 211.008 46.7237C211.05 47.2557 211.07 47.8306 211.07 48.4025V53.2791H209.309C209.293 53.237 209.264 53.2011 209.227 53.1767C209.042 52.9718 208.857 52.7471 208.675 52.5223C208.325 52.8694 207.978 53.1567 207.608 52.9519C208.06 52.3971 207.628 52.3971 207.115 52.4398C207.173 53.3511 207.389 54.2454 207.753 55.083C206.973 55.2253 206.276 55.3476 205.662 55.4927H211.665ZM206.501 47.2416C206.688 48.4348 207.047 49.5945 207.568 50.6843C206.886 50.3874 206.296 49.9128 205.861 49.3101C205.514 49.5775 205.801 50.1294 206.128 50.6415C205.817 50.6227 205.506 50.6574 205.206 50.7441C204.839 49.8598 204.564 48.9395 204.387 47.9983C205.066 47.684 205.771 47.4308 206.495 47.2416H206.501ZM186.22 55.4927C186.016 55.2217 185.797 54.9614 185.566 54.7131C186.704 52.9092 188.576 55.3475 187.882 53.0059C188.311 53.3559 188.735 53.6632 189.151 53.0885C188.883 52.8438 188.619 52.639 188.351 52.4341C187.819 52.5365 187.307 52.5963 186.775 52.6589C187.06 52.8637 187.344 53.0686 187.654 53.2934H181.859C180.453 53.5388 179.126 54.1141 177.986 54.972C177.961 55.0578 177.926 55.1408 177.884 55.2196C177.855 55.1854 177.821 55.1574 177.781 55.1371C177.639 55.2594 177.514 55.3817 177.391 55.5069L186.22 55.4927ZM189.35 53.2393C189.69 53.8291 190.195 54.306 190.804 54.6107C190.642 54.1611 190.477 53.7087 190.312 53.2791H189.39L189.35 53.2393ZM213.113 35.7242C212.808 35.6284 212.491 35.5729 212.171 35.5591C212.703 33.9004 212.786 33.1407 212.74 32.1791C213.265 32.477 213.771 32.8057 214.257 33.1635C214.398 33.2678 214.512 33.4035 214.591 33.5598C214.669 33.7162 214.71 33.8889 214.71 34.064C214.71 34.2391 214.669 34.4117 214.591 34.568C214.512 34.7244 214.398 34.8603 214.257 34.9645C213.89 35.232 213.5 35.4766 213.119 35.7242H213.113ZM203.363 30.2727C203.178 30.4178 202.993 30.5799 202.794 30.725C203.408 30.8673 204.023 31.0096 204.597 31.1746C205.007 31.297 205.451 31.4222 205.866 31.5644C205.078 31.0415 204.233 30.6083 203.348 30.2727H203.363ZM196.233 38.3047C196.057 38.5026 195.849 38.669 195.618 38.797C195.542 38.6395 195.453 38.4883 195.353 38.3446C194.799 38.3645 194.215 38.3645 193.646 38.3645C193.012 38.3645 192.377 38.3644 191.763 38.3246C191.455 38.4071 191.194 38.4669 190.909 38.5295C191.566 39.2266 192.571 39.5537 193.635 40.1683C192.468 40.7203 190.46 40.3532 189.128 39.4513C188.963 39.7154 188.878 40.0219 188.883 40.3333C188.963 40.3533 189.045 40.3533 189.128 40.3732C189.144 40.214 189.172 40.0562 189.211 39.9009C189.514 40.1242 189.844 40.3105 190.192 40.4557C191.319 40.5392 192.466 40.58 193.635 40.5781C195.006 40.5781 196.361 40.5383 197.669 40.4131C197.795 39.6563 197.732 38.9904 197.077 38.7742C199.206 40.0033 201.687 38.5295 205.169 39.0815C206.091 38.8169 206.97 38.5494 207.832 38.2421C206.979 37.71 205.107 37.9348 204.134 37.5052C204.158 37.3457 204.192 37.1879 204.236 37.0329C201.616 37.7262 198.933 38.1524 196.227 38.3047H196.233ZM179.104 50.6871C179.127 50.3182 179.12 49.9481 179.084 49.5803C178.55 49.5604 177.978 49.5604 177.403 49.5604C177.327 49.555 177.251 49.5652 177.179 49.5906C177.107 49.6159 177.041 49.6558 176.985 49.7077C176.929 49.7596 176.885 49.8224 176.855 49.8923C176.824 49.9622 176.808 50.0376 176.808 50.1138C176.808 50.19 176.824 50.2653 176.855 50.3352C176.885 50.4051 176.929 50.4679 176.985 50.5198C177.041 50.5718 177.107 50.6118 177.179 50.6371C177.251 50.6624 177.327 50.6727 177.403 50.6672C177.998 50.6672 178.541 50.6672 179.11 50.6871H179.104ZM179.514 49.6003C180.314 50.2775 181.07 50.3371 182.157 49.8051C181.281 49.6842 180.398 49.6197 179.514 49.6117V49.6003Z" fill="#DDB748"/>
<path fill-rule="evenodd" clip-rule="evenodd" d="M96.0756 41.3975L90.5445 40.0659V44.6353L95.1338 43.5485L95.1537 43.5285C94.898 43.3979 94.6575 43.2396 94.4367 43.0563C94.6415 42.4417 95.2903 41.8271 96.0756 41.3975ZM100.343 43.5684L100.998 43.4261C100.793 43.4261 100.588 43.4659 100.383 43.4858C100.363 43.5092 100.349 43.5377 100.343 43.5684ZM102.759 43.7334C102.205 45.0905 101.901 46.5362 101.86 48.0012V50.118C102.474 50.5477 103.169 50.8976 102.822 52.2889C102.514 52.2064 102.187 52.1268 101.86 52.0443V56.6933C103.129 57.1855 102.412 57.985 101.86 58.7618V60.3608C102.165 60.5105 102.488 60.6204 102.822 60.688C102.523 60.8415 102.206 60.959 101.88 61.0379H105.894V48.0069C105.85 46.6107 105.566 45.2325 105.055 43.9325C104.705 43.9922 104.378 44.0549 104.031 44.0947C103.903 43.9891 103.757 43.9064 103.601 43.8501C103.603 44.1517 103.623 44.4528 103.661 44.752C103.469 44.3337 103.154 43.9835 102.759 43.7476V43.7334ZM106.742 43.4261L109.94 44.183V42.914L117.19 44.6211V40.0517L110.185 41.7304C109.095 42.4016 107.942 42.9648 106.742 43.4119V43.4261ZM109.283 25.8284C108.732 24.5024 107.751 23.4001 106.498 22.6987C105.693 22.2391 104.781 21.9997 103.854 22.0045C103.152 22.0114 102.457 22.1504 101.806 22.4142C101.479 23.5522 100.668 24.6448 99.0829 24.6675C99.0203 24.77 98.9379 24.8724 98.8781 24.9749C99.4945 25.3864 100.154 25.7299 100.844 25.9992C101.206 25.4377 101.693 24.9673 102.267 24.6249C102.752 24.3639 103.292 24.2234 103.843 24.2152C104.395 24.2181 104.938 24.3589 105.422 24.6249C106.167 25.0497 106.763 25.6934 107.129 26.4686C107.943 25.9508 108.532 25.6492 109.289 25.8284H109.283Z" fill="#DDB748"/>
<path d="M81.1213 55.1426H76.8193C76.8281 54.1472 76.5431 53.1712 75.9999 52.3371C75.574 52.4057 75.1556 52.5153 74.7508 52.6644V38.0172H71.7605C71.4734 37.9979 71.2029 37.8751 70.9994 37.6716C70.7958 37.4681 70.673 37.1976 70.6537 36.9104V24.3545H67.1314V58.6677H70.1814C69.7754 59.391 69.1714 59.9833 68.4402 60.3748C68.7032 60.6153 69.0188 60.7908 69.362 60.887H68.0732C66.9038 60.5399 65.9221 60.0477 64.9177 59.8429V54.2491C65.5522 54.0044 66.0245 53.6573 65.942 53.111C65.6061 53.1896 65.2627 53.2316 64.9177 53.2362V23.2477C64.937 22.9605 65.0598 22.69 65.2634 22.4865C65.4669 22.283 65.7374 22.1602 66.0246 22.1409H71.7605C72.0519 22.157 72.3274 22.278 72.5366 22.4814C72.7457 22.6848 72.8744 22.957 72.8986 23.2477V32.4235C72.8161 32.506 72.7535 32.5886 72.6738 32.6711C71.9768 32.6711 71.2996 32.5487 70.8302 32.0565C70.9326 33.1007 71.2398 33.7636 71.6694 34.1448C71.6694 34.1647 71.6894 34.1875 71.6894 34.2075C71.6523 34.291 71.631 34.3807 71.6268 34.472C70.9923 35.4763 71.9569 35.3256 72.3239 34.8021C72.507 34.8661 72.699 34.9006 72.8929 34.9045V35.8036H75.8633C76.1503 35.8235 76.4204 35.9465 76.6238 36.1499C76.8272 36.3533 76.9502 36.6234 76.9701 36.9104V52.9318H82.2537C82.5406 52.9505 82.811 53.0726 83.0146 53.2757C83.2181 53.4787 83.3411 53.7489 83.3605 54.0357V57.7033C82.7934 57.8474 82.2487 58.0686 81.7416 58.3605C81.6213 58.1467 81.4771 57.9471 81.3119 57.7658C81.3151 58.0516 81.2942 58.3371 81.2494 58.6193C81.2095 58.6193 81.1696 58.5995 81.127 58.5995V57.2053C81.5566 57.1456 82.0488 57.3305 82.009 57.7174C83.5454 56.9805 81.5566 57.0004 81.127 56.2237V55.5892C81.1896 55.4868 81.2294 55.3843 81.3119 55.2591C81.2575 55.3106 81.195 55.3529 81.127 55.3843V55.1369L81.1213 55.1426ZM75.3255 58.6677C74.3468 59.7489 73.0713 60.5178 71.6582 60.8784H78.0911C79.0528 60.6138 79.8722 60.5512 80.4241 60.1614C79.4625 59.5668 77.7412 59.5669 76.6344 59.0775C76.6514 58.9391 76.679 58.802 76.7169 58.6677H75.3255ZM83.0874 60.429C82.773 60.3012 82.4719 60.1429 82.1882 59.9566L82.248 60.8784C82.4127 60.8717 82.5738 60.8278 82.7192 60.7499C82.8646 60.6721 82.9904 60.5624 83.0874 60.429Z" fill="#DDB748"/>
<path fill-rule="evenodd" clip-rule="evenodd" d="M-37.9201 13.6991H-36.1161C-36.0751 14.1958 -35.9358 14.6793 -35.7064 15.1217H-32.3491C-33.1259 14.3621 -33.2027 13.9324 -32.9011 13.6991H-26.2034C-24.8801 13.852 -23.5435 13.852 -22.2201 13.6991H-14.117C-11.9034 15.0079 -9.9772 17.1589 -7.85751 14.5783C-9.02689 14.2937 -10.1337 13.9837 -11.1153 13.6991H-6.81334C-5.8928 14.5225 -4.90593 15.2685 -3.86282 15.9297H-23.1619C-23.4464 15.6651 -23.7139 15.3778 -23.9813 15.1331C-25.0454 15.4404 -26.0897 15.7021 -27.0741 15.9297H-43.0926C-42.9681 15.5182 -42.7511 15.1406 -42.4581 14.8258C-41.4964 14.5584 -40.5319 14.271 -39.5702 13.9239C-39.0177 13.905 -38.4687 13.8297 -37.9315 13.6991H-37.9201ZM2.98847 13.6991H7.16808C5.57191 13.9837 4.46509 14.7832 2.86608 15.1217C1.69954 14.7319 2.37391 14.2682 2.98847 13.6991ZM9.79129 13.6991H12.1871C12.1757 13.8997 12.1412 14.0983 12.0845 14.291C11.3383 14.0196 10.5674 13.8213 9.78281 13.6991H9.79129ZM12.8015 13.6991H19.5021C19.7677 13.9882 20.1345 14.1636 20.5263 14.1886C20.5152 14.0243 20.4944 13.8609 20.4638 13.6991H36.4624C36.6497 14.5592 37.1014 15.3391 37.7541 15.9297H32.6526C32.2553 15.6137 31.8216 15.3463 31.3609 15.1331C31.3503 15.4012 31.316 15.6677 31.2585 15.9297H27.3064C26.0773 14.9055 23.2292 14.8656 20.7624 15.9297H13.7349C13.4702 15.2753 12.9154 14.5072 12.8129 13.6991H12.8015ZM43.7973 13.6991H68.932C69.2341 14.2139 69.3572 14.8142 69.2819 15.4063C69.3177 15.5746 69.3243 15.7477 69.3018 15.9183H62.7863C61.8369 15.3945 60.7224 15.256 59.6737 15.5314C59.7475 15.6542 59.8094 15.7837 59.8586 15.9183H44.7789C44.5955 15.1195 44.2624 14.3626 43.7973 13.6877V13.6991ZM69.629 13.6991H75.4475C75.5927 13.9458 75.7947 14.1543 76.0367 14.3072C76.2787 14.4601 76.5537 14.553 76.8389 14.5783C76.912 14.3803 77.0257 14.1999 77.1727 14.0485C77.3197 13.8971 77.4967 13.7781 77.6924 13.6991H79.4536C80.6429 13.9637 81.9118 14.5783 82.6914 14.5783C82.8963 14.2937 83.0783 13.9837 83.2434 13.6991H91.008C90.8629 14.3934 90.5556 15.0079 90.9056 15.9297H71.5866C70.7593 15.3575 70.0844 14.5917 69.6205 13.6991H69.629ZM94.3141 13.6991H121.19C120.228 14.0861 119.326 14.5384 118.857 15.9297H96.2602C95.3782 14.2511 94.5531 13.9837 94.3141 13.6991ZM133.402 13.6991H137.641C137.618 14.465 137.459 15.2205 137.169 15.9297H130.656C131.786 15.4983 132.748 14.7167 133.402 13.6991ZM166.75 13.6991H169.004C169.476 14.1686 170.091 14.2682 170.91 13.6991H185.68C185.802 14.2113 185.475 14.7235 184.826 15.2555C185.259 15.4199 185.666 15.647 186.032 15.9297H176.037C174.93 15.1331 173.272 13.2894 172.41 15.4177C172.564 15.4297 172.713 15.4838 172.839 15.5741C172.966 15.6643 173.065 15.7872 173.127 15.9297H166.014C166.281 15.1729 166.506 14.4161 166.75 13.6991ZM187.606 13.6991H195.063C196.087 14.5982 197.339 15.1729 198.81 14.3535C199.124 14.6764 199.41 15.0258 199.664 15.3978C200.483 15.173 201.055 14.5585 201.465 13.6907H202.634C202.776 14.4276 203.001 15.1132 203.923 15.3294C204.294 14.7276 204.741 14.1767 205.255 13.6907H205.787C204.498 16.8858 208.532 15.0819 208.882 15.9213H204.148C204.006 15.2868 203.781 15.0677 203.493 15.9213H203.084C203.064 15.7392 203.044 15.5116 203.021 15.2868C202.846 15.4706 202.707 15.6858 202.611 15.9213H198.884C198.947 15.7164 199.026 15.4517 199.152 15.1245C197.388 15.1644 196.079 15.4319 195.114 15.9213H189.666C189.606 15.8956 189.55 15.8611 189.501 15.8189C189.59 15.8089 189.679 15.8089 189.768 15.8189C189.523 15.4718 189.276 15.1246 189.051 14.7946C188.547 14.4618 188.065 14.0959 187.609 13.6991H187.606ZM197.664 13.6991C197.95 13.7802 198.226 13.8969 198.483 14.0463C198.342 13.9197 198.192 13.8036 198.034 13.6991H197.664ZM239.312 13.6991H239.844C239.903 13.7481 239.957 13.8023 240.006 13.8613C240.291 14.1685 239.926 14.4958 239.722 14.803C239.618 14.4236 239.481 14.0542 239.312 13.6991ZM247.848 13.6991H249.139C249.239 13.8593 249.295 14.0427 249.301 14.2312C249.916 14.2312 249.998 13.9467 249.856 13.6991H251.515C251.802 14.407 251.942 15.166 251.925 15.9297H249.139C248.48 15.344 248.028 14.562 247.848 13.6991ZM272.39 13.6991H280.297C281.187 14.3542 282.004 15.1019 282.735 15.9297H274.621C274.64 15.7673 274.647 15.6039 274.644 15.4404C272.717 14.7234 272.572 16.607 270.376 15.5002C271.565 14.4162 272.18 14.0263 272.385 13.6991H272.39ZM244.712 15.9297H243.873C243.84 15.8103 243.826 15.6864 243.833 15.5627C244.115 15.7094 244.409 15.8322 244.712 15.9297ZM95.4351 15.9297C95.2873 15.6279 95.1229 15.3344 94.9429 15.0506C94.0893 15.3351 93.2358 15.6452 92.3822 15.9297H95.4351Z" fill="#DDB748"/>
</g>
<defs>
<clipPath id="clip0_1_428">
<rect width="492" height="477.415" fill="white" transform="translate(-102 -202.708)"/>
</clipPath>
</defs>
</svg>
