<svg width="22" height="22" viewBox="0 0 22 22" fill="none" xmlns="http://www.w3.org/2000/svg">
<path d="M11.0166 1.96488C13.9465 1.96488 14.2935 1.97579 15.451 2.02823C16.1469 2.03669 16.8362 2.16368 17.4889 2.40366C17.9623 2.58506 18.3921 2.86294 18.7509 3.21941C19.1096 3.57589 19.3893 4.00306 19.5718 4.47343C19.8133 5.12204 19.9411 5.80701 19.9496 6.49854C20.0019 7.6487 20.0134 7.99349 20.0134 10.905C20.0134 13.8165 20.0024 14.1613 19.9496 15.3114C19.9411 16.003 19.8133 16.6879 19.5718 17.3365C19.3893 17.8069 19.1096 18.2341 18.7509 18.5906C18.3921 18.947 17.9623 19.2249 17.4889 19.4063C16.8362 19.6463 16.1469 19.7733 15.451 19.7817C14.294 19.8337 13.9471 19.8451 11.0166 19.8451C8.08615 19.8451 7.73918 19.8342 6.58225 19.7817C5.88633 19.7733 5.19703 19.6463 4.54431 19.4063C4.07096 19.2249 3.64108 18.947 3.28235 18.5906C2.92361 18.2341 2.64397 17.8069 2.46142 17.3365C2.21992 16.6879 2.09213 16.003 2.08362 15.3114C2.03136 14.1613 2.01987 13.8165 2.01987 10.905C2.01987 7.99349 2.03084 7.6487 2.08362 6.49854C2.09213 5.80701 2.21992 5.12204 2.46142 4.47343C2.64397 4.00306 2.92361 3.57589 3.28235 3.21941C3.64108 2.86294 4.07096 2.58506 4.54431 2.40366C5.19703 2.16368 5.88633 2.03669 6.58225 2.02823C7.7397 1.9763 8.08667 1.96488 11.0166 1.96488ZM11.0166 0C8.03808 0 7.66289 0.0124622 6.49237 0.0654268C5.58159 0.0834284 4.68048 0.254791 3.82737 0.572225C3.09553 0.846221 2.43268 1.2756 1.88505 1.83039C1.32623 2.37477 0.893768 3.03383 0.617865 3.76152C0.29842 4.60926 0.125972 5.5047 0.107857 6.40975C0.0556015 7.57185 0.0430603 7.94468 0.0430603 10.9045C0.0430603 13.8642 0.0556015 14.2371 0.108902 15.4002C0.127017 16.3053 0.299465 17.2007 0.618911 18.0484C0.894508 18.776 1.32661 19.4351 1.88505 19.9796C2.43298 20.5345 3.09621 20.9639 3.82841 21.2377C4.68153 21.5552 5.58264 21.7265 6.49342 21.7445C7.66393 21.7965 8.03755 21.81 11.0177 21.81C13.9978 21.81 14.3714 21.7975 15.5419 21.7445C16.4527 21.7265 17.3538 21.5552 18.2069 21.2377C18.9356 20.9571 19.5974 20.5283 20.1499 19.979C20.7023 19.4296 21.1334 18.7717 21.4154 18.0474C21.7348 17.1997 21.9072 16.3042 21.9254 15.3992C21.9776 14.2371 21.9902 13.8642 21.9902 10.9045C21.9902 7.94468 21.9776 7.57185 21.9243 6.40871C21.9062 5.50366 21.7338 4.60823 21.4143 3.76048C21.1387 3.03289 20.7066 2.37384 20.1482 1.82935C19.6002 1.27443 18.937 0.845048 18.2048 0.571186C17.3517 0.253752 16.4506 0.08239 15.5398 0.0643883C14.3703 0.0124623 13.9951 0 11.0166 0Z" fill="#FFC947"/>
<path d="M11.0142 5.30078C9.89965 5.30078 8.81014 5.6292 7.88344 6.2445C6.95674 6.85981 6.23447 7.73436 5.80795 8.75757C5.38144 9.78078 5.26984 10.9067 5.48728 11.9929C5.70471 13.0792 6.24141 14.0769 7.02951 14.8601C7.8176 15.6432 8.82169 16.1765 9.91481 16.3926C11.0079 16.6087 12.141 16.4978 13.1707 16.0739C14.2004 15.6501 15.0805 14.9324 15.6997 14.0115C16.3189 13.0906 16.6494 12.008 16.6494 10.9005C16.6494 9.41535 16.0557 7.99105 14.9989 6.9409C13.9421 5.89075 12.5087 5.30078 11.0142 5.30078ZM11.0142 14.5353C10.2907 14.5353 9.58352 14.3221 8.98199 13.9227C8.38046 13.5233 7.91162 12.9556 7.63477 12.2915C7.35791 11.6273 7.28547 10.8965 7.42661 10.1914C7.56775 9.48628 7.91613 8.83862 8.42769 8.33028C8.93925 7.82194 9.59101 7.47575 10.3006 7.3355C11.0101 7.19525 11.7456 7.26724 12.414 7.54235C13.0824 7.81746 13.6536 8.28334 14.0556 8.88109C14.4575 9.47883 14.672 10.1816 14.672 10.9005C14.672 11.8645 14.2866 12.789 13.6007 13.4707C12.9147 14.1524 11.9843 14.5353 11.0142 14.5353Z" fill="#FFC947"/>
<path d="M16.8736 6.39442C17.6008 6.39442 18.1904 5.80856 18.1904 5.08588C18.1904 4.3632 17.6008 3.77734 16.8736 3.77734C16.1463 3.77734 15.5567 4.3632 15.5567 5.08588C15.5567 5.80856 16.1463 6.39442 16.8736 6.39442Z" fill="#FFC947"/>
</svg>
