<svg width="100" height="100" viewBox="0 0 100 100" fill="none" xmlns="http://www.w3.org/2000/svg">
<g clip-path="url(#clip0_8_490)">
<path d="M1.96606 35.4915C1.64556 35.3995 1.3007 35.5 1.07984 35.7498C0.858984 35.9996 0.801515 36.3542 0.932158 36.661C7.03385 50.2034 17.7966 64.7457 31.3559 72.8813C22.7271 72.758 14.1964 74.7235 6.49148 78.6102C6.14371 78.8469 5.93558 79.2403 5.93558 79.661C5.93558 80.0817 6.14371 80.4751 6.49148 80.7118C15.2881 85.0339 25.8983 87.4915 35.7627 85.9661C33.5867 89.4314 32.0911 93.2798 31.3559 97.3051C31.3126 97.6243 31.4437 97.9423 31.6993 98.1384C31.9549 98.3345 32.296 98.3787 32.5932 98.2542C38.9152 96.2712 45.3559 92.1356 48.2881 85.9661V98.3051C48.2881 99.2411 49.0469 100 49.983 100C50.9191 100 51.6779 99.2411 51.6779 98.3051V85.9661C54.6101 92.1186 61.0508 96.2712 67.3728 98.2542C67.67 98.3787 68.0111 98.3345 68.2667 98.1384C68.5224 97.9423 68.6534 97.6243 68.6101 97.3051C67.8801 93.2809 66.3903 89.4327 64.2203 85.9661C74.0677 87.5085 84.6779 85.0339 93.4915 80.7118C93.8392 80.4751 94.0474 80.0817 94.0474 79.661C94.0474 79.2403 93.8392 78.8469 93.4915 78.6102C85.7917 74.7261 77.2671 72.7607 68.644 72.8813C82.0678 64.7966 92.9322 50.2712 99.1525 36.661C99.2831 36.3542 99.2257 35.9996 99.0048 35.7498C98.784 35.5 98.4391 35.3995 98.1186 35.4915C83.3898 40.3051 67.4237 49.8305 57.9322 62.7966H57.8474C63.1864 42.7966 59.0169 19 50.8474 0.525412C50.7162 0.220851 50.4163 0.0235596 50.0847 0.0235596C49.7531 0.0235596 49.4532 0.220851 49.322 0.525412C41.1356 19.1695 37 42.8983 42.322 62.7966H42.2372C32.7457 49.9491 16.8305 40.339 1.96606 35.4915Z" fill="white"/>
</g>
<defs>
<clipPath id="clip0_8_490">
<rect width="100" height="100" fill="white"/>
</clipPath>
</defs>
</svg>
