<svg width="55" height="62" viewBox="0 0 55 62" fill="none" xmlns="http://www.w3.org/2000/svg">
<path d="M44.9672 1.74193C44.3457 0.667469 43.1888 0 41.9484 0H28.9841V15.3349H52.8291L44.9672 1.74193Z" fill="white"/>
<path d="M25.35 0H12.2634C11.0205 0 9.86367 0.66868 9.24222 1.74557L1.40927 15.3349H25.3499V0H25.35Z" fill="white"/>
<path d="M0.108246 18.969V57.7274C0.108246 60.0835 2.02589 61.9999 4.38201 61.9999H49.8285C52.1846 61.9999 54.1022 60.0835 54.1022 57.7274V18.969H0.108246ZM35.3535 35.2682L25.9556 44.6662C25.6007 45.0211 25.1354 45.1992 24.6703 45.1992C24.2052 45.1992 23.7399 45.0211 23.3862 44.6662L18.9805 40.2615C18.2718 39.5529 18.2718 38.402 18.9805 37.6922C19.6903 36.9823 20.8412 36.9823 21.551 37.6922L24.6704 40.8127L32.7843 32.6988C33.4942 31.989 34.645 31.989 35.3537 32.6988C36.0635 33.4087 36.0635 34.5584 35.3535 35.2682Z" fill="white"/>
</svg>
