<svg width="54" height="40" viewBox="0 0 54 40" fill="none" xmlns="http://www.w3.org/2000/svg">
<path d="M52.8454 19.225L48.5635 9.5375C48.4136 9.19394 48.1672 8.90125 47.8543 8.69491C47.5413 8.48857 47.1752 8.37745 46.8004 8.375H36.4348L37.0548 2.77563C37.0853 2.50381 37.0579 2.22861 36.9744 1.96813C36.8909 1.70766 36.7532 1.46781 36.5704 1.26437C36.3893 1.06366 36.1681 0.903088 35.9212 0.792972C35.6743 0.682856 35.407 0.625639 35.1367 0.625H8.45728C7.94342 0.625 7.45061 0.829129 7.08726 1.19248C6.7239 1.55583 6.51978 2.04864 6.51978 2.5625C6.51978 3.07636 6.7239 3.56917 7.08726 3.93252C7.45061 4.29587 7.94342 4.5 8.45728 4.5H18.1448C18.6586 4.5 19.1514 4.70413 19.5148 5.06748C19.8781 5.43083 20.0823 5.92364 20.0823 6.4375C20.0823 6.95136 19.8781 7.44417 19.5148 7.80752C19.1514 8.17087 18.6586 8.375 18.1448 8.375H4.58228C4.06842 8.375 3.57561 8.57913 3.21226 8.94248C2.8489 9.30583 2.64478 9.79864 2.64478 10.3125C2.64478 10.8264 2.8489 11.3192 3.21226 11.6825C3.57561 12.0459 4.06842 12.25 4.58228 12.25H23.9573C24.4711 12.25 24.9639 12.4541 25.3273 12.8175C25.6906 13.1808 25.8948 13.6736 25.8948 14.1875C25.8948 14.7014 25.6906 15.1942 25.3273 15.5575C24.9639 15.9209 24.4711 16.125 23.9573 16.125H10.3948C9.88092 16.125 9.38811 16.3291 9.02476 16.6925C8.6614 17.0558 8.45728 17.5486 8.45728 18.0625C8.45728 18.5764 8.6614 19.0692 9.02476 19.4325C9.38811 19.7959 9.88092 20 10.3948 20H18.1448C18.6586 20 19.1514 20.2041 19.5148 20.5675C19.8781 20.9308 20.0823 21.4236 20.0823 21.9375C20.0823 22.4514 19.8781 22.9442 19.5148 23.3075C19.1514 23.6709 18.6586 23.875 18.1448 23.875H2.64478C2.13092 23.875 1.63811 24.0791 1.27476 24.4425C0.911404 24.8058 0.707275 25.2986 0.707275 25.8125C0.707275 26.3264 0.911404 26.8192 1.27476 27.1825C1.63811 27.5459 2.13092 27.75 2.64478 27.75H6.51978C7.03363 27.75 7.52644 27.9541 7.88979 28.3175C8.25315 28.6808 8.45728 29.1736 8.45728 29.6875C8.45728 30.2014 8.25315 30.6942 7.88979 31.0575C7.52644 31.4209 7.03363 31.625 6.51978 31.625H4.58228C4.06842 31.625 3.57561 31.8291 3.21226 32.1925C2.8489 32.5558 2.64478 33.0486 2.64478 33.5625C2.64478 34.0764 2.8489 34.5692 3.21226 34.9325C3.57561 35.2959 4.06842 35.5 4.58228 35.5H10.1042C10.3134 36.3171 10.7116 37.0737 11.2667 37.7087C11.737 38.2347 12.3134 38.655 12.9579 38.9422C13.6024 39.2294 14.3004 39.3769 15.006 39.375C16.2 39.3409 17.3573 38.9549 18.3328 38.2656C19.3082 37.5762 20.0584 36.6141 20.4892 35.5H35.2917C35.5009 36.3171 35.8991 37.0737 36.4542 37.7087C36.9245 38.2347 37.5009 38.655 38.1454 38.9422C38.7899 39.2294 39.4879 39.3769 40.1935 39.375C41.3875 39.3409 42.5448 38.9549 43.5203 38.2656C44.4957 37.5762 45.2459 36.6141 45.6766 35.5H49.5516C50.0306 35.5029 50.4937 35.3283 50.8515 35.0098C51.2093 34.6914 51.4365 34.2517 51.4891 33.7756L52.981 20.2131C53.0341 19.8776 52.987 19.5338 52.8454 19.225ZM15.006 35.5C14.8454 35.5069 14.6852 35.4774 14.5376 35.4137C14.3899 35.3499 14.2586 35.2536 14.1535 35.1319C14.0014 34.9437 13.8902 34.726 13.8268 34.4925C13.7634 34.259 13.7493 34.0149 13.7854 33.7756C13.8349 33.2316 14.0698 32.7211 14.4507 32.3296C14.8316 31.9381 15.3355 31.6894 15.8779 31.625C16.0386 31.6181 16.1987 31.6476 16.3464 31.7113C16.494 31.7751 16.6253 31.8714 16.7304 31.9931C16.8825 32.1813 16.9938 32.399 17.0571 32.6325C17.1205 32.866 17.1346 33.1101 17.0985 33.3494C17.049 33.8934 16.8142 34.4039 16.4332 34.7954C16.0523 35.1869 15.5485 35.4356 15.006 35.5ZM40.1935 35.5C40.0329 35.5069 39.8727 35.4774 39.7251 35.4137C39.5774 35.3499 39.4461 35.2536 39.341 35.1319C39.1889 34.9437 39.0777 34.726 39.0143 34.4925C38.9509 34.259 38.9368 34.0149 38.9729 33.7756C39.0224 33.2316 39.2573 32.7211 39.6382 32.3296C40.0191 31.9381 40.523 31.6894 41.0654 31.625C41.2261 31.6181 41.3862 31.6476 41.5339 31.7113C41.6815 31.7751 41.8128 31.8714 41.9179 31.9931C42.07 32.1813 42.1813 32.399 42.2446 32.6325C42.308 32.866 42.3221 33.1101 42.286 33.3494C42.2365 33.8934 42.0017 34.4039 41.6207 34.7954C41.2398 35.1869 40.736 35.4356 40.1935 35.5ZM48.9123 21.9375H40.3485C40.0782 21.9369 39.8109 21.8796 39.564 21.7695C39.3171 21.6594 39.0959 21.4988 38.9148 21.2981C38.7319 21.0947 38.5942 20.8548 38.5108 20.5944C38.4273 20.3339 38.3999 20.0587 38.4304 19.7869L39.0698 13.9744C39.1269 13.5018 39.356 13.0668 39.7133 12.7523C40.0707 12.4378 40.5313 12.2659 41.0073 12.2694H45.5216L49.1448 20.31L48.9123 21.9375Z" fill="white"/>
</svg>
