<svg width="99" height="18" viewBox="0 0 99 18" fill="none" xmlns="http://www.w3.org/2000/svg">
<path d="M17.2727 7.24097C17.2175 7.0688 17.1127 6.91682 16.9713 6.80417C16.8299 6.69153 16.6583 6.62326 16.4782 6.60799L11.4817 6.15418L9.50497 1.52781C9.43428 1.36183 9.31634 1.22028 9.16584 1.12079C9.01534 1.02131 8.8389 0.968262 8.65849 0.968262C8.47807 0.968262 8.30164 1.02131 8.15114 1.12079C8.00063 1.22028 7.8827 1.36183 7.81201 1.52781L5.83591 6.15418L0.836825 6.60799C0.657331 6.62442 0.486597 6.69313 0.345767 6.80563C0.204938 6.91812 0.100197 7.06945 0.0445158 7.24088C-0.0111653 7.41231 -0.0153409 7.5963 0.0325059 7.77008C0.0803527 7.94386 0.17812 8.09978 0.313702 8.21855L4.09195 11.5319L2.98032 16.4394C2.93995 16.6149 2.95205 16.7984 3.01512 16.9671C3.07819 17.1358 3.18945 17.2822 3.33507 17.3882C3.48068 17.4942 3.65423 17.555 3.83414 17.5632C4.01405 17.5713 4.19239 17.5264 4.34698 17.434L8.65881 14.857L12.9687 17.434C13.1234 17.5268 13.302 17.572 13.4822 17.5641C13.6624 17.5562 13.8364 17.4954 13.9824 17.3895C14.1283 17.2835 14.2399 17.1369 14.3033 16.968C14.3666 16.7991 14.3789 16.6153 14.3386 16.4394L13.227 11.5319L17.0013 8.21921C17.1377 8.10034 17.2361 7.94391 17.2841 7.76947C17.3322 7.59502 17.3277 7.41029 17.2714 7.23835L17.2727 7.24097Z" fill="#FFC947"/>
<path d="M37.6928 7.24097C37.6376 7.0688 37.5327 6.91682 37.3914 6.80417C37.25 6.69153 37.0784 6.62326 36.8983 6.60799L31.9018 6.15418L29.925 1.52781C29.8544 1.36183 29.7364 1.22028 29.5859 1.12079C29.4354 1.02131 29.259 0.968262 29.0786 0.968262C28.8981 0.968262 28.7217 1.02131 28.5712 1.12079C28.4207 1.22028 28.3028 1.36183 28.2321 1.52781L26.256 6.15418L21.2569 6.60799C21.0774 6.62442 20.9067 6.69313 20.7658 6.80563C20.625 6.91812 20.5203 7.06945 20.4646 7.24088C20.4089 7.41231 20.4047 7.5963 20.4526 7.77008C20.5004 7.94386 20.5982 8.09978 20.7338 8.21855L24.512 11.5319L23.4004 16.4394C23.36 16.6149 23.3721 16.7984 23.4352 16.9671C23.4983 17.1358 23.6095 17.2822 23.7551 17.3882C23.9008 17.4942 24.0743 17.555 24.2542 17.5632C24.4341 17.5713 24.6125 17.5264 24.7671 17.434L29.0789 14.857L33.3888 17.434C33.5435 17.5268 33.7221 17.572 33.9023 17.5641C34.0825 17.5562 34.2564 17.4954 34.4024 17.3895C34.5484 17.2835 34.66 17.1369 34.7234 16.968C34.7867 16.7991 34.799 16.6153 34.7587 16.4394L33.6471 11.5319L37.4214 8.21921C37.5578 8.10034 37.6562 7.94391 37.7042 7.76947C37.7522 7.59502 37.7478 7.41029 37.6914 7.23835L37.6928 7.24097Z" fill="#FFC947"/>
<path d="M58.1125 7.24097C58.0574 7.0688 57.9525 6.91682 57.8111 6.80417C57.6697 6.69153 57.4982 6.62326 57.318 6.60799L52.3216 6.15418L50.3448 1.52781C50.2741 1.36183 50.1562 1.22028 50.0057 1.12079C49.8552 1.02131 49.6787 0.968262 49.4983 0.968262C49.3179 0.968262 49.1415 1.02131 48.991 1.12079C48.8405 1.22028 48.7225 1.36183 48.6519 1.52781L46.6758 6.15418L41.6767 6.60799C41.4972 6.62442 41.3264 6.69313 41.1856 6.80563C41.0448 6.91812 40.94 7.06945 40.8844 7.24088C40.8287 7.41231 40.8245 7.5963 40.8723 7.77008C40.9202 7.94386 41.018 8.09978 41.1535 8.21855L44.9318 11.5319L43.8202 16.4394C43.7798 16.6149 43.7919 16.7984 43.855 16.9671C43.918 17.1358 44.0293 17.2822 44.1749 17.3882C44.3205 17.4942 44.4941 17.555 44.674 17.5632C44.8539 17.5713 45.0322 17.5264 45.1868 17.434L49.4987 14.857L53.8085 17.434C53.9633 17.5268 54.1418 17.572 54.3221 17.5641C54.5023 17.5562 54.6762 17.4954 54.8222 17.3895C54.9682 17.2835 55.0798 17.1369 55.1431 16.968C55.2065 16.7991 55.2188 16.6153 55.1785 16.4394L54.0668 11.5319L57.8412 8.21921C57.9776 8.10034 58.0759 7.94391 58.124 7.76947C58.172 7.59502 58.1676 7.41029 58.1112 7.23835L58.1125 7.24097Z" fill="#FFC947"/>
<path d="M78.5342 7.24097C78.4791 7.0688 78.3742 6.91682 78.2328 6.80417C78.0915 6.69153 77.9199 6.62326 77.7398 6.60799L72.7433 6.15418L70.7665 1.52781C70.6958 1.36183 70.5779 1.22028 70.4274 1.12079C70.2769 1.02131 70.1005 0.968262 69.9201 0.968262C69.7396 0.968262 69.5632 1.02131 69.4127 1.12079C69.2622 1.22028 69.1443 1.36183 69.0736 1.52781L67.0975 6.15418L62.0984 6.60799C61.9189 6.62442 61.7482 6.69313 61.6073 6.80563C61.4665 6.91812 61.3618 7.06945 61.3061 7.24088C61.2504 7.41231 61.2462 7.5963 61.2941 7.77008C61.3419 7.94386 61.4397 8.09978 61.5753 8.21855L65.3535 11.5319L64.2419 16.4394C64.2015 16.6149 64.2136 16.7984 64.2767 16.9671C64.3398 17.1358 64.451 17.2822 64.5966 17.3882C64.7422 17.4942 64.9158 17.555 65.0957 17.5632C65.2756 17.5713 65.454 17.5264 65.6085 17.434L69.9204 14.857L74.2303 17.434C74.385 17.5268 74.5636 17.572 74.7438 17.5641C74.924 17.5562 75.0979 17.4954 75.2439 17.3895C75.3899 17.2835 75.5015 17.1369 75.5649 16.968C75.6282 16.7991 75.6405 16.6153 75.6002 16.4394L74.4885 11.5319L78.2629 8.21921C78.3993 8.10034 78.4977 7.94391 78.5457 7.76947C78.5937 7.59502 78.5893 7.41029 78.5329 7.23835L78.5342 7.24097Z" fill="#FFC947"/>
<path d="M98.9563 7.24097C98.9011 7.0688 98.7963 6.91682 98.6549 6.80417C98.5135 6.69153 98.3419 6.62326 98.1618 6.60799L93.1653 6.15418L91.1886 1.52781C91.1179 1.36183 90.9999 1.22028 90.8494 1.12079C90.6989 1.02131 90.5225 0.968262 90.3421 0.968262C90.1617 0.968262 89.9852 1.02131 89.8347 1.12079C89.6842 1.22028 89.5663 1.36183 89.4956 1.52781L87.5195 6.15418L82.5204 6.60799C82.3409 6.62442 82.1702 6.69313 82.0294 6.80563C81.8885 6.91812 81.7838 7.06945 81.7281 7.24088C81.6724 7.41231 81.6683 7.5963 81.7161 7.77008C81.7639 7.94386 81.8617 8.09978 81.9973 8.21855L85.7755 11.5319L84.6639 16.4394C84.6235 16.6149 84.6356 16.7984 84.6987 16.9671C84.7618 17.1358 84.873 17.2822 85.0187 17.3882C85.1643 17.4942 85.3378 17.555 85.5177 17.5632C85.6976 17.5713 85.876 17.5264 86.0306 17.434L90.3424 14.857L94.6523 17.434C94.807 17.5268 94.9856 17.572 95.1658 17.5641C95.346 17.5562 95.52 17.4954 95.6659 17.3895C95.8119 17.2835 95.9235 17.1369 95.9869 16.968C96.0502 16.7991 96.0625 16.6153 96.0222 16.4394L94.9106 11.5319L98.6849 8.21921C98.8213 8.10034 98.9197 7.94391 98.9677 7.76947C99.0157 7.59502 99.0113 7.41029 98.955 7.23835L98.9563 7.24097Z" fill="#FFC947"/>
</svg>
