<svg width="115" height="104" viewBox="0 0 115 104" fill="none" xmlns="http://www.w3.org/2000/svg">
<path fill-rule="evenodd" clip-rule="evenodd" d="M40.0414 57.9842L31.8114 55.3533C34.4 56.7117 37.1555 57.5647 40.0414 57.9842M55.8816 68.3435C52.8574 66.979 49.8156 65.731 46.9784 64.0491C49.532 66.3597 52.6774 67.4508 55.8816 68.3435M55.5792 55.5589C56.3693 54.5554 55.6175 54.1813 54.9507 53.8082C52.6966 52.5451 50.4543 53.3108 48.3175 54.0635C46.7601 54.6119 45.2103 55.3782 44.132 56.7516C43.7207 57.2751 43.5397 57.803 44.5126 57.9494C47.1692 58.3487 49.8072 58.3818 52.3878 57.5213C53.6173 57.1114 54.7334 56.4839 55.5792 55.5589M47.9074 62.8578C49.4963 64.2046 51.4296 64.9631 53.3194 65.7728C61.4853 69.2708 70.0294 70.0423 78.8032 69.3973C84.6641 68.9662 90.4263 67.9805 96.1651 66.7894C96.6888 66.6812 97.2141 66.5507 97.7447 66.724C98.3407 66.9191 98.6438 67.2109 97.9432 67.6676C97.771 67.7806 97.4465 67.7608 97.6704 68.0746C98.4422 69.1576 97.6055 69.6834 96.9142 70.215C95.6172 71.2132 94.0193 71.5592 92.5117 72.0385C88.2882 73.3819 84.0097 74.5668 79.6129 75.1801C75.531 75.7491 71.4125 75.7204 67.2971 75.5764C64.6775 75.4847 62.0141 75.3551 59.6006 74.3719C57.9973 73.7187 56.306 73.7084 54.7301 73.0861C51.7092 71.893 48.7129 70.6725 46.011 68.8316C43.7874 67.3162 42.0961 65.3504 41.0532 62.868C40.7096 62.0494 40.1532 61.5845 39.3363 61.3646C37.1352 60.7715 34.9464 60.1059 32.7845 59.4165C29.2668 58.2955 25.9433 56.6216 22.7058 54.8305C17.542 51.9737 12.7345 48.6381 8.80315 44.1695C6.49253 41.5432 4.38512 38.8036 3.92082 35.1719C3.79852 34.2157 3.8585 33.3098 4.50247 32.5212C4.77961 32.181 5.09136 32.0017 5.54378 32.117C6.07833 32.2538 5.89496 32.5665 5.88074 32.9699C5.78235 35.7367 7.6324 37.5258 9.25701 39.4C13.7339 44.565 19.4063 48.1134 25.3884 51.2306C29.9662 53.616 34.7327 55.5317 39.7179 56.8875C40.1139 56.9952 40.5217 57.3242 40.7066 56.5626C41.3507 53.9091 43.045 51.9889 45.2684 50.5603C48.7002 48.3547 52.3818 47.2553 56.3937 48.8306C58.5495 49.6769 59.2884 51.1539 59.1721 53.4539C58.8768 59.3134 54.2636 62.3338 49.3574 62.4996C48.9179 62.5139 48.4789 62.5285 48.0405 62.543C47.9958 62.6481 47.9518 62.7531 47.9074 62.8578" fill="#BF920F"/>
<path fill-rule="evenodd" clip-rule="evenodd" d="M102.208 62.4466C104.775 63.3794 107.411 63.9459 110.146 63.9746C107.5 63.4652 104.854 62.9563 102.208 62.4466M99.8282 74.4138C101.559 72.2545 103.628 70.4281 105.62 68.5259C105.918 68.2417 106.417 68.0658 106.228 67.4729C106.045 66.9036 105.533 66.9499 105.136 66.9216C102.973 66.7651 100.976 65.9825 98.9117 65.431C97.6072 65.0831 96.2265 64.9789 94.8972 64.5805C92.8507 63.9665 90.7557 63.5053 88.6694 63.0335C87.6122 62.7942 86.7128 62.0703 85.5081 62.2346C84.3262 62.3956 83.7581 61.6393 83.7943 59.8908C83.8124 58.9985 84.2239 58.1052 85.3526 58.1095C86.2808 58.1131 87.2248 58.1886 88.1329 58.373C94.1431 59.5938 100.143 60.863 106.152 62.0907C107.501 62.3664 108.869 62.5514 110.231 62.7618C112.707 63.1443 113.25 63.9661 112.83 66.447C112.503 68.3729 111.525 69.7709 109.919 70.8588C106.829 72.9534 103.798 75.1362 101.145 77.7872C100.614 78.3186 100.157 78.9241 99.6458 79.477C99.0541 80.1176 98.596 80.046 98.3148 79.1871C97.6905 77.2836 97.8115 76.896 99.8282 74.4138" fill="#BF920F"/>
</svg>
