<svg width="19" height="15" viewBox="0 0 19 15" fill="none" xmlns="http://www.w3.org/2000/svg">
<path d="M18.1007 2.04563C17.4219 2.34541 16.7054 2.53277 15.9512 2.64519C16.7054 2.19552 17.3088 1.48355 17.5728 0.621682C16.8563 1.03388 16.0644 1.33366 15.197 1.52102C14.5183 0.809044 13.5378 0.359375 12.4819 0.359375C10.4456 0.359375 8.78638 2.00816 8.78638 4.03167C8.78638 4.33145 8.82409 4.59376 8.89951 4.85606C5.84502 4.70617 3.0922 3.24475 1.24442 0.996406C0.942745 1.55849 0.754196 2.15805 0.754196 2.83255C0.754196 4.10662 1.39526 5.23079 2.41343 5.90529C1.81007 5.86782 1.24442 5.71793 0.716486 5.45562V5.49309C0.716486 7.29177 1.99862 8.79066 3.69556 9.12792C3.39388 9.20286 3.05449 9.24033 2.7151 9.24033C2.48885 9.24033 2.22488 9.20286 1.99862 9.16539C2.48885 10.6268 3.8464 11.7135 5.46792 11.7135C4.18579 12.6878 2.60198 13.2874 0.867325 13.2874C0.565647 13.2874 0.263968 13.2874 0 13.2499C1.65923 14.2991 3.58243 14.8987 5.69418 14.8987C12.5196 14.8987 16.2529 9.27781 16.2529 4.40639C16.2529 4.2565 16.2529 4.06914 16.2529 3.91925C16.9694 3.43211 17.6105 2.79508 18.1007 2.04563Z" fill="#FFC947"/>
</svg>
