<svg width="101" height="100" viewBox="0 0 101 100" fill="none" xmlns="http://www.w3.org/2000/svg">
<g clip-path="url(#clip0_8_479)">
<path d="M15.1261 70.0926V99.8108H85.2892V70.0926L53.1311 75.9395V82.27H47.2842V75.9395L15.1261 70.0926Z" fill="white"/>
<path d="M64.825 39.5348L63.2089 38.7268C62.945 38.5948 56.6705 35.4948 50.2077 35.4948C43.7449 35.4948 37.4703 38.5948 37.2064 38.7268L35.5903 39.5348V47.1886H15.1261V64.15L50.2077 70.5284L85.2892 64.15V47.1886H64.825V39.5348ZM58.9781 47.1884H41.4373V43.2577C43.3968 42.4824 46.8513 41.3415 50.2077 41.3415C53.5648 41.3415 57.0199 42.483 58.9781 43.2576V47.1884Z" fill="white"/>
<path d="M6.52857 41.9042L16.283 38.8503L26.0376 41.9042L26.1475 31.6835L32.0662 23.3501L22.3796 20.0871L16.283 11.8831L10.1866 20.0871L0.5 23.3501L6.41865 31.6835L6.52857 41.9042Z" fill="white"/>
<path d="M50.2076 0.18927L44.111 8.39329L34.4244 11.6563L40.3433 19.9897L40.4532 30.2103L50.2076 27.1565L59.9623 30.2103L60.072 19.9895L65.9906 11.6563L56.304 8.39329L50.2076 0.18927Z" fill="white"/>
<path d="M84.7168 11.8831L78.6204 20.0871L68.9338 23.3501L74.8524 31.6833L74.9623 41.9042L84.7168 38.8503L94.4712 41.9042L94.5811 31.6835L100.5 23.3501L90.8134 20.0871L84.7168 11.8831Z" fill="white"/>
</g>
<defs>
<clipPath id="clip0_8_479">
<rect width="100" height="100" fill="white" transform="translate(0.5)"/>
</clipPath>
</defs>
</svg>
